<?xml version="1.0" encoding="utf-8" standalone="no"?>
<!DOCTYPE svg PUBLIC "-//W3C//DTD SVG 1.1//EN"
  "http://www.w3.org/Graphics/SVG/1.1/DTD/svg11.dtd">
<svg xmlns:xlink="http://www.w3.org/1999/xlink" width="720pt" height="432pt" viewBox="0 0 720 432" xmlns="http://www.w3.org/2000/svg" version="1.1">
 <metadata>
  <rdf:RDF xmlns:dc="http://purl.org/dc/elements/1.1/" xmlns:cc="http://creativecommons.org/ns#" xmlns:rdf="http://www.w3.org/1999/02/22-rdf-syntax-ns#">
   <cc:Work>
    <dc:type rdf:resource="http://purl.org/dc/dcmitype/StillImage"/>
    <dc:date>2024-09-08T11:49:38.962284</dc:date>
    <dc:format>image/svg+xml</dc:format>
    <dc:creator>
     <cc:Agent>
      <dc:title>Matplotlib v3.9.1.post1, https://matplotlib.org/</dc:title>
     </cc:Agent>
    </dc:creator>
   </cc:Work>
  </rdf:RDF>
 </metadata>
 <defs>
  <style type="text/css">*{stroke-linejoin: round; stroke-linecap: butt}</style>
 </defs>
 <g id="figure_1">
  <g id="patch_1">
   <path d="M 0 432 
L 720 432 
L 720 0 
L 0 0 
z
" style="fill: #ffffff"/>
  </g>
  <g id="axes_1">
   <g id="patch_2">
    <path d="M 90 384.48 
L 648 384.48 
L 648 51.84 
L 90 51.84 
z
" style="fill: #ffffff"/>
   </g>
   <g id="matplotlib.axis_1">
    <g id="xtick_1">
     <g id="line2d_1">
      <defs>
       <path id="me5713dc824" d="M 0 0 
L 0 3.5 
" style="stroke: #000000; stroke-width: 0.8"/>
      </defs>
      <g>
       <use xlink:href="#me5713dc824" x="115.363636" y="384.48" style="stroke: #000000; stroke-width: 0.8"/>
      </g>
     </g>
     <g id="text_1">
      <!-- −6 -->
      <g transform="translate(102.095668 405.157188) scale(0.18 -0.18)">
       <defs>
        <path id="DejaVuSans-2212" d="M 678 2272 
L 4684 2272 
L 4684 1741 
L 678 1741 
L 678 2272 
z
" transform="scale(0.015625)"/>
        <path id="DejaVuSans-36" d="M 2113 2584 
Q 1688 2584 1439 2293 
Q 1191 2003 1191 1497 
Q 1191 994 1439 701 
Q 1688 409 2113 409 
Q 2538 409 2786 701 
Q 3034 994 3034 1497 
Q 3034 2003 2786 2293 
Q 2538 2584 2113 2584 
z
M 3366 4563 
L 3366 3988 
Q 3128 4100 2886 4159 
Q 2644 4219 2406 4219 
Q 1781 4219 1451 3797 
Q 1122 3375 1075 2522 
Q 1259 2794 1537 2939 
Q 1816 3084 2150 3084 
Q 2853 3084 3261 2657 
Q 3669 2231 3669 1497 
Q 3669 778 3244 343 
Q 2819 -91 2113 -91 
Q 1303 -91 875 529 
Q 447 1150 447 2328 
Q 447 3434 972 4092 
Q 1497 4750 2381 4750 
Q 2619 4750 2861 4703 
Q 3103 4656 3366 4563 
z
" transform="scale(0.015625)"/>
       </defs>
       <use xlink:href="#DejaVuSans-2212"/>
       <use xlink:href="#DejaVuSans-36" x="83.789062"/>
      </g>
     </g>
    </g>
    <g id="xtick_2">
     <g id="line2d_2">
      <g>
       <use xlink:href="#me5713dc824" x="199.909091" y="384.48" style="stroke: #000000; stroke-width: 0.8"/>
      </g>
     </g>
     <g id="text_2">
      <!-- −4 -->
      <g transform="translate(186.641122 405.157188) scale(0.18 -0.18)">
       <defs>
        <path id="DejaVuSans-34" d="M 2419 4116 
L 825 1625 
L 2419 1625 
L 2419 4116 
z
M 2253 4666 
L 3047 4666 
L 3047 1625 
L 3713 1625 
L 3713 1100 
L 3047 1100 
L 3047 0 
L 2419 0 
L 2419 1100 
L 313 1100 
L 313 1709 
L 2253 4666 
z
" transform="scale(0.015625)"/>
       </defs>
       <use xlink:href="#DejaVuSans-2212"/>
       <use xlink:href="#DejaVuSans-34" x="83.789062"/>
      </g>
     </g>
    </g>
    <g id="xtick_3">
     <g id="line2d_3">
      <g>
       <use xlink:href="#me5713dc824" x="284.454545" y="384.48" style="stroke: #000000; stroke-width: 0.8"/>
      </g>
     </g>
     <g id="text_3">
      <!-- −2 -->
      <g transform="translate(271.186577 405.157188) scale(0.18 -0.18)">
       <defs>
        <path id="DejaVuSans-32" d="M 1228 531 
L 3431 531 
L 3431 0 
L 469 0 
L 469 531 
Q 828 903 1448 1529 
Q 2069 2156 2228 2338 
Q 2531 2678 2651 2914 
Q 2772 3150 2772 3378 
Q 2772 3750 2511 3984 
Q 2250 4219 1831 4219 
Q 1534 4219 1204 4116 
Q 875 4013 500 3803 
L 500 4441 
Q 881 4594 1212 4672 
Q 1544 4750 1819 4750 
Q 2544 4750 2975 4387 
Q 3406 4025 3406 3419 
Q 3406 3131 3298 2873 
Q 3191 2616 2906 2266 
Q 2828 2175 2409 1742 
Q 1991 1309 1228 531 
z
" transform="scale(0.015625)"/>
       </defs>
       <use xlink:href="#DejaVuSans-2212"/>
       <use xlink:href="#DejaVuSans-32" x="83.789062"/>
      </g>
     </g>
    </g>
    <g id="xtick_4">
     <g id="line2d_4">
      <g>
       <use xlink:href="#me5713dc824" x="369" y="384.48" style="stroke: #000000; stroke-width: 0.8"/>
      </g>
     </g>
     <g id="text_4">
      <!-- 0 -->
      <g transform="translate(363.27375 405.157188) scale(0.18 -0.18)">
       <defs>
        <path id="DejaVuSans-30" d="M 2034 4250 
Q 1547 4250 1301 3770 
Q 1056 3291 1056 2328 
Q 1056 1369 1301 889 
Q 1547 409 2034 409 
Q 2525 409 2770 889 
Q 3016 1369 3016 2328 
Q 3016 3291 2770 3770 
Q 2525 4250 2034 4250 
z
M 2034 4750 
Q 2819 4750 3233 4129 
Q 3647 3509 3647 2328 
Q 3647 1150 3233 529 
Q 2819 -91 2034 -91 
Q 1250 -91 836 529 
Q 422 1150 422 2328 
Q 422 3509 836 4129 
Q 1250 4750 2034 4750 
z
" transform="scale(0.015625)"/>
       </defs>
       <use xlink:href="#DejaVuSans-30"/>
      </g>
     </g>
    </g>
    <g id="xtick_5">
     <g id="line2d_5">
      <g>
       <use xlink:href="#me5713dc824" x="453.545455" y="384.48" style="stroke: #000000; stroke-width: 0.8"/>
      </g>
     </g>
     <g id="text_5">
      <!-- 2 -->
      <g transform="translate(447.819205 405.157188) scale(0.18 -0.18)">
       <use xlink:href="#DejaVuSans-32"/>
      </g>
     </g>
    </g>
    <g id="xtick_6">
     <g id="line2d_6">
      <g>
       <use xlink:href="#me5713dc824" x="538.090909" y="384.48" style="stroke: #000000; stroke-width: 0.8"/>
      </g>
     </g>
     <g id="text_6">
      <!-- 4 -->
      <g transform="translate(532.364659 405.157188) scale(0.18 -0.18)">
       <use xlink:href="#DejaVuSans-34"/>
      </g>
     </g>
    </g>
    <g id="xtick_7">
     <g id="line2d_7">
      <g>
       <use xlink:href="#me5713dc824" x="622.636364" y="384.48" style="stroke: #000000; stroke-width: 0.8"/>
      </g>
     </g>
     <g id="text_7">
      <!-- 6 -->
      <g transform="translate(616.910114 405.157188) scale(0.18 -0.18)">
       <use xlink:href="#DejaVuSans-36"/>
      </g>
     </g>
    </g>
    <g id="text_8">
     <!-- $\theta$ -->
     <g transform="translate(359.08 437.215625) scale(0.32 -0.32)">
      <defs>
       <path id="DejaVuSans-Oblique-3b8" d="M 2913 2219 
L 925 2219 
Q 791 1284 928 888 
Q 1100 400 1566 400 
Q 2034 400 2391 891 
Q 2703 1322 2913 2219 
z
M 3009 2750 
Q 3094 3638 2984 3950 
Q 2813 4444 2353 4444 
Q 1875 4444 1525 3956 
Q 1250 3563 1034 2750 
L 3009 2750 
z
M 2444 4913 
Q 3194 4913 3494 4250 
Q 3794 3591 3566 2422 
Q 3341 1256 2781 594 
Q 2225 -72 1475 -72 
Q 722 -72 425 594 
Q 128 1256 353 2422 
Q 581 3591 1134 4250 
Q 1691 4913 2444 4913 
z
" transform="scale(0.015625)"/>
      </defs>
      <use xlink:href="#DejaVuSans-Oblique-3b8" transform="translate(0 0.234375)"/>
     </g>
    </g>
   </g>
   <g id="matplotlib.axis_2">
    <g id="ytick_1">
     <g id="line2d_8">
      <defs>
       <path id="mc145226d27" d="M 0 0 
L -3.5 0 
" style="stroke: #000000; stroke-width: 0.8"/>
      </defs>
      <g>
       <use xlink:href="#mc145226d27" x="90" y="369.362971" style="stroke: #000000; stroke-width: 0.8"/>
      </g>
     </g>
     <g id="text_9">
      <!-- 0.00 -->
      <g transform="translate(42.921875 376.201565) scale(0.18 -0.18)">
       <defs>
        <path id="DejaVuSans-2e" d="M 684 794 
L 1344 794 
L 1344 0 
L 684 0 
L 684 794 
z
" transform="scale(0.015625)"/>
       </defs>
       <use xlink:href="#DejaVuSans-30"/>
       <use xlink:href="#DejaVuSans-2e" x="63.623047"/>
       <use xlink:href="#DejaVuSans-30" x="95.410156"/>
       <use xlink:href="#DejaVuSans-30" x="159.033203"/>
      </g>
     </g>
    </g>
    <g id="ytick_2">
     <g id="line2d_9">
      <g>
       <use xlink:href="#mc145226d27" x="90" y="299.376133" style="stroke: #000000; stroke-width: 0.8"/>
      </g>
     </g>
     <g id="text_10">
      <!-- 0.05 -->
      <g transform="translate(42.921875 306.214727) scale(0.18 -0.18)">
       <defs>
        <path id="DejaVuSans-35" d="M 691 4666 
L 3169 4666 
L 3169 4134 
L 1269 4134 
L 1269 2991 
Q 1406 3038 1543 3061 
Q 1681 3084 1819 3084 
Q 2600 3084 3056 2656 
Q 3513 2228 3513 1497 
Q 3513 744 3044 326 
Q 2575 -91 1722 -91 
Q 1428 -91 1123 -41 
Q 819 9 494 109 
L 494 744 
Q 775 591 1075 516 
Q 1375 441 1709 441 
Q 2250 441 2565 725 
Q 2881 1009 2881 1497 
Q 2881 1984 2565 2268 
Q 2250 2553 1709 2553 
Q 1456 2553 1204 2497 
Q 953 2441 691 2322 
L 691 4666 
z
" transform="scale(0.015625)"/>
       </defs>
       <use xlink:href="#DejaVuSans-30"/>
       <use xlink:href="#DejaVuSans-2e" x="63.623047"/>
       <use xlink:href="#DejaVuSans-30" x="95.410156"/>
       <use xlink:href="#DejaVuSans-35" x="159.033203"/>
      </g>
     </g>
    </g>
    <g id="ytick_3">
     <g id="line2d_10">
      <g>
       <use xlink:href="#mc145226d27" x="90" y="229.389295" style="stroke: #000000; stroke-width: 0.8"/>
      </g>
     </g>
     <g id="text_11">
      <!-- 0.10 -->
      <g transform="translate(42.921875 236.227889) scale(0.18 -0.18)">
       <defs>
        <path id="DejaVuSans-31" d="M 794 531 
L 1825 531 
L 1825 4091 
L 703 3866 
L 703 4441 
L 1819 4666 
L 2450 4666 
L 2450 531 
L 3481 531 
L 3481 0 
L 794 0 
L 794 531 
z
" transform="scale(0.015625)"/>
       </defs>
       <use xlink:href="#DejaVuSans-30"/>
       <use xlink:href="#DejaVuSans-2e" x="63.623047"/>
       <use xlink:href="#DejaVuSans-31" x="95.410156"/>
       <use xlink:href="#DejaVuSans-30" x="159.033203"/>
      </g>
     </g>
    </g>
    <g id="ytick_4">
     <g id="line2d_11">
      <g>
       <use xlink:href="#mc145226d27" x="90" y="159.402457" style="stroke: #000000; stroke-width: 0.8"/>
      </g>
     </g>
     <g id="text_12">
      <!-- 0.15 -->
      <g transform="translate(42.921875 166.241051) scale(0.18 -0.18)">
       <use xlink:href="#DejaVuSans-30"/>
       <use xlink:href="#DejaVuSans-2e" x="63.623047"/>
       <use xlink:href="#DejaVuSans-31" x="95.410156"/>
       <use xlink:href="#DejaVuSans-35" x="159.033203"/>
      </g>
     </g>
    </g>
    <g id="ytick_5">
     <g id="line2d_12">
      <g>
       <use xlink:href="#mc145226d27" x="90" y="89.415619" style="stroke: #000000; stroke-width: 0.8"/>
      </g>
     </g>
     <g id="text_13">
      <!-- 0.20 -->
      <g transform="translate(42.921875 96.254213) scale(0.18 -0.18)">
       <use xlink:href="#DejaVuSans-30"/>
       <use xlink:href="#DejaVuSans-2e" x="63.623047"/>
       <use xlink:href="#DejaVuSans-32" x="95.410156"/>
       <use xlink:href="#DejaVuSans-30" x="159.033203"/>
      </g>
     </g>
    </g>
   </g>
   <g id="line2d_13">
    <path d="M 115.363636 365.730829 
L 121.964783 364.727733 
L 128.058149 363.593295 
L 134.151515 362.232171 
L 139.737101 360.763737 
L 145.322686 359.064593 
L 150.908272 357.116244 
L 155.986077 355.113532 
L 161.063882 352.87641 
L 166.141687 350.391126 
L 171.219492 347.643187 
L 175.789517 344.932462 
L 180.359541 341.983557 
L 184.929566 338.782688 
L 189.49959 335.315282 
L 194.069615 331.566697 
L 198.63964 327.5233 
L 203.209664 323.173748 
L 207.779689 318.510243 
L 212.349713 313.529511 
L 216.919738 308.233278 
L 221.997543 301.986708 
L 227.075348 295.373842 
L 232.153153 288.414088 
L 237.738739 280.383763 
L 243.832105 271.210274 
L 250.433251 260.830746 
L 257.542179 249.199443 
L 265.158886 236.302927 
L 274.806716 219.507471 
L 301.211302 173.253312 
L 308.82801 160.495418 
L 314.921376 150.688476 
L 320.506962 142.109269 
L 325.584767 134.732676 
L 330.154791 128.504488 
L 334.217035 123.345049 
L 337.771499 119.156301 
L 341.325962 115.30123 
L 344.880426 111.807405 
L 347.927109 109.120291 
L 350.973792 106.73375 
L 354.020475 104.662412 
L 356.559378 103.186702 
L 359.09828 101.945954 
L 361.637183 100.94607 
L 364.176085 100.19191 
L 366.714988 99.687171 
L 369.25389 99.434281 
L 371.792793 99.434328 
L 374.331695 99.687006 
L 376.870598 100.190621 
L 379.4095 100.942127 
L 381.948403 101.937214 
L 384.487305 103.170439 
L 387.026208 104.635394 
L 389.565111 106.324896 
L 392.611794 108.637759 
L 395.658477 111.248751 
L 398.70516 114.143563 
L 402.259623 117.860658 
L 405.814087 121.922982 
L 409.36855 126.309791 
L 413.430794 131.695363 
L 417.493038 137.450696 
L 422.063063 144.33242 
L 426.633088 151.605098 
L 431.710893 160.089998 
L 437.804259 170.741106 
L 444.913186 183.651972 
L 455.576577 203.544685 
L 469.28665 229.051229 
L 476.903358 242.770977 
L 483.504505 254.235535 
L 489.597871 264.388839 
L 495.183456 273.285425 
L 500.769042 281.755095 
L 505.846847 289.064587 
L 510.924652 295.991708 
L 516.002457 302.532599 
L 521.080262 308.688453 
L 526.158067 314.463666 
L 530.728092 319.340636 
L 535.298116 323.918104 
L 539.868141 328.199911 
L 544.438165 332.189753 
L 549.00819 335.891758 
L 553.578215 339.311222 
L 558.148239 342.455286 
L 562.718264 345.333342 
L 567.288288 347.957099 
L 571.858313 350.340308 
L 576.936118 352.724805 
L 582.013923 354.853372 
L 587.091728 356.74842 
L 592.677314 358.589171 
L 598.262899 360.2007 
L 604.356265 361.726044 
L 610.957412 363.136073 
L 617.558559 364.324053 
L 622.636364 365.103747 
L 622.636364 365.103747 
" clip-path="url(#p5d823552cd)" style="fill: none; stroke: #1f77b4; stroke-opacity: 0.9; stroke-width: 1.5; stroke-linecap: square"/>
   </g>
   <g id="line2d_14">
    <path d="M 115.363636 369.353909 
L 131.612613 369.209453 
L 146.338247 368.870549 
L 153.954955 368.475018 
L 161.571663 367.868068 
L 167.157248 367.219675 
L 170.711712 366.610472 
L 173.758395 365.881083 
L 176.297297 365.070913 
L 178.8362 364.02794 
L 181.375102 362.707383 
L 183.406224 361.4245 
L 185.437346 359.923418 
L 187.468468 358.194353 
L 190.007371 355.706673 
L 192.546274 352.85754 
L 195.085176 349.648057 
L 197.624079 346.065547 
L 200.162981 342.070864 
L 202.701884 337.594403 
L 204.733006 333.606124 
L 206.764128 329.206626 
L 208.79525 324.36298 
L 211.334152 317.670515 
L 213.873055 310.311699 
L 216.919738 300.751078 
L 220.981982 287.13004 
L 225.044226 272.772235 
L 228.59869 259.464427 
L 231.645373 247.260863 
L 234.692056 234.193064 
L 238.246519 217.94107 
L 243.324324 193.502826 
L 256.018837 131.808372 
L 259.06552 118.244661 
L 261.604423 107.858356 
L 264.143325 98.509069 
L 266.174447 91.866598 
L 268.205569 86.0176 
L 269.728911 82.171448 
L 271.252252 78.801881 
L 272.775594 75.919863 
L 274.298935 73.534822 
L 275.822277 71.652708 
L 276.837838 70.677556 
L 277.853399 69.923715 
L 278.86896 69.386779 
L 279.884521 69.059978 
L 280.900082 68.934119 
L 281.915643 68.997697 
L 282.931204 69.237202 
L 284.454545 69.893155 
L 285.977887 70.857126 
L 287.501229 72.076622 
L 289.532351 74.023781 
L 291.563473 76.276467 
L 293.594595 78.819492 
L 295.625717 81.695628 
L 297.656839 84.996673 
L 299.687961 88.844993 
L 301.211302 92.168653 
L 302.734644 95.922708 
L 304.257985 100.146221 
L 306.289107 106.548484 
L 308.320229 113.840184 
L 310.351351 121.978823 
L 312.890254 133.197319 
L 315.936937 147.82974 
L 321.522523 176.14968 
L 326.092547 198.76802 
L 329.13923 212.851426 
L 332.185913 225.957071 
L 335.232596 238.125734 
L 338.279279 249.476861 
L 341.325962 260.09146 
L 344.372645 269.939321 
L 346.911548 277.467425 
L 349.45045 284.279515 
L 351.481572 289.16346 
L 353.512695 293.522644 
L 355.543817 297.35523 
L 357.574939 300.672926 
L 359.606061 303.494985 
L 361.637183 305.841903 
L 363.160524 307.300391 
L 364.683866 308.50495 
L 366.207207 309.45613 
L 367.730549 310.150451 
L 369.25389 310.57998 
L 370.777232 310.732159 
L 372.300573 310.590008 
L 373.823915 310.132828 
L 375.347256 309.337492 
L 376.870598 308.180292 
L 378.393939 306.639232 
L 379.917281 304.696522 
L 381.440622 302.340942 
L 382.963964 299.56973 
L 384.487305 296.389677 
L 386.518428 291.543267 
L 388.54955 286.061913 
L 391.088452 278.438766 
L 393.627355 270.109368 
L 396.674038 259.366985 
L 400.228501 245.95634 
L 403.782965 231.632531 
L 407.337428 216.410156 
L 411.907453 195.822653 
L 421.555283 152.098854 
L 426.633088 130.292282 
L 430.695332 113.814543 
L 433.742015 102.431447 
L 436.280917 93.90298 
L 438.312039 87.859797 
L 440.343161 82.587324 
L 441.866503 79.157013 
L 443.389844 76.174329 
L 444.913186 73.628569 
L 446.436527 71.505321 
L 447.959869 69.791296 
L 449.48321 68.47838 
L 451.006552 67.566119 
L 452.022113 67.184027 
L 453.037674 66.98731 
L 454.053235 66.980953 
L 455.068796 67.170421 
L 456.084357 67.56113 
L 457.099918 68.157946 
L 458.115479 68.964723 
L 459.13104 69.983956 
L 460.654382 71.912695 
L 462.177723 74.317167 
L 463.701065 77.185619 
L 465.224406 80.500165 
L 467.255528 85.57561 
L 469.28665 91.350148 
L 471.317772 97.770503 
L 473.856675 106.630626 
L 476.395577 116.337055 
L 479.44226 128.975831 
L 482.996724 144.852056 
L 487.566749 166.45103 
L 496.199017 207.438205 
L 500.261261 225.478823 
L 504.323505 242.465091 
L 508.89353 260.54368 
L 513.463554 277.688239 
L 517.018018 290.169655 
L 520.064701 299.993801 
L 522.603604 307.42 
L 525.142506 314.115814 
L 527.681409 320.129284 
L 530.220311 325.568441 
L 533.266994 331.512075 
L 536.313677 336.965875 
L 539.36036 341.973691 
L 541.899263 345.767041 
L 544.438165 349.158334 
L 546.469287 351.554648 
L 548.50041 353.664146 
L 550.531532 355.500031 
L 553.070434 357.454118 
L 555.609337 359.100384 
L 558.65602 360.779845 
L 562.210483 362.463524 
L 566.272727 364.122877 
L 569.827191 365.348376 
L 573.381654 366.337495 
L 576.936118 367.084419 
L 580.998362 367.680921 
L 586.076167 368.167463 
L 594.708436 368.727883 
L 604.356265 369.159011 
L 613.496314 369.326739 
L 622.636364 369.36 
L 622.636364 369.36 
" clip-path="url(#p5d823552cd)" style="fill: none; stroke: #ff7f0e; stroke-opacity: 0.9; stroke-width: 1.5; stroke-linecap: square"/>
   </g>
   <g id="patch_3">
    <path d="M 90 384.48 
L 90 51.84 
" style="fill: none; stroke: #000000; stroke-width: 0.8; stroke-linejoin: miter; stroke-linecap: square"/>
   </g>
   <g id="patch_4">
    <path d="M 90 384.48 
L 648 384.48 
" style="fill: none; stroke: #000000; stroke-width: 0.8; stroke-linejoin: miter; stroke-linecap: square"/>
   </g>
   <g id="legend_1">
    <g id="patch_5">
     <path d="M 498.2625 119.08125 
L 635.4 119.08125 
Q 639 119.08125 639 115.48125 
L 639 64.44 
Q 639 60.84 635.4 60.84 
L 498.2625 60.84 
Q 494.6625 60.84 494.6625 64.44 
L 494.6625 115.48125 
Q 494.6625 119.08125 498.2625 119.08125 
z
" style="fill: #ffffff; opacity: 0.8; stroke: #cccccc; stroke-linejoin: miter"/>
    </g>
    <g id="line2d_15">
     <path d="M 501.8625 75.417187 
L 519.8625 75.417187 
L 537.8625 75.417187 
" style="fill: none; stroke: #1f77b4; stroke-opacity: 0.9; stroke-width: 1.5; stroke-linecap: square"/>
    </g>
    <g id="text_14">
     <!-- Prior -->
     <g transform="translate(552.2625 81.717187) scale(0.18 -0.18)">
      <defs>
       <path id="DejaVuSans-50" d="M 1259 4147 
L 1259 2394 
L 2053 2394 
Q 2494 2394 2734 2622 
Q 2975 2850 2975 3272 
Q 2975 3691 2734 3919 
Q 2494 4147 2053 4147 
L 1259 4147 
z
M 628 4666 
L 2053 4666 
Q 2838 4666 3239 4311 
Q 3641 3956 3641 3272 
Q 3641 2581 3239 2228 
Q 2838 1875 2053 1875 
L 1259 1875 
L 1259 0 
L 628 0 
L 628 4666 
z
" transform="scale(0.015625)"/>
       <path id="DejaVuSans-72" d="M 2631 2963 
Q 2534 3019 2420 3045 
Q 2306 3072 2169 3072 
Q 1681 3072 1420 2755 
Q 1159 2438 1159 1844 
L 1159 0 
L 581 0 
L 581 3500 
L 1159 3500 
L 1159 2956 
Q 1341 3275 1631 3429 
Q 1922 3584 2338 3584 
Q 2397 3584 2469 3576 
Q 2541 3569 2628 3553 
L 2631 2963 
z
" transform="scale(0.015625)"/>
       <path id="DejaVuSans-69" d="M 603 3500 
L 1178 3500 
L 1178 0 
L 603 0 
L 603 3500 
z
M 603 4863 
L 1178 4863 
L 1178 4134 
L 603 4134 
L 603 4863 
z
" transform="scale(0.015625)"/>
       <path id="DejaVuSans-6f" d="M 1959 3097 
Q 1497 3097 1228 2736 
Q 959 2375 959 1747 
Q 959 1119 1226 758 
Q 1494 397 1959 397 
Q 2419 397 2687 759 
Q 2956 1122 2956 1747 
Q 2956 2369 2687 2733 
Q 2419 3097 1959 3097 
z
M 1959 3584 
Q 2709 3584 3137 3096 
Q 3566 2609 3566 1747 
Q 3566 888 3137 398 
Q 2709 -91 1959 -91 
Q 1206 -91 779 398 
Q 353 888 353 1747 
Q 353 2609 779 3096 
Q 1206 3584 1959 3584 
z
" transform="scale(0.015625)"/>
      </defs>
      <use xlink:href="#DejaVuSans-50"/>
      <use xlink:href="#DejaVuSans-72" x="58.552734"/>
      <use xlink:href="#DejaVuSans-69" x="99.666016"/>
      <use xlink:href="#DejaVuSans-6f" x="127.449219"/>
      <use xlink:href="#DejaVuSans-72" x="188.630859"/>
     </g>
    </g>
    <g id="line2d_16">
     <path d="M 501.8625 101.837812 
L 519.8625 101.837812 
L 537.8625 101.837812 
" style="fill: none; stroke: #ff7f0e; stroke-opacity: 0.9; stroke-width: 1.5; stroke-linecap: square"/>
    </g>
    <g id="text_15">
     <!-- Posterior -->
     <g transform="translate(552.2625 108.137812) scale(0.18 -0.18)">
      <defs>
       <path id="DejaVuSans-73" d="M 2834 3397 
L 2834 2853 
Q 2591 2978 2328 3040 
Q 2066 3103 1784 3103 
Q 1356 3103 1142 2972 
Q 928 2841 928 2578 
Q 928 2378 1081 2264 
Q 1234 2150 1697 2047 
L 1894 2003 
Q 2506 1872 2764 1633 
Q 3022 1394 3022 966 
Q 3022 478 2636 193 
Q 2250 -91 1575 -91 
Q 1294 -91 989 -36 
Q 684 19 347 128 
L 347 722 
Q 666 556 975 473 
Q 1284 391 1588 391 
Q 1994 391 2212 530 
Q 2431 669 2431 922 
Q 2431 1156 2273 1281 
Q 2116 1406 1581 1522 
L 1381 1569 
Q 847 1681 609 1914 
Q 372 2147 372 2553 
Q 372 3047 722 3315 
Q 1072 3584 1716 3584 
Q 2034 3584 2315 3537 
Q 2597 3491 2834 3397 
z
" transform="scale(0.015625)"/>
       <path id="DejaVuSans-74" d="M 1172 4494 
L 1172 3500 
L 2356 3500 
L 2356 3053 
L 1172 3053 
L 1172 1153 
Q 1172 725 1289 603 
Q 1406 481 1766 481 
L 2356 481 
L 2356 0 
L 1766 0 
Q 1100 0 847 248 
Q 594 497 594 1153 
L 594 3053 
L 172 3053 
L 172 3500 
L 594 3500 
L 594 4494 
L 1172 4494 
z
" transform="scale(0.015625)"/>
       <path id="DejaVuSans-65" d="M 3597 1894 
L 3597 1613 
L 953 1613 
Q 991 1019 1311 708 
Q 1631 397 2203 397 
Q 2534 397 2845 478 
Q 3156 559 3463 722 
L 3463 178 
Q 3153 47 2828 -22 
Q 2503 -91 2169 -91 
Q 1331 -91 842 396 
Q 353 884 353 1716 
Q 353 2575 817 3079 
Q 1281 3584 2069 3584 
Q 2775 3584 3186 3129 
Q 3597 2675 3597 1894 
z
M 3022 2063 
Q 3016 2534 2758 2815 
Q 2500 3097 2075 3097 
Q 1594 3097 1305 2825 
Q 1016 2553 972 2059 
L 3022 2063 
z
" transform="scale(0.015625)"/>
      </defs>
      <use xlink:href="#DejaVuSans-50"/>
      <use xlink:href="#DejaVuSans-6f" x="56.677734"/>
      <use xlink:href="#DejaVuSans-73" x="117.859375"/>
      <use xlink:href="#DejaVuSans-74" x="169.958984"/>
      <use xlink:href="#DejaVuSans-65" x="209.167969"/>
      <use xlink:href="#DejaVuSans-72" x="270.691406"/>
      <use xlink:href="#DejaVuSans-69" x="311.804688"/>
      <use xlink:href="#DejaVuSans-6f" x="339.587891"/>
      <use xlink:href="#DejaVuSans-72" x="400.769531"/>
     </g>
    </g>
   </g>
  </g>
 </g>
 <defs>
  <clipPath id="p5d823552cd">
   <rect x="90" y="51.84" width="558" height="332.64"/>
  </clipPath>
 </defs>
</svg>
