<?xml version="1.0" encoding="utf-8" standalone="no"?>
<!DOCTYPE svg PUBLIC "-//W3C//DTD SVG 1.1//EN"
  "http://www.w3.org/Graphics/SVG/1.1/DTD/svg11.dtd">
<svg xmlns:xlink="http://www.w3.org/1999/xlink" width="432pt" height="216pt" viewBox="0 0 432 216" xmlns="http://www.w3.org/2000/svg" version="1.1">
 <metadata>
  <rdf:RDF xmlns:dc="http://purl.org/dc/elements/1.1/" xmlns:cc="http://creativecommons.org/ns#" xmlns:rdf="http://www.w3.org/1999/02/22-rdf-syntax-ns#">
   <cc:Work>
    <dc:type rdf:resource="http://purl.org/dc/dcmitype/StillImage"/>
    <dc:date>2024-09-09T11:16:56.256780</dc:date>
    <dc:format>image/svg+xml</dc:format>
    <dc:creator>
     <cc:Agent>
      <dc:title>Matplotlib v3.9.1.post1, https://matplotlib.org/</dc:title>
     </cc:Agent>
    </dc:creator>
   </cc:Work>
  </rdf:RDF>
 </metadata>
 <defs>
  <style type="text/css">*{stroke-linejoin: round; stroke-linecap: butt}</style>
 </defs>
 <g id="figure_1">
  <g id="patch_1">
   <path d="M 0 216 
L 432 216 
L 432 0 
L 0 0 
z
" style="fill: #ffffff"/>
  </g>
  <g id="axes_1">
   <g id="patch_2">
    <path d="M 49.03 160.36 
L 421.2 160.36 
L 421.2 10.8 
L 49.03 10.8 
z
" style="fill: #ffffff"/>
   </g>
   <g id="matplotlib.axis_1">
    <g id="xtick_1">
     <g id="line2d_1">
      <defs>
       <path id="m5f09479bee" d="M 0 0 
L 0 3.5 
" style="stroke: #000000; stroke-width: 0.8"/>
      </defs>
      <g>
       <use xlink:href="#m5f09479bee" x="65.946818" y="160.36" style="stroke: #000000; stroke-width: 0.8"/>
      </g>
     </g>
     <g id="text_1">
      <!-- −6 -->
      <g transform="translate(55.627287 177.997813) scale(0.14 -0.14)">
       <defs>
        <path id="DejaVuSans-2212" d="M 678 2272 
L 4684 2272 
L 4684 1741 
L 678 1741 
L 678 2272 
z
" transform="scale(0.015625)"/>
        <path id="DejaVuSans-36" d="M 2113 2584 
Q 1688 2584 1439 2293 
Q 1191 2003 1191 1497 
Q 1191 994 1439 701 
Q 1688 409 2113 409 
Q 2538 409 2786 701 
Q 3034 994 3034 1497 
Q 3034 2003 2786 2293 
Q 2538 2584 2113 2584 
z
M 3366 4563 
L 3366 3988 
Q 3128 4100 2886 4159 
Q 2644 4219 2406 4219 
Q 1781 4219 1451 3797 
Q 1122 3375 1075 2522 
Q 1259 2794 1537 2939 
Q 1816 3084 2150 3084 
Q 2853 3084 3261 2657 
Q 3669 2231 3669 1497 
Q 3669 778 3244 343 
Q 2819 -91 2113 -91 
Q 1303 -91 875 529 
Q 447 1150 447 2328 
Q 447 3434 972 4092 
Q 1497 4750 2381 4750 
Q 2619 4750 2861 4703 
Q 3103 4656 3366 4563 
z
" transform="scale(0.015625)"/>
       </defs>
       <use xlink:href="#DejaVuSans-2212"/>
       <use xlink:href="#DejaVuSans-36" x="83.789062"/>
      </g>
     </g>
    </g>
    <g id="xtick_2">
     <g id="line2d_2">
      <g>
       <use xlink:href="#m5f09479bee" x="122.336212" y="160.36" style="stroke: #000000; stroke-width: 0.8"/>
      </g>
     </g>
     <g id="text_2">
      <!-- −4 -->
      <g transform="translate(112.016681 177.997813) scale(0.14 -0.14)">
       <defs>
        <path id="DejaVuSans-34" d="M 2419 4116 
L 825 1625 
L 2419 1625 
L 2419 4116 
z
M 2253 4666 
L 3047 4666 
L 3047 1625 
L 3713 1625 
L 3713 1100 
L 3047 1100 
L 3047 0 
L 2419 0 
L 2419 1100 
L 313 1100 
L 313 1709 
L 2253 4666 
z
" transform="scale(0.015625)"/>
       </defs>
       <use xlink:href="#DejaVuSans-2212"/>
       <use xlink:href="#DejaVuSans-34" x="83.789062"/>
      </g>
     </g>
    </g>
    <g id="xtick_3">
     <g id="line2d_3">
      <g>
       <use xlink:href="#m5f09479bee" x="178.725606" y="160.36" style="stroke: #000000; stroke-width: 0.8"/>
      </g>
     </g>
     <g id="text_3">
      <!-- −2 -->
      <g transform="translate(168.406075 177.997813) scale(0.14 -0.14)">
       <defs>
        <path id="DejaVuSans-32" d="M 1228 531 
L 3431 531 
L 3431 0 
L 469 0 
L 469 531 
Q 828 903 1448 1529 
Q 2069 2156 2228 2338 
Q 2531 2678 2651 2914 
Q 2772 3150 2772 3378 
Q 2772 3750 2511 3984 
Q 2250 4219 1831 4219 
Q 1534 4219 1204 4116 
Q 875 4013 500 3803 
L 500 4441 
Q 881 4594 1212 4672 
Q 1544 4750 1819 4750 
Q 2544 4750 2975 4387 
Q 3406 4025 3406 3419 
Q 3406 3131 3298 2873 
Q 3191 2616 2906 2266 
Q 2828 2175 2409 1742 
Q 1991 1309 1228 531 
z
" transform="scale(0.015625)"/>
       </defs>
       <use xlink:href="#DejaVuSans-2212"/>
       <use xlink:href="#DejaVuSans-32" x="83.789062"/>
      </g>
     </g>
    </g>
    <g id="xtick_4">
     <g id="line2d_4">
      <g>
       <use xlink:href="#m5f09479bee" x="235.115" y="160.36" style="stroke: #000000; stroke-width: 0.8"/>
      </g>
     </g>
     <g id="text_4">
      <!-- 0 -->
      <g transform="translate(230.66125 177.997813) scale(0.14 -0.14)">
       <defs>
        <path id="DejaVuSans-30" d="M 2034 4250 
Q 1547 4250 1301 3770 
Q 1056 3291 1056 2328 
Q 1056 1369 1301 889 
Q 1547 409 2034 409 
Q 2525 409 2770 889 
Q 3016 1369 3016 2328 
Q 3016 3291 2770 3770 
Q 2525 4250 2034 4250 
z
M 2034 4750 
Q 2819 4750 3233 4129 
Q 3647 3509 3647 2328 
Q 3647 1150 3233 529 
Q 2819 -91 2034 -91 
Q 1250 -91 836 529 
Q 422 1150 422 2328 
Q 422 3509 836 4129 
Q 1250 4750 2034 4750 
z
" transform="scale(0.015625)"/>
       </defs>
       <use xlink:href="#DejaVuSans-30"/>
      </g>
     </g>
    </g>
    <g id="xtick_5">
     <g id="line2d_5">
      <g>
       <use xlink:href="#m5f09479bee" x="291.504394" y="160.36" style="stroke: #000000; stroke-width: 0.8"/>
      </g>
     </g>
     <g id="text_5">
      <!-- 2 -->
      <g transform="translate(287.050644 177.997813) scale(0.14 -0.14)">
       <use xlink:href="#DejaVuSans-32"/>
      </g>
     </g>
    </g>
    <g id="xtick_6">
     <g id="line2d_6">
      <g>
       <use xlink:href="#m5f09479bee" x="347.893788" y="160.36" style="stroke: #000000; stroke-width: 0.8"/>
      </g>
     </g>
     <g id="text_6">
      <!-- 4 -->
      <g transform="translate(343.440038 177.997813) scale(0.14 -0.14)">
       <use xlink:href="#DejaVuSans-34"/>
      </g>
     </g>
    </g>
    <g id="xtick_7">
     <g id="line2d_7">
      <g>
       <use xlink:href="#m5f09479bee" x="404.283182" y="160.36" style="stroke: #000000; stroke-width: 0.8"/>
      </g>
     </g>
     <g id="text_7">
      <!-- 6 -->
      <g transform="translate(399.829432 177.997813) scale(0.14 -0.14)">
       <use xlink:href="#DejaVuSans-36"/>
      </g>
     </g>
    </g>
    <g id="text_8">
     <!-- $\theta$ -->
     <g transform="translate(228.915 200.10625) scale(0.2 -0.2)">
      <defs>
       <path id="DejaVuSans-Oblique-3b8" d="M 2913 2219 
L 925 2219 
Q 791 1284 928 888 
Q 1100 400 1566 400 
Q 2034 400 2391 891 
Q 2703 1322 2913 2219 
z
M 3009 2750 
Q 3094 3638 2984 3950 
Q 2813 4444 2353 4444 
Q 1875 4444 1525 3956 
Q 1250 3563 1034 2750 
L 3009 2750 
z
M 2444 4913 
Q 3194 4913 3494 4250 
Q 3794 3591 3566 2422 
Q 3341 1256 2781 594 
Q 2225 -72 1475 -72 
Q 722 -72 425 594 
Q 128 1256 353 2422 
Q 581 3591 1134 4250 
Q 1691 4913 2444 4913 
z
" transform="scale(0.015625)"/>
      </defs>
      <use xlink:href="#DejaVuSans-Oblique-3b8" transform="translate(0 0.234375)"/>
     </g>
    </g>
   </g>
   <g id="matplotlib.axis_2">
    <g id="ytick_1">
     <g id="line2d_8">
      <defs>
       <path id="m7617570a74" d="M 0 0 
L -3.5 0 
" style="stroke: #000000; stroke-width: 0.8"/>
      </defs>
      <g>
       <use xlink:href="#m7617570a74" x="49.03" y="153.576301" style="stroke: #000000; stroke-width: 0.8"/>
      </g>
     </g>
     <g id="text_9">
      <!-- 0.00 -->
      <g transform="translate(10.858125 158.895207) scale(0.14 -0.14)">
       <defs>
        <path id="DejaVuSans-2e" d="M 684 794 
L 1344 794 
L 1344 0 
L 684 0 
L 684 794 
z
" transform="scale(0.015625)"/>
       </defs>
       <use xlink:href="#DejaVuSans-30"/>
       <use xlink:href="#DejaVuSans-2e" x="63.623047"/>
       <use xlink:href="#DejaVuSans-30" x="95.410156"/>
       <use xlink:href="#DejaVuSans-30" x="159.033203"/>
      </g>
     </g>
    </g>
    <g id="ytick_2">
     <g id="line2d_9">
      <g>
       <use xlink:href="#m7617570a74" x="49.03" y="121.626746" style="stroke: #000000; stroke-width: 0.8"/>
      </g>
     </g>
     <g id="text_10">
      <!-- 0.05 -->
      <g transform="translate(10.858125 126.945653) scale(0.14 -0.14)">
       <defs>
        <path id="DejaVuSans-35" d="M 691 4666 
L 3169 4666 
L 3169 4134 
L 1269 4134 
L 1269 2991 
Q 1406 3038 1543 3061 
Q 1681 3084 1819 3084 
Q 2600 3084 3056 2656 
Q 3513 2228 3513 1497 
Q 3513 744 3044 326 
Q 2575 -91 1722 -91 
Q 1428 -91 1123 -41 
Q 819 9 494 109 
L 494 744 
Q 775 591 1075 516 
Q 1375 441 1709 441 
Q 2250 441 2565 725 
Q 2881 1009 2881 1497 
Q 2881 1984 2565 2268 
Q 2250 2553 1709 2553 
Q 1456 2553 1204 2497 
Q 953 2441 691 2322 
L 691 4666 
z
" transform="scale(0.015625)"/>
       </defs>
       <use xlink:href="#DejaVuSans-30"/>
       <use xlink:href="#DejaVuSans-2e" x="63.623047"/>
       <use xlink:href="#DejaVuSans-30" x="95.410156"/>
       <use xlink:href="#DejaVuSans-35" x="159.033203"/>
      </g>
     </g>
    </g>
    <g id="ytick_3">
     <g id="line2d_10">
      <g>
       <use xlink:href="#m7617570a74" x="49.03" y="89.677192" style="stroke: #000000; stroke-width: 0.8"/>
      </g>
     </g>
     <g id="text_11">
      <!-- 0.10 -->
      <g transform="translate(10.858125 94.996098) scale(0.14 -0.14)">
       <defs>
        <path id="DejaVuSans-31" d="M 794 531 
L 1825 531 
L 1825 4091 
L 703 3866 
L 703 4441 
L 1819 4666 
L 2450 4666 
L 2450 531 
L 3481 531 
L 3481 0 
L 794 0 
L 794 531 
z
" transform="scale(0.015625)"/>
       </defs>
       <use xlink:href="#DejaVuSans-30"/>
       <use xlink:href="#DejaVuSans-2e" x="63.623047"/>
       <use xlink:href="#DejaVuSans-31" x="95.410156"/>
       <use xlink:href="#DejaVuSans-30" x="159.033203"/>
      </g>
     </g>
    </g>
    <g id="ytick_4">
     <g id="line2d_11">
      <g>
       <use xlink:href="#m7617570a74" x="49.03" y="57.727638" style="stroke: #000000; stroke-width: 0.8"/>
      </g>
     </g>
     <g id="text_12">
      <!-- 0.15 -->
      <g transform="translate(10.858125 63.046544) scale(0.14 -0.14)">
       <use xlink:href="#DejaVuSans-30"/>
       <use xlink:href="#DejaVuSans-2e" x="63.623047"/>
       <use xlink:href="#DejaVuSans-31" x="95.410156"/>
       <use xlink:href="#DejaVuSans-35" x="159.033203"/>
      </g>
     </g>
    </g>
    <g id="ytick_5">
     <g id="line2d_12">
      <g>
       <use xlink:href="#m7617570a74" x="49.03" y="25.778084" style="stroke: #000000; stroke-width: 0.8"/>
      </g>
     </g>
     <g id="text_13">
      <!-- 0.20 -->
      <g transform="translate(10.858125 31.09699) scale(0.14 -0.14)">
       <use xlink:href="#DejaVuSans-30"/>
       <use xlink:href="#DejaVuSans-2e" x="63.623047"/>
       <use xlink:href="#DejaVuSans-32" x="95.410156"/>
       <use xlink:href="#DejaVuSans-30" x="159.033203"/>
      </g>
     </g>
    </g>
   </g>
   <g id="line2d_13">
    <path d="M 65.946818 153.522634 
L 76.107069 153.316154 
L 82.541895 152.972313 
L 87.622021 152.485289 
L 92.024796 151.835327 
L 95.750222 151.062804 
L 99.136972 150.134509 
L 102.185047 149.073105 
L 104.894448 147.915499 
L 107.603848 146.523039 
L 110.313248 144.861434 
L 112.683974 143.158864 
L 115.054699 141.199391 
L 117.425424 138.960331 
L 119.796149 136.420926 
L 122.166875 133.563266 
L 124.5376 130.373136 
L 126.908325 126.840744 
L 129.617725 122.378778 
L 132.327126 117.465579 
L 135.036526 112.113426 
L 138.084601 105.597807 
L 141.471352 97.809111 
L 145.535452 87.853986 
L 159.082454 54.031307 
L 161.791854 48.169401 
L 164.162579 43.576757 
L 166.19463 40.115594 
L 167.888005 37.607629 
L 169.58138 35.47005 
L 171.274755 33.724349 
L 172.629455 32.621054 
L 173.984156 31.784876 
L 175.338856 31.219329 
L 176.693556 30.925656 
L 178.048256 30.902892 
L 179.402956 31.147964 
L 180.757656 31.655827 
L 182.112356 32.419629 
L 183.467057 33.430891 
L 185.160432 35.027736 
L 186.853807 36.973635 
L 188.547182 39.244127 
L 190.579232 42.359964 
L 192.949958 46.473412 
L 195.659358 51.707194 
L 198.707433 58.127484 
L 202.771534 67.266873 
L 212.59311 89.640237 
L 215.641185 95.97351 
L 218.350586 101.121796 
L 220.721311 105.169371 
L 222.753361 108.249009 
L 224.785411 110.931782 
L 226.478787 112.841933 
L 228.172162 114.439527 
L 229.865537 115.711165 
L 231.220237 116.486122 
L 232.574937 117.040375 
L 233.929637 117.369963 
L 235.284338 117.471788 
L 236.639038 117.34363 
L 237.993738 116.984172 
L 239.348438 116.393033 
L 240.703138 115.570818 
L 242.057838 114.519165 
L 243.751213 112.886238 
L 245.444589 110.907129 
L 247.137964 108.592859 
L 249.170014 105.393701 
L 251.202064 101.764007 
L 253.57279 97.037365 
L 256.28219 91.079143 
L 259.330265 83.826876 
L 264.071716 71.899162 
L 269.490516 58.371053 
L 272.538592 51.32459 
L 274.909317 46.323847 
L 277.280042 41.85497 
L 279.312093 38.51557 
L 281.005468 36.115745 
L 282.698843 34.088712 
L 284.392218 32.452936 
L 285.746918 31.435543 
L 287.101618 30.682593 
L 288.456319 30.19723 
L 289.811019 29.980734 
L 291.165719 30.03255 
L 292.520419 30.350335 
L 293.875119 30.930019 
L 295.229819 31.765888 
L 296.58452 32.850674 
L 298.277895 34.54329 
L 299.97127 36.591222 
L 301.664645 38.971726 
L 303.696695 42.231764 
L 306.067421 46.531447 
L 308.438146 51.289393 
L 311.486221 57.946165 
L 315.211647 66.663419 
L 329.774673 101.399023 
L 333.161424 108.608207 
L 336.209499 114.604612 
L 339.257574 120.09337 
L 341.966975 124.530852 
L 344.676375 128.551454 
L 347.385775 132.162955 
L 350.095176 135.379885 
L 352.804576 138.221757 
L 355.513976 140.711668 
L 358.223377 142.875237 
L 360.932777 144.739752 
L 363.642177 146.333443 
L 366.351577 147.684766 
L 369.399653 148.950096 
L 372.447728 149.982106 
L 375.834479 150.897816 
L 379.559904 151.673727 
L 383.624004 152.29933 
L 388.365455 152.805499 
L 394.122931 153.186216 
L 401.573782 153.434611 
L 404.283182 153.482218 
L 404.283182 153.482218 
" clip-path="url(#pce34accf50)" style="fill: none; stroke: #ff7f0e; stroke-opacity: 0.9; stroke-width: 1.5; stroke-linecap: square"/>
   </g>
   <g id="line2d_14">
    <path d="M 65.946818 153.561818 
L 79.832495 153.410471 
L 87.283346 153.115105 
L 93.040821 152.668228 
L 97.782272 152.081237 
L 101.846372 151.358645 
L 105.233123 150.550797 
L 108.281198 149.618723 
L 111.329273 148.44455 
L 114.038674 147.154464 
L 116.409399 145.802098 
L 118.780124 144.211945 
L 121.150849 142.357144 
L 123.521575 140.213294 
L 125.8923 137.759919 
L 128.263025 134.981781 
L 130.633751 131.86999 
L 133.004476 128.422886 
L 135.713876 124.081147 
L 138.423276 119.33271 
L 141.471352 113.552248 
L 145.196777 105.967572 
L 150.276903 95.032359 
L 158.405104 77.507538 
L 162.130529 70.064309 
L 165.178605 64.474584 
L 167.888005 59.976231 
L 170.25873 56.459192 
L 172.29078 53.791219 
L 174.322831 51.473356 
L 176.016206 49.830767 
L 177.709581 48.470125 
L 179.402956 47.41005 
L 180.757656 46.790993 
L 182.112356 46.385642 
L 183.467057 46.202808 
L 184.821757 46.250411 
L 186.176457 46.535091 
L 187.531157 47.061797 
L 188.885857 47.833383 
L 190.240557 48.850222 
L 191.595258 50.10987 
L 193.288633 52.01714 
L 194.982008 54.276883 
L 197.014058 57.41634 
L 199.046108 60.964728 
L 201.755509 66.199954 
L 205.480934 73.973283 
L 211.23841 85.989207 
L 213.94781 91.120533 
L 216.318535 95.131031 
L 218.350586 98.137727 
L 220.043961 100.305814 
L 221.737336 102.147926 
L 223.430711 103.652503 
L 225.124086 104.813434 
L 226.478787 105.493678 
L 227.833487 105.954151 
L 229.188187 106.197327 
L 230.542887 106.226773 
L 231.897587 106.046917 
L 233.252287 105.662835 
L 234.606987 105.080073 
L 236.300363 104.081173 
L 237.993738 102.792868 
L 239.687113 101.227261 
L 241.719163 98.999707 
L 243.751213 96.411773 
L 245.783264 93.485271 
L 248.153989 89.673602 
L 250.863389 84.841677 
L 253.911465 78.879242 
L 257.298215 71.732801 
L 262.039666 61.154319 
L 269.151841 45.293188 
L 272.538592 38.324821 
L 275.247992 33.250772 
L 277.618717 29.271909 
L 279.650768 26.256683 
L 281.682818 23.644824 
L 283.376193 21.799379 
L 285.069568 20.272112 
L 286.762943 19.077099 
L 288.117644 18.368673 
L 289.472344 17.886454 
L 290.827044 17.6355 
L 292.181744 17.620337 
L 293.536444 17.844971 
L 294.891144 18.312876 
L 296.245844 19.026941 
L 297.600545 19.98939 
L 298.955245 21.201666 
L 300.64862 23.069022 
L 302.341995 25.326031 
L 304.03537 27.968022 
L 305.728746 30.986515 
L 307.760796 35.087297 
L 309.792846 39.680218 
L 312.163571 45.604262 
L 314.872972 53.01546 
L 318.259722 63.011365 
L 324.017198 80.915032 
L 329.097323 96.421003 
L 332.484074 106.029328 
L 335.193474 113.098273 
L 337.902874 119.526095 
L 340.2736 124.585685 
L 342.644325 129.104769 
L 344.676375 132.55115 
L 346.708425 135.614815 
L 348.740475 138.31328 
L 350.772526 140.668939 
L 352.804576 142.7077 
L 354.836626 144.457693 
L 356.868676 145.948095 
L 359.239402 147.397733 
L 361.610127 148.57865 
L 364.319527 149.652993 
L 367.028928 150.48785 
L 370.077003 151.202085 
L 373.802428 151.833485 
L 378.205204 152.344032 
L 383.962679 152.778349 
L 392.429555 153.169929 
L 403.267157 153.442739 
L 404.283182 153.458441 
L 404.283182 153.458441 
" clip-path="url(#pce34accf50)" style="fill: none; stroke: #2ca02c; stroke-opacity: 0.9; stroke-width: 1.5; stroke-linecap: square"/>
   </g>
   <g id="line2d_15">
    <path d="M 65.946818 153.514693 
L 76.107069 153.308868 
L 82.88057 152.965802 
L 88.299371 152.47367 
L 92.702146 151.856194 
L 96.427572 151.120546 
L 99.814322 150.228125 
L 102.862397 149.194966 
L 105.571798 148.053779 
L 108.281198 146.664129 
L 110.651923 145.213133 
L 113.022649 143.514082 
L 115.393374 141.539916 
L 117.764099 139.265097 
L 120.134824 136.667011 
L 122.50555 133.727531 
L 124.876275 130.434692 
L 127.247 126.784353 
L 129.9564 122.181949 
L 132.665801 117.144611 
L 135.713876 111.013751 
L 139.439302 102.987894 
L 145.196777 89.953652 
L 150.954253 77.079233 
L 154.341003 70.018004 
L 157.389079 64.190557 
L 160.098479 59.528233 
L 162.469204 55.900141 
L 164.501254 53.150257 
L 166.533305 50.74668 
L 168.565355 48.697861 
L 170.25873 47.264964 
L 171.952105 46.082889 
L 173.64548 45.151865 
L 175.338856 44.471558 
L 177.032231 44.041378 
L 178.725606 43.860715 
L 180.418981 43.929053 
L 182.112356 44.245982 
L 183.805732 44.811078 
L 185.499107 45.623678 
L 187.192482 46.682553 
L 188.885857 47.98551 
L 190.917907 49.866062 
L 192.949958 52.083009 
L 194.982008 54.621688 
L 197.352733 57.962639 
L 200.062133 62.227202 
L 203.110209 67.493472 
L 207.174309 75.039454 
L 215.97986 91.581367 
L 219.027936 96.754361 
L 221.737336 100.890634 
L 224.108061 104.072423 
L 226.140111 106.429647 
L 228.172162 108.41346 
L 229.865537 109.763087 
L 231.558912 110.82372 
L 233.252287 111.585373 
L 234.606987 111.974026 
L 235.961688 112.163043 
L 237.316388 112.150036 
L 238.671088 111.933375 
L 240.025788 111.512185 
L 241.380488 110.886341 
L 242.735188 110.056477 
L 244.428564 108.73447 
L 246.121939 107.100468 
L 247.815314 105.161047 
L 249.847364 102.443056 
L 251.879414 99.317481 
L 253.911465 95.808944 
L 256.28219 91.272064 
L 258.99159 85.573605 
L 262.039666 78.633272 
L 266.442441 67.969585 
L 273.554617 50.648716 
L 276.602692 43.815284 
L 278.973418 38.97207 
L 281.005468 35.238208 
L 283.037518 31.955128 
L 284.730893 29.604037 
L 286.424268 27.633422 
L 287.778969 26.347625 
L 289.133669 25.331985 
L 290.488369 24.595446 
L 291.843069 24.145068 
L 293.197769 23.985964 
L 294.552469 24.121249 
L 295.907169 24.552009 
L 297.26187 25.277277 
L 298.61657 26.294033 
L 299.97127 27.597215 
L 301.32597 29.179743 
L 303.019345 31.536774 
L 304.71272 34.294195 
L 306.744771 38.094467 
L 308.776821 42.380613 
L 311.147546 47.914879 
L 313.856946 54.814247 
L 317.582372 65.002622 
L 329.774673 99.004774 
L 332.822749 106.639711 
L 335.870824 113.659769 
L 338.580224 119.329495 
L 340.95095 123.830368 
L 343.321675 127.89793 
L 345.6924 131.538352 
L 348.063125 134.765639 
L 350.433851 137.600106 
L 352.804576 140.066982 
L 355.175301 142.195124 
L 357.546026 144.015826 
L 359.916752 145.561688 
L 362.287477 146.865556 
L 364.996877 148.100502 
L 368.044953 149.218315 
L 371.431703 150.190918 
L 375.157128 151.010796 
L 379.559904 151.734802 
L 384.64003 152.34068 
L 390.73618 152.845093 
L 398.187031 153.229972 
L 404.283182 153.408485 
L 404.283182 153.408485 
" clip-path="url(#pce34accf50)" style="fill: none; stroke: #d62728; stroke-opacity: 0.5; stroke-width: 1.5; stroke-linecap: square"/>
   </g>
   <g id="patch_3">
    <path d="M 49.03 160.36 
L 49.03 10.8 
" style="fill: none; stroke: #000000; stroke-width: 0.8; stroke-linejoin: miter; stroke-linecap: square"/>
   </g>
   <g id="patch_4">
    <path d="M 49.03 160.36 
L 421.2 160.36 
" style="fill: none; stroke: #000000; stroke-width: 0.8; stroke-linejoin: miter; stroke-linecap: square"/>
   </g>
   <g id="text_14">
    <!-- dim = 1 -->
    <g transform="translate(56.4734 31.955188) scale(0.18 -0.18)">
     <defs>
      <path id="DejaVuSans-64" d="M 2906 2969 
L 2906 4863 
L 3481 4863 
L 3481 0 
L 2906 0 
L 2906 525 
Q 2725 213 2448 61 
Q 2172 -91 1784 -91 
Q 1150 -91 751 415 
Q 353 922 353 1747 
Q 353 2572 751 3078 
Q 1150 3584 1784 3584 
Q 2172 3584 2448 3432 
Q 2725 3281 2906 2969 
z
M 947 1747 
Q 947 1113 1208 752 
Q 1469 391 1925 391 
Q 2381 391 2643 752 
Q 2906 1113 2906 1747 
Q 2906 2381 2643 2742 
Q 2381 3103 1925 3103 
Q 1469 3103 1208 2742 
Q 947 2381 947 1747 
z
" transform="scale(0.015625)"/>
      <path id="DejaVuSans-69" d="M 603 3500 
L 1178 3500 
L 1178 0 
L 603 0 
L 603 3500 
z
M 603 4863 
L 1178 4863 
L 1178 4134 
L 603 4134 
L 603 4863 
z
" transform="scale(0.015625)"/>
      <path id="DejaVuSans-6d" d="M 3328 2828 
Q 3544 3216 3844 3400 
Q 4144 3584 4550 3584 
Q 5097 3584 5394 3201 
Q 5691 2819 5691 2113 
L 5691 0 
L 5113 0 
L 5113 2094 
Q 5113 2597 4934 2840 
Q 4756 3084 4391 3084 
Q 3944 3084 3684 2787 
Q 3425 2491 3425 1978 
L 3425 0 
L 2847 0 
L 2847 2094 
Q 2847 2600 2669 2842 
Q 2491 3084 2119 3084 
Q 1678 3084 1418 2786 
Q 1159 2488 1159 1978 
L 1159 0 
L 581 0 
L 581 3500 
L 1159 3500 
L 1159 2956 
Q 1356 3278 1631 3431 
Q 1906 3584 2284 3584 
Q 2666 3584 2933 3390 
Q 3200 3197 3328 2828 
z
" transform="scale(0.015625)"/>
      <path id="DejaVuSans-20" transform="scale(0.015625)"/>
      <path id="DejaVuSans-3d" d="M 678 2906 
L 4684 2906 
L 4684 2381 
L 678 2381 
L 678 2906 
z
M 678 1631 
L 4684 1631 
L 4684 1100 
L 678 1100 
L 678 1631 
z
" transform="scale(0.015625)"/>
     </defs>
     <use xlink:href="#DejaVuSans-64"/>
     <use xlink:href="#DejaVuSans-69" x="63.476562"/>
     <use xlink:href="#DejaVuSans-6d" x="91.259766"/>
     <use xlink:href="#DejaVuSans-20" x="188.671875"/>
     <use xlink:href="#DejaVuSans-3d" x="220.458984"/>
     <use xlink:href="#DejaVuSans-20" x="304.248047"/>
     <use xlink:href="#DejaVuSans-31" x="336.035156"/>
    </g>
   </g>
   <g id="legend_1">
    <g id="patch_5">
     <path d="M 333.375 73.24125 
L 412.8 73.24125 
Q 415.2 73.24125 415.2 70.84125 
L 415.2 19.2 
Q 415.2 16.8 412.8 16.8 
L 333.375 16.8 
Q 330.975 16.8 330.975 19.2 
L 330.975 70.84125 
Q 330.975 73.24125 333.375 73.24125 
z
" style="fill: #ffffff; opacity: 0.8; stroke: #cccccc; stroke-linejoin: miter"/>
    </g>
    <g id="line2d_16">
     <path d="M 335.775 26.518125 
L 341.775 26.518125 
L 347.775 26.518125 
" style="fill: none; stroke: #ff7f0e; stroke-opacity: 0.9; stroke-width: 1.5; stroke-linecap: square"/>
    </g>
    <g id="text_15">
     <!-- Posterior -->
     <g transform="translate(357.375 30.718125) scale(0.12 -0.12)">
      <defs>
       <path id="DejaVuSans-50" d="M 1259 4147 
L 1259 2394 
L 2053 2394 
Q 2494 2394 2734 2622 
Q 2975 2850 2975 3272 
Q 2975 3691 2734 3919 
Q 2494 4147 2053 4147 
L 1259 4147 
z
M 628 4666 
L 2053 4666 
Q 2838 4666 3239 4311 
Q 3641 3956 3641 3272 
Q 3641 2581 3239 2228 
Q 2838 1875 2053 1875 
L 1259 1875 
L 1259 0 
L 628 0 
L 628 4666 
z
" transform="scale(0.015625)"/>
       <path id="DejaVuSans-6f" d="M 1959 3097 
Q 1497 3097 1228 2736 
Q 959 2375 959 1747 
Q 959 1119 1226 758 
Q 1494 397 1959 397 
Q 2419 397 2687 759 
Q 2956 1122 2956 1747 
Q 2956 2369 2687 2733 
Q 2419 3097 1959 3097 
z
M 1959 3584 
Q 2709 3584 3137 3096 
Q 3566 2609 3566 1747 
Q 3566 888 3137 398 
Q 2709 -91 1959 -91 
Q 1206 -91 779 398 
Q 353 888 353 1747 
Q 353 2609 779 3096 
Q 1206 3584 1959 3584 
z
" transform="scale(0.015625)"/>
       <path id="DejaVuSans-73" d="M 2834 3397 
L 2834 2853 
Q 2591 2978 2328 3040 
Q 2066 3103 1784 3103 
Q 1356 3103 1142 2972 
Q 928 2841 928 2578 
Q 928 2378 1081 2264 
Q 1234 2150 1697 2047 
L 1894 2003 
Q 2506 1872 2764 1633 
Q 3022 1394 3022 966 
Q 3022 478 2636 193 
Q 2250 -91 1575 -91 
Q 1294 -91 989 -36 
Q 684 19 347 128 
L 347 722 
Q 666 556 975 473 
Q 1284 391 1588 391 
Q 1994 391 2212 530 
Q 2431 669 2431 922 
Q 2431 1156 2273 1281 
Q 2116 1406 1581 1522 
L 1381 1569 
Q 847 1681 609 1914 
Q 372 2147 372 2553 
Q 372 3047 722 3315 
Q 1072 3584 1716 3584 
Q 2034 3584 2315 3537 
Q 2597 3491 2834 3397 
z
" transform="scale(0.015625)"/>
       <path id="DejaVuSans-74" d="M 1172 4494 
L 1172 3500 
L 2356 3500 
L 2356 3053 
L 1172 3053 
L 1172 1153 
Q 1172 725 1289 603 
Q 1406 481 1766 481 
L 2356 481 
L 2356 0 
L 1766 0 
Q 1100 0 847 248 
Q 594 497 594 1153 
L 594 3053 
L 172 3053 
L 172 3500 
L 594 3500 
L 594 4494 
L 1172 4494 
z
" transform="scale(0.015625)"/>
       <path id="DejaVuSans-65" d="M 3597 1894 
L 3597 1613 
L 953 1613 
Q 991 1019 1311 708 
Q 1631 397 2203 397 
Q 2534 397 2845 478 
Q 3156 559 3463 722 
L 3463 178 
Q 3153 47 2828 -22 
Q 2503 -91 2169 -91 
Q 1331 -91 842 396 
Q 353 884 353 1716 
Q 353 2575 817 3079 
Q 1281 3584 2069 3584 
Q 2775 3584 3186 3129 
Q 3597 2675 3597 1894 
z
M 3022 2063 
Q 3016 2534 2758 2815 
Q 2500 3097 2075 3097 
Q 1594 3097 1305 2825 
Q 1016 2553 972 2059 
L 3022 2063 
z
" transform="scale(0.015625)"/>
       <path id="DejaVuSans-72" d="M 2631 2963 
Q 2534 3019 2420 3045 
Q 2306 3072 2169 3072 
Q 1681 3072 1420 2755 
Q 1159 2438 1159 1844 
L 1159 0 
L 581 0 
L 581 3500 
L 1159 3500 
L 1159 2956 
Q 1341 3275 1631 3429 
Q 1922 3584 2338 3584 
Q 2397 3584 2469 3576 
Q 2541 3569 2628 3553 
L 2631 2963 
z
" transform="scale(0.015625)"/>
      </defs>
      <use xlink:href="#DejaVuSans-50"/>
      <use xlink:href="#DejaVuSans-6f" x="56.677734"/>
      <use xlink:href="#DejaVuSans-73" x="117.859375"/>
      <use xlink:href="#DejaVuSans-74" x="169.958984"/>
      <use xlink:href="#DejaVuSans-65" x="209.167969"/>
      <use xlink:href="#DejaVuSans-72" x="270.691406"/>
      <use xlink:href="#DejaVuSans-69" x="311.804688"/>
      <use xlink:href="#DejaVuSans-6f" x="339.587891"/>
      <use xlink:href="#DejaVuSans-72" x="400.769531"/>
     </g>
    </g>
    <g id="line2d_17">
     <path d="M 335.775 44.131875 
L 341.775 44.131875 
L 347.775 44.131875 
" style="fill: none; stroke: #2ca02c; stroke-opacity: 0.9; stroke-width: 1.5; stroke-linecap: square"/>
    </g>
    <g id="text_16">
     <!-- FMPE -->
     <g transform="translate(357.375 48.331875) scale(0.12 -0.12)">
      <defs>
       <path id="DejaVuSans-46" d="M 628 4666 
L 3309 4666 
L 3309 4134 
L 1259 4134 
L 1259 2759 
L 3109 2759 
L 3109 2228 
L 1259 2228 
L 1259 0 
L 628 0 
L 628 4666 
z
" transform="scale(0.015625)"/>
       <path id="DejaVuSans-4d" d="M 628 4666 
L 1569 4666 
L 2759 1491 
L 3956 4666 
L 4897 4666 
L 4897 0 
L 4281 0 
L 4281 4097 
L 3078 897 
L 2444 897 
L 1241 4097 
L 1241 0 
L 628 0 
L 628 4666 
z
" transform="scale(0.015625)"/>
       <path id="DejaVuSans-45" d="M 628 4666 
L 3578 4666 
L 3578 4134 
L 1259 4134 
L 1259 2753 
L 3481 2753 
L 3481 2222 
L 1259 2222 
L 1259 531 
L 3634 531 
L 3634 0 
L 628 0 
L 628 4666 
z
" transform="scale(0.015625)"/>
      </defs>
      <use xlink:href="#DejaVuSans-46"/>
      <use xlink:href="#DejaVuSans-4d" x="57.519531"/>
      <use xlink:href="#DejaVuSans-50" x="143.798828"/>
      <use xlink:href="#DejaVuSans-45" x="204.101562"/>
     </g>
    </g>
    <g id="line2d_18">
     <path d="M 335.775 61.745625 
L 341.775 61.745625 
L 347.775 61.745625 
" style="fill: none; stroke: #d62728; stroke-opacity: 0.5; stroke-width: 1.5; stroke-linecap: square"/>
    </g>
    <g id="text_17">
     <!-- MCMC -->
     <g transform="translate(357.375 65.945625) scale(0.12 -0.12)">
      <defs>
       <path id="DejaVuSans-43" d="M 4122 4306 
L 4122 3641 
Q 3803 3938 3442 4084 
Q 3081 4231 2675 4231 
Q 1875 4231 1450 3742 
Q 1025 3253 1025 2328 
Q 1025 1406 1450 917 
Q 1875 428 2675 428 
Q 3081 428 3442 575 
Q 3803 722 4122 1019 
L 4122 359 
Q 3791 134 3420 21 
Q 3050 -91 2638 -91 
Q 1578 -91 968 557 
Q 359 1206 359 2328 
Q 359 3453 968 4101 
Q 1578 4750 2638 4750 
Q 3056 4750 3426 4639 
Q 3797 4528 4122 4306 
z
" transform="scale(0.015625)"/>
      </defs>
      <use xlink:href="#DejaVuSans-4d"/>
      <use xlink:href="#DejaVuSans-43" x="86.279297"/>
      <use xlink:href="#DejaVuSans-4d" x="156.103516"/>
      <use xlink:href="#DejaVuSans-43" x="242.382812"/>
     </g>
    </g>
   </g>
  </g>
 </g>
 <defs>
  <clipPath id="pce34accf50">
   <rect x="49.03" y="10.8" width="372.17" height="149.56"/>
  </clipPath>
 </defs>
</svg>
