<?xml version="1.0" encoding="utf-8" standalone="no"?>
<!DOCTYPE svg PUBLIC "-//W3C//DTD SVG 1.1//EN"
  "http://www.w3.org/Graphics/SVG/1.1/DTD/svg11.dtd">
<svg xmlns:xlink="http://www.w3.org/1999/xlink" width="432pt" height="288pt" viewBox="0 0 432 288" xmlns="http://www.w3.org/2000/svg" version="1.1">
 <metadata>
  <rdf:RDF xmlns:dc="http://purl.org/dc/elements/1.1/" xmlns:cc="http://creativecommons.org/ns#" xmlns:rdf="http://www.w3.org/1999/02/22-rdf-syntax-ns#">
   <cc:Work>
    <dc:type rdf:resource="http://purl.org/dc/dcmitype/StillImage"/>
    <dc:date>2024-09-13T10:35:21.345676</dc:date>
    <dc:format>image/svg+xml</dc:format>
    <dc:creator>
     <cc:Agent>
      <dc:title>Matplotlib v3.9.1.post1, https://matplotlib.org/</dc:title>
     </cc:Agent>
    </dc:creator>
   </cc:Work>
  </rdf:RDF>
 </metadata>
 <defs>
  <style type="text/css">*{stroke-linejoin: round; stroke-linecap: butt}</style>
 </defs>
 <g id="figure_1">
  <g id="patch_1">
   <path d="M 0 288 
L 432 288 
L 432 0 
L 0 0 
z
" style="fill: #ffffff"/>
  </g>
  <g id="axes_1">
   <g id="patch_2">
    <path d="M 54 256.32 
L 388.8 256.32 
L 388.8 34.56 
L 54 34.56 
z
" style="fill: #ffffff"/>
   </g>
   <g id="patch_3">
    <path d="M 80.791612 256.32 
L 83.719514 256.32 
L 83.719514 231.938218 
L 80.791612 231.938218 
z
" clip-path="url(#pe2f3ab0c7b)" style="fill: #1f77b4; opacity: 0.2"/>
   </g>
   <g id="patch_4">
    <path d="M 83.719514 256.32 
L 86.647415 256.32 
L 86.647415 231.938218 
L 83.719514 231.938218 
z
" clip-path="url(#pe2f3ab0c7b)" style="fill: #1f77b4; opacity: 0.2"/>
   </g>
   <g id="patch_5">
    <path d="M 86.647415 256.32 
L 89.575318 256.32 
L 89.575318 234.013268 
L 86.647415 234.013268 
z
" clip-path="url(#pe2f3ab0c7b)" style="fill: #1f77b4; opacity: 0.2"/>
   </g>
   <g id="patch_6">
    <path d="M 89.575318 256.32 
L 92.503219 256.32 
L 92.503219 225.453696 
L 89.575318 225.453696 
z
" clip-path="url(#pe2f3ab0c7b)" style="fill: #1f77b4; opacity: 0.2"/>
   </g>
   <g id="patch_7">
    <path d="M 92.503219 256.32 
L 95.431122 256.32 
L 95.431122 224.934953 
L 92.503219 224.934953 
z
" clip-path="url(#pe2f3ab0c7b)" style="fill: #1f77b4; opacity: 0.2"/>
   </g>
   <g id="patch_8">
    <path d="M 95.431122 256.32 
L 98.359024 256.32 
L 98.359024 232.975741 
L 95.431122 232.975741 
z
" clip-path="url(#pe2f3ab0c7b)" style="fill: #1f77b4; opacity: 0.2"/>
   </g>
   <g id="patch_9">
    <path d="M 98.359024 256.32 
L 101.286926 256.32 
L 101.286926 233.235122 
L 98.359024 233.235122 
z
" clip-path="url(#pe2f3ab0c7b)" style="fill: #1f77b4; opacity: 0.2"/>
   </g>
   <g id="patch_10">
    <path d="M 101.286926 256.32 
L 104.214827 256.32 
L 104.214827 230.641305 
L 101.286926 230.641305 
z
" clip-path="url(#pe2f3ab0c7b)" style="fill: #1f77b4; opacity: 0.2"/>
   </g>
   <g id="patch_11">
    <path d="M 104.214827 256.32 
L 107.14273 256.32 
L 107.14273 231.160086 
L 104.214827 231.160086 
z
" clip-path="url(#pe2f3ab0c7b)" style="fill: #1f77b4; opacity: 0.2"/>
   </g>
   <g id="patch_12">
    <path d="M 107.14273 256.32 
L 110.070633 256.32 
L 110.070633 231.160086 
L 107.14273 231.160086 
z
" clip-path="url(#pe2f3ab0c7b)" style="fill: #1f77b4; opacity: 0.2"/>
   </g>
   <g id="patch_13">
    <path d="M 110.070633 256.32 
L 112.998534 256.32 
L 112.998534 232.975732 
L 110.070633 232.975732 
z
" clip-path="url(#pe2f3ab0c7b)" style="fill: #1f77b4; opacity: 0.2"/>
   </g>
   <g id="patch_14">
    <path d="M 112.998534 256.32 
L 115.926437 256.32 
L 115.926437 232.716369 
L 112.998534 232.716369 
z
" clip-path="url(#pe2f3ab0c7b)" style="fill: #1f77b4; opacity: 0.2"/>
   </g>
   <g id="patch_15">
    <path d="M 115.926437 256.32 
L 118.85434 256.32 
L 118.85434 230.641325 
L 115.926437 230.641325 
z
" clip-path="url(#pe2f3ab0c7b)" style="fill: #1f77b4; opacity: 0.2"/>
   </g>
   <g id="patch_16">
    <path d="M 118.85434 256.32 
L 121.782241 256.32 
L 121.782241 229.085021 
L 118.85434 229.085021 
z
" clip-path="url(#pe2f3ab0c7b)" style="fill: #1f77b4; opacity: 0.2"/>
   </g>
   <g id="patch_17">
    <path d="M 121.782241 256.32 
L 124.710142 256.32 
L 124.710142 231.160067 
L 121.782241 231.160067 
z
" clip-path="url(#pe2f3ab0c7b)" style="fill: #1f77b4; opacity: 0.2"/>
   </g>
   <g id="patch_18">
    <path d="M 124.710142 256.32 
L 127.638043 256.32 
L 127.638043 231.419447 
L 124.710142 231.419447 
z
" clip-path="url(#pe2f3ab0c7b)" style="fill: #1f77b4; opacity: 0.2"/>
   </g>
   <g id="patch_19">
    <path d="M 127.638043 256.32 
L 130.565948 256.32 
L 130.565948 225.194357 
L 127.638043 225.194357 
z
" clip-path="url(#pe2f3ab0c7b)" style="fill: #1f77b4; opacity: 0.2"/>
   </g>
   <g id="patch_20">
    <path d="M 130.565948 256.32 
L 133.493849 256.32 
L 133.493849 231.678828 
L 130.565948 231.678828 
z
" clip-path="url(#pe2f3ab0c7b)" style="fill: #1f77b4; opacity: 0.2"/>
   </g>
   <g id="patch_21">
    <path d="M 133.493849 256.32 
L 136.421749 256.32 
L 136.421749 233.235113 
L 133.493849 233.235113 
z
" clip-path="url(#pe2f3ab0c7b)" style="fill: #1f77b4; opacity: 0.2"/>
   </g>
   <g id="patch_22">
    <path d="M 136.421749 256.32 
L 139.349655 256.32 
L 139.349655 230.641344 
L 136.421749 230.641344 
z
" clip-path="url(#pe2f3ab0c7b)" style="fill: #1f77b4; opacity: 0.2"/>
   </g>
   <g id="patch_23">
    <path d="M 139.349655 256.32 
L 142.277556 256.32 
L 142.277556 225.713071 
L 139.349655 225.713071 
z
" clip-path="url(#pe2f3ab0c7b)" style="fill: #1f77b4; opacity: 0.2"/>
   </g>
   <g id="patch_24">
    <path d="M 142.277556 256.32 
L 145.205456 256.32 
L 145.205456 232.19759 
L 142.277556 232.19759 
z
" clip-path="url(#pe2f3ab0c7b)" style="fill: #1f77b4; opacity: 0.2"/>
   </g>
   <g id="patch_25">
    <path d="M 145.205456 256.32 
L 148.133357 256.32 
L 148.133357 233.235113 
L 145.205456 233.235113 
z
" clip-path="url(#pe2f3ab0c7b)" style="fill: #1f77b4; opacity: 0.2"/>
   </g>
   <g id="patch_26">
    <path d="M 148.133357 256.32 
L 151.061262 256.32 
L 151.061262 233.494528 
L 148.133357 233.494528 
z
" clip-path="url(#pe2f3ab0c7b)" style="fill: #1f77b4; opacity: 0.2"/>
   </g>
   <g id="patch_27">
    <path d="M 151.061262 256.32 
L 153.989163 256.32 
L 153.989163 226.491213 
L 151.061262 226.491213 
z
" clip-path="url(#pe2f3ab0c7b)" style="fill: #1f77b4; opacity: 0.2"/>
   </g>
   <g id="patch_28">
    <path d="M 153.989163 256.32 
L 156.917069 256.32 
L 156.917069 231.160105 
L 153.989163 231.160105 
z
" clip-path="url(#pe2f3ab0c7b)" style="fill: #1f77b4; opacity: 0.2"/>
   </g>
   <g id="patch_29">
    <path d="M 156.917069 256.32 
L 159.844969 256.32 
L 159.844969 232.975732 
L 156.917069 232.975732 
z
" clip-path="url(#pe2f3ab0c7b)" style="fill: #1f77b4; opacity: 0.2"/>
   </g>
   <g id="patch_30">
    <path d="M 159.844969 256.32 
L 162.77287 256.32 
L 162.77287 231.938209 
L 159.844969 231.938209 
z
" clip-path="url(#pe2f3ab0c7b)" style="fill: #1f77b4; opacity: 0.2"/>
   </g>
   <g id="patch_31">
    <path d="M 162.77287 256.32 
L 165.700771 256.32 
L 165.700771 229.085021 
L 162.77287 229.085021 
z
" clip-path="url(#pe2f3ab0c7b)" style="fill: #1f77b4; opacity: 0.2"/>
   </g>
   <g id="patch_32">
    <path d="M 165.700771 256.32 
L 168.628672 256.32 
L 168.628672 231.678828 
L 165.700771 231.678828 
z
" clip-path="url(#pe2f3ab0c7b)" style="fill: #1f77b4; opacity: 0.2"/>
   </g>
   <g id="patch_33">
    <path d="M 168.628672 256.32 
L 171.556573 256.32 
L 171.556573 230.641305 
L 168.628672 230.641305 
z
" clip-path="url(#pe2f3ab0c7b)" style="fill: #1f77b4; opacity: 0.2"/>
   </g>
   <g id="patch_34">
    <path d="M 171.556573 256.32 
L 174.484473 256.32 
L 174.484473 233.494494 
L 171.556573 233.494494 
z
" clip-path="url(#pe2f3ab0c7b)" style="fill: #1f77b4; opacity: 0.2"/>
   </g>
   <g id="patch_35">
    <path d="M 174.484473 256.32 
L 177.412383 256.32 
L 177.412383 230.382004 
L 174.484473 230.382004 
z
" clip-path="url(#pe2f3ab0c7b)" style="fill: #1f77b4; opacity: 0.2"/>
   </g>
   <g id="patch_36">
    <path d="M 177.412383 256.32 
L 180.340284 256.32 
L 180.340284 229.603782 
L 177.412383 229.603782 
z
" clip-path="url(#pe2f3ab0c7b)" style="fill: #1f77b4; opacity: 0.2"/>
   </g>
   <g id="patch_37">
    <path d="M 180.340284 256.32 
L 183.268185 256.32 
L 183.268185 227.269355 
L 180.340284 227.269355 
z
" clip-path="url(#pe2f3ab0c7b)" style="fill: #1f77b4; opacity: 0.2"/>
   </g>
   <g id="patch_38">
    <path d="M 183.268185 256.32 
L 186.196086 256.32 
L 186.196086 231.938209 
L 183.268185 231.938209 
z
" clip-path="url(#pe2f3ab0c7b)" style="fill: #1f77b4; opacity: 0.2"/>
   </g>
   <g id="patch_39">
    <path d="M 186.196086 256.32 
L 189.123986 256.32 
L 189.123986 230.641305 
L 186.196086 230.641305 
z
" clip-path="url(#pe2f3ab0c7b)" style="fill: #1f77b4; opacity: 0.2"/>
   </g>
   <g id="patch_40">
    <path d="M 189.123986 256.32 
L 192.051887 256.32 
L 192.051887 233.235113 
L 189.123986 233.235113 
z
" clip-path="url(#pe2f3ab0c7b)" style="fill: #1f77b4; opacity: 0.2"/>
   </g>
   <g id="patch_41">
    <path d="M 192.051887 256.32 
L 194.979788 256.32 
L 194.979788 233.235113 
L 192.051887 233.235113 
z
" clip-path="url(#pe2f3ab0c7b)" style="fill: #1f77b4; opacity: 0.2"/>
   </g>
   <g id="patch_42">
    <path d="M 194.979788 256.32 
L 197.907698 256.32 
L 197.907698 227.010064 
L 194.979788 227.010064 
z
" clip-path="url(#pe2f3ab0c7b)" style="fill: #1f77b4; opacity: 0.2"/>
   </g>
   <g id="patch_43">
    <path d="M 197.907698 256.32 
L 200.835599 256.32 
L 200.835599 227.788117 
L 197.907698 227.788117 
z
" clip-path="url(#pe2f3ab0c7b)" style="fill: #1f77b4; opacity: 0.2"/>
   </g>
   <g id="patch_44">
    <path d="M 200.835599 256.32 
L 203.763499 256.32 
L 203.763499 231.938209 
L 200.835599 231.938209 
z
" clip-path="url(#pe2f3ab0c7b)" style="fill: #1f77b4; opacity: 0.2"/>
   </g>
   <g id="patch_45">
    <path d="M 203.763499 256.32 
L 206.6914 256.32 
L 206.6914 229.344401 
L 203.763499 229.344401 
z
" clip-path="url(#pe2f3ab0c7b)" style="fill: #1f77b4; opacity: 0.2"/>
   </g>
   <g id="patch_46">
    <path d="M 206.6914 256.32 
L 209.619301 256.32 
L 209.619301 232.975732 
L 206.6914 232.975732 
z
" clip-path="url(#pe2f3ab0c7b)" style="fill: #1f77b4; opacity: 0.2"/>
   </g>
   <g id="patch_47">
    <path d="M 209.619301 256.32 
L 212.547202 256.32 
L 212.547202 231.678828 
L 209.619301 231.678828 
z
" clip-path="url(#pe2f3ab0c7b)" style="fill: #1f77b4; opacity: 0.2"/>
   </g>
   <g id="patch_48">
    <path d="M 212.547202 256.32 
L 215.475103 256.32 
L 215.475103 230.381924 
L 212.547202 230.381924 
z
" clip-path="url(#pe2f3ab0c7b)" style="fill: #1f77b4; opacity: 0.2"/>
   </g>
   <g id="patch_49">
    <path d="M 215.475103 256.32 
L 218.403012 256.32 
L 218.403012 234.532083 
L 215.475103 234.532083 
z
" clip-path="url(#pe2f3ab0c7b)" style="fill: #1f77b4; opacity: 0.2"/>
   </g>
   <g id="patch_50">
    <path d="M 218.403012 256.32 
L 221.330913 256.32 
L 221.330913 224.934929 
L 218.403012 224.934929 
z
" clip-path="url(#pe2f3ab0c7b)" style="fill: #1f77b4; opacity: 0.2"/>
   </g>
   <g id="patch_51">
    <path d="M 221.330913 256.32 
L 224.258814 256.32 
L 224.258814 235.310159 
L 221.330913 235.310159 
z
" clip-path="url(#pe2f3ab0c7b)" style="fill: #1f77b4; opacity: 0.2"/>
   </g>
   <g id="patch_52">
    <path d="M 224.258814 256.32 
L 227.186715 256.32 
L 227.186715 228.566259 
L 224.258814 228.566259 
z
" clip-path="url(#pe2f3ab0c7b)" style="fill: #1f77b4; opacity: 0.2"/>
   </g>
   <g id="patch_53">
    <path d="M 227.186715 256.32 
L 230.114616 256.32 
L 230.114616 233.753874 
L 227.186715 233.753874 
z
" clip-path="url(#pe2f3ab0c7b)" style="fill: #1f77b4; opacity: 0.2"/>
   </g>
   <g id="patch_54">
    <path d="M 230.114616 256.32 
L 233.042525 256.32 
L 233.042525 224.416264 
L 230.114616 224.416264 
z
" clip-path="url(#pe2f3ab0c7b)" style="fill: #1f77b4; opacity: 0.2"/>
   </g>
   <g id="patch_55">
    <path d="M 233.042525 256.32 
L 235.970426 256.32 
L 235.970426 229.085021 
L 233.042525 229.085021 
z
" clip-path="url(#pe2f3ab0c7b)" style="fill: #1f77b4; opacity: 0.2"/>
   </g>
   <g id="patch_56">
    <path d="M 235.970426 256.32 
L 238.898327 256.32 
L 238.898327 231.938209 
L 235.970426 231.938209 
z
" clip-path="url(#pe2f3ab0c7b)" style="fill: #1f77b4; opacity: 0.2"/>
   </g>
   <g id="patch_57">
    <path d="M 238.898327 256.32 
L 241.826228 256.32 
L 241.826228 230.381924 
L 238.898327 230.381924 
z
" clip-path="url(#pe2f3ab0c7b)" style="fill: #1f77b4; opacity: 0.2"/>
   </g>
   <g id="patch_58">
    <path d="M 241.826228 256.32 
L 244.754129 256.32 
L 244.754129 232.456971 
L 241.826228 232.456971 
z
" clip-path="url(#pe2f3ab0c7b)" style="fill: #1f77b4; opacity: 0.2"/>
   </g>
   <g id="patch_59">
    <path d="M 244.754129 256.32 
L 247.68203 256.32 
L 247.68203 224.156786 
L 244.754129 224.156786 
z
" clip-path="url(#pe2f3ab0c7b)" style="fill: #1f77b4; opacity: 0.2"/>
   </g>
   <g id="patch_60">
    <path d="M 247.68203 256.32 
L 250.60993 256.32 
L 250.60993 234.791397 
L 247.68203 234.791397 
z
" clip-path="url(#pe2f3ab0c7b)" style="fill: #1f77b4; opacity: 0.2"/>
   </g>
   <g id="patch_61">
    <path d="M 250.60993 256.32 
L 253.537831 256.32 
L 253.537831 230.122544 
L 250.60993 230.122544 
z
" clip-path="url(#pe2f3ab0c7b)" style="fill: #1f77b4; opacity: 0.2"/>
   </g>
   <g id="patch_62">
    <path d="M 253.537831 256.32 
L 256.465732 256.32 
L 256.465732 230.122544 
L 253.537831 230.122544 
z
" clip-path="url(#pe2f3ab0c7b)" style="fill: #1f77b4; opacity: 0.2"/>
   </g>
   <g id="patch_63">
    <path d="M 256.465732 256.32 
L 259.393633 256.32 
L 259.393633 232.19759 
L 256.465732 232.19759 
z
" clip-path="url(#pe2f3ab0c7b)" style="fill: #1f77b4; opacity: 0.2"/>
   </g>
   <g id="patch_64">
    <path d="M 259.393633 256.32 
L 262.321534 256.32 
L 262.321534 229.603782 
L 259.393633 229.603782 
z
" clip-path="url(#pe2f3ab0c7b)" style="fill: #1f77b4; opacity: 0.2"/>
   </g>
   <g id="patch_65">
    <path d="M 262.321534 256.32 
L 265.249434 256.32 
L 265.249434 230.641305 
L 262.321534 230.641305 
z
" clip-path="url(#pe2f3ab0c7b)" style="fill: #1f77b4; opacity: 0.2"/>
   </g>
   <g id="patch_66">
    <path d="M 265.249434 256.32 
L 268.177335 256.32 
L 268.177335 228.82564 
L 265.249434 228.82564 
z
" clip-path="url(#pe2f3ab0c7b)" style="fill: #1f77b4; opacity: 0.2"/>
   </g>
   <g id="patch_67">
    <path d="M 268.177335 256.32 
L 271.105254 256.32 
L 271.105254 226.232016 
L 268.177335 226.232016 
z
" clip-path="url(#pe2f3ab0c7b)" style="fill: #1f77b4; opacity: 0.2"/>
   </g>
   <g id="patch_68">
    <path d="M 271.105254 256.32 
L 274.033155 256.32 
L 274.033155 232.716351 
L 271.105254 232.716351 
z
" clip-path="url(#pe2f3ab0c7b)" style="fill: #1f77b4; opacity: 0.2"/>
   </g>
   <g id="patch_69">
    <path d="M 274.033155 256.32 
L 276.961056 256.32 
L 276.961056 223.119263 
L 274.033155 223.119263 
z
" clip-path="url(#pe2f3ab0c7b)" style="fill: #1f77b4; opacity: 0.2"/>
   </g>
   <g id="patch_70">
    <path d="M 276.961056 256.32 
L 279.888956 256.32 
L 279.888956 229.085021 
L 276.961056 229.085021 
z
" clip-path="url(#pe2f3ab0c7b)" style="fill: #1f77b4; opacity: 0.2"/>
   </g>
   <g id="patch_71">
    <path d="M 279.888956 256.32 
L 282.816857 256.32 
L 282.816857 227.269355 
L 279.888956 227.269355 
z
" clip-path="url(#pe2f3ab0c7b)" style="fill: #1f77b4; opacity: 0.2"/>
   </g>
   <g id="patch_72">
    <path d="M 282.816857 256.32 
L 285.744758 256.32 
L 285.744758 231.419447 
L 282.816857 231.419447 
z
" clip-path="url(#pe2f3ab0c7b)" style="fill: #1f77b4; opacity: 0.2"/>
   </g>
   <g id="patch_73">
    <path d="M 285.744758 256.32 
L 288.672659 256.32 
L 288.672659 228.306878 
L 285.744758 228.306878 
z
" clip-path="url(#pe2f3ab0c7b)" style="fill: #1f77b4; opacity: 0.2"/>
   </g>
   <g id="patch_74">
    <path d="M 288.672659 256.32 
L 291.60056 256.32 
L 291.60056 230.122544 
L 288.672659 230.122544 
z
" clip-path="url(#pe2f3ab0c7b)" style="fill: #1f77b4; opacity: 0.2"/>
   </g>
   <g id="patch_75">
    <path d="M 291.60056 256.32 
L 294.52846 256.32 
L 294.52846 230.641305 
L 291.60056 230.641305 
z
" clip-path="url(#pe2f3ab0c7b)" style="fill: #1f77b4; opacity: 0.2"/>
   </g>
   <g id="patch_76">
    <path d="M 294.52846 256.32 
L 297.456361 256.32 
L 297.456361 231.160067 
L 294.52846 231.160067 
z
" clip-path="url(#pe2f3ab0c7b)" style="fill: #1f77b4; opacity: 0.2"/>
   </g>
   <g id="patch_77">
    <path d="M 297.456361 256.32 
L 300.384262 256.32 
L 300.384262 231.678828 
L 297.456361 231.678828 
z
" clip-path="url(#pe2f3ab0c7b)" style="fill: #1f77b4; opacity: 0.2"/>
   </g>
   <g id="patch_78">
    <path d="M 300.384262 256.32 
L 303.312163 256.32 
L 303.312163 225.194309 
L 300.384262 225.194309 
z
" clip-path="url(#pe2f3ab0c7b)" style="fill: #1f77b4; opacity: 0.2"/>
   </g>
   <g id="patch_79">
    <path d="M 303.312163 256.32 
L 306.240064 256.32 
L 306.240064 228.047498 
L 303.312163 228.047498 
z
" clip-path="url(#pe2f3ab0c7b)" style="fill: #1f77b4; opacity: 0.2"/>
   </g>
   <g id="patch_80">
    <path d="M 306.240064 256.32 
L 309.167965 256.32 
L 309.167965 229.603782 
L 306.240064 229.603782 
z
" clip-path="url(#pe2f3ab0c7b)" style="fill: #1f77b4; opacity: 0.2"/>
   </g>
   <g id="patch_81">
    <path d="M 309.167965 256.32 
L 312.095883 256.32 
L 312.095883 232.457116 
L 309.167965 232.457116 
z
" clip-path="url(#pe2f3ab0c7b)" style="fill: #1f77b4; opacity: 0.2"/>
   </g>
   <g id="patch_82">
    <path d="M 312.095883 256.32 
L 315.023784 256.32 
L 315.023784 230.381924 
L 312.095883 230.381924 
z
" clip-path="url(#pe2f3ab0c7b)" style="fill: #1f77b4; opacity: 0.2"/>
   </g>
   <g id="patch_83">
    <path d="M 315.023784 256.32 
L 317.951685 256.32 
L 317.951685 232.19759 
L 315.023784 232.19759 
z
" clip-path="url(#pe2f3ab0c7b)" style="fill: #1f77b4; opacity: 0.2"/>
   </g>
   <g id="patch_84">
    <path d="M 317.951685 256.32 
L 320.879586 256.32 
L 320.879586 235.56954 
L 317.951685 235.56954 
z
" clip-path="url(#pe2f3ab0c7b)" style="fill: #1f77b4; opacity: 0.2"/>
   </g>
   <g id="patch_85">
    <path d="M 320.879586 256.32 
L 323.807486 256.32 
L 323.807486 230.381924 
L 320.879586 230.381924 
z
" clip-path="url(#pe2f3ab0c7b)" style="fill: #1f77b4; opacity: 0.2"/>
   </g>
   <g id="patch_86">
    <path d="M 323.807486 256.32 
L 326.735387 256.32 
L 326.735387 234.791397 
L 323.807486 234.791397 
z
" clip-path="url(#pe2f3ab0c7b)" style="fill: #1f77b4; opacity: 0.2"/>
   </g>
   <g id="patch_87">
    <path d="M 326.735387 256.32 
L 329.663288 256.32 
L 329.663288 229.085021 
L 326.735387 229.085021 
z
" clip-path="url(#pe2f3ab0c7b)" style="fill: #1f77b4; opacity: 0.2"/>
   </g>
   <g id="patch_88">
    <path d="M 329.663288 256.32 
L 332.591189 256.32 
L 332.591189 230.900686 
L 329.663288 230.900686 
z
" clip-path="url(#pe2f3ab0c7b)" style="fill: #1f77b4; opacity: 0.2"/>
   </g>
   <g id="patch_89">
    <path d="M 332.591189 256.32 
L 335.51909 256.32 
L 335.51909 229.603782 
L 332.591189 229.603782 
z
" clip-path="url(#pe2f3ab0c7b)" style="fill: #1f77b4; opacity: 0.2"/>
   </g>
   <g id="patch_90">
    <path d="M 335.51909 256.32 
L 338.446991 256.32 
L 338.446991 232.456971 
L 335.51909 232.456971 
z
" clip-path="url(#pe2f3ab0c7b)" style="fill: #1f77b4; opacity: 0.2"/>
   </g>
   <g id="patch_91">
    <path d="M 338.446991 256.32 
L 341.374891 256.32 
L 341.374891 232.716351 
L 338.446991 232.716351 
z
" clip-path="url(#pe2f3ab0c7b)" style="fill: #1f77b4; opacity: 0.2"/>
   </g>
   <g id="patch_92">
    <path d="M 341.374891 256.32 
L 344.302792 256.32 
L 344.302792 223.119263 
L 341.374891 223.119263 
z
" clip-path="url(#pe2f3ab0c7b)" style="fill: #1f77b4; opacity: 0.2"/>
   </g>
   <g id="patch_93">
    <path d="M 344.302792 256.32 
L 347.230693 256.32 
L 347.230693 234.532017 
L 344.302792 234.532017 
z
" clip-path="url(#pe2f3ab0c7b)" style="fill: #1f77b4; opacity: 0.2"/>
   </g>
   <g id="patch_94">
    <path d="M 347.230693 256.32 
L 350.158594 256.32 
L 350.158594 232.456971 
L 347.230693 232.456971 
z
" clip-path="url(#pe2f3ab0c7b)" style="fill: #1f77b4; opacity: 0.2"/>
   </g>
   <g id="patch_95">
    <path d="M 350.158594 256.32 
L 353.086512 256.32 
L 353.086512 230.382083 
L 350.158594 230.382083 
z
" clip-path="url(#pe2f3ab0c7b)" style="fill: #1f77b4; opacity: 0.2"/>
   </g>
   <g id="patch_96">
    <path d="M 353.086512 256.32 
L 356.014413 256.32 
L 356.014413 228.306878 
L 353.086512 228.306878 
z
" clip-path="url(#pe2f3ab0c7b)" style="fill: #1f77b4; opacity: 0.2"/>
   </g>
   <g id="patch_97">
    <path d="M 356.014413 256.32 
L 358.942314 256.32 
L 358.942314 226.491213 
L 356.014413 226.491213 
z
" clip-path="url(#pe2f3ab0c7b)" style="fill: #1f77b4; opacity: 0.2"/>
   </g>
   <g id="patch_98">
    <path d="M 358.942314 256.32 
L 361.870215 256.32 
L 361.870215 230.122544 
L 358.942314 230.122544 
z
" clip-path="url(#pe2f3ab0c7b)" style="fill: #1f77b4; opacity: 0.2"/>
   </g>
   <g id="patch_99">
    <path d="M 361.870215 256.32 
L 364.798116 256.32 
L 364.798116 228.306878 
L 361.870215 228.306878 
z
" clip-path="url(#pe2f3ab0c7b)" style="fill: #1f77b4; opacity: 0.2"/>
   </g>
   <g id="patch_100">
    <path d="M 364.798116 256.32 
L 367.726017 256.32 
L 367.726017 225.713071 
L 364.798116 225.713071 
z
" clip-path="url(#pe2f3ab0c7b)" style="fill: #1f77b4; opacity: 0.2"/>
   </g>
   <g id="patch_101">
    <path d="M 367.726017 256.32 
L 370.653917 256.32 
L 370.653917 234.532017 
L 367.726017 234.532017 
z
" clip-path="url(#pe2f3ab0c7b)" style="fill: #1f77b4; opacity: 0.2"/>
   </g>
   <g id="patch_102">
    <path d="M 370.653917 256.32 
L 373.581818 256.32 
L 373.581818 227.528736 
L 370.653917 227.528736 
z
" clip-path="url(#pe2f3ab0c7b)" style="fill: #1f77b4; opacity: 0.2"/>
   </g>
   <g id="patch_103">
    <path d="M 69.218182 256.32 
L 71.807185 256.32 
L 71.807185 255.733333 
L 69.218182 255.733333 
z
" clip-path="url(#pe2f3ab0c7b)" style="fill: #2ca02c; opacity: 0.5"/>
   </g>
   <g id="patch_104">
    <path d="M 71.807185 256.32 
L 74.396188 256.32 
L 74.396188 256.026667 
L 71.807185 256.026667 
z
" clip-path="url(#pe2f3ab0c7b)" style="fill: #2ca02c; opacity: 0.5"/>
   </g>
   <g id="patch_105">
    <path d="M 74.396188 256.32 
L 76.985192 256.32 
L 76.985192 255.146667 
L 74.396188 255.146667 
z
" clip-path="url(#pe2f3ab0c7b)" style="fill: #2ca02c; opacity: 0.5"/>
   </g>
   <g id="patch_106">
    <path d="M 76.985192 256.32 
L 79.574195 256.32 
L 79.574195 249.573332 
L 76.985192 249.573332 
z
" clip-path="url(#pe2f3ab0c7b)" style="fill: #2ca02c; opacity: 0.5"/>
   </g>
   <g id="patch_107">
    <path d="M 79.574195 256.32 
L 82.163198 256.32 
L 82.163198 239.306663 
L 79.574195 239.306663 
z
" clip-path="url(#pe2f3ab0c7b)" style="fill: #2ca02c; opacity: 0.5"/>
   </g>
   <g id="patch_108">
    <path d="M 82.163198 256.32 
L 84.752202 256.32 
L 84.752202 213.199991 
L 82.163198 213.199991 
z
" clip-path="url(#pe2f3ab0c7b)" style="fill: #2ca02c; opacity: 0.5"/>
   </g>
   <g id="patch_109">
    <path d="M 84.752202 256.32 
L 87.341205 256.32 
L 87.341205 164.506657 
L 84.752202 164.506657 
z
" clip-path="url(#pe2f3ab0c7b)" style="fill: #2ca02c; opacity: 0.5"/>
   </g>
   <g id="patch_110">
    <path d="M 87.341205 256.32 
L 89.930209 256.32 
L 89.930209 102.906634 
L 87.341205 102.906634 
z
" clip-path="url(#pe2f3ab0c7b)" style="fill: #2ca02c; opacity: 0.5"/>
   </g>
   <g id="patch_111">
    <path d="M 89.930209 256.32 
L 92.519212 256.32 
L 92.519212 66.826626 
L 89.930209 66.826626 
z
" clip-path="url(#pe2f3ab0c7b)" style="fill: #2ca02c; opacity: 0.5"/>
   </g>
   <g id="patch_112">
    <path d="M 92.519212 256.32 
L 95.108216 256.32 
L 95.108216 45.12 
L 92.519212 45.12 
z
" clip-path="url(#pe2f3ab0c7b)" style="fill: #2ca02c; opacity: 0.5"/>
   </g>
   <g id="patch_113">
    <path d="M 95.108216 256.32 
L 97.697218 256.32 
L 97.697218 68.293252 
L 95.108216 68.293252 
z
" clip-path="url(#pe2f3ab0c7b)" style="fill: #2ca02c; opacity: 0.5"/>
   </g>
   <g id="patch_114">
    <path d="M 97.697218 256.32 
L 100.286221 256.32 
L 100.286221 76.213256 
L 97.697218 76.213256 
z
" clip-path="url(#pe2f3ab0c7b)" style="fill: #2ca02c; opacity: 0.5"/>
   </g>
   <g id="patch_115">
    <path d="M 100.286221 256.32 
L 102.875226 256.32 
L 102.875226 99.973401 
L 100.286221 99.973401 
z
" clip-path="url(#pe2f3ab0c7b)" style="fill: #2ca02c; opacity: 0.5"/>
   </g>
   <g id="patch_116">
    <path d="M 102.875226 256.32 
L 105.464229 256.32 
L 105.464229 120.799942 
L 102.875226 120.799942 
z
" clip-path="url(#pe2f3ab0c7b)" style="fill: #2ca02c; opacity: 0.5"/>
   </g>
   <g id="patch_117">
    <path d="M 105.464229 256.32 
L 108.053232 256.32 
L 108.053232 128.426611 
L 105.464229 128.426611 
z
" clip-path="url(#pe2f3ab0c7b)" style="fill: #2ca02c; opacity: 0.5"/>
   </g>
   <g id="patch_118">
    <path d="M 108.053232 256.32 
L 110.642234 256.32 
L 110.642234 140.746617 
L 108.053232 140.746617 
z
" clip-path="url(#pe2f3ab0c7b)" style="fill: #2ca02c; opacity: 0.5"/>
   </g>
   <g id="patch_119">
    <path d="M 110.642234 256.32 
L 113.231239 256.32 
L 113.231239 149.25338 
L 110.642234 149.25338 
z
" clip-path="url(#pe2f3ab0c7b)" style="fill: #2ca02c; opacity: 0.5"/>
   </g>
   <g id="patch_120">
    <path d="M 113.231239 256.32 
L 115.820242 256.32 
L 115.820242 154.826623 
L 113.231239 154.826623 
z
" clip-path="url(#pe2f3ab0c7b)" style="fill: #2ca02c; opacity: 0.5"/>
   </g>
   <g id="patch_121">
    <path d="M 115.820242 256.32 
L 118.409245 256.32 
L 118.409245 161.573292 
L 115.820242 161.573292 
z
" clip-path="url(#pe2f3ab0c7b)" style="fill: #2ca02c; opacity: 0.5"/>
   </g>
   <g id="patch_122">
    <path d="M 118.409245 256.32 
L 120.99825 256.32 
L 120.99825 171.840036 
L 118.409245 171.840036 
z
" clip-path="url(#pe2f3ab0c7b)" style="fill: #2ca02c; opacity: 0.5"/>
   </g>
   <g id="patch_123">
    <path d="M 120.99825 256.32 
L 123.58725 256.32 
L 123.58725 177.413231 
L 120.99825 177.413231 
z
" clip-path="url(#pe2f3ab0c7b)" style="fill: #2ca02c; opacity: 0.5"/>
   </g>
   <g id="patch_124">
    <path d="M 123.58725 256.32 
L 126.176255 256.32 
L 126.176255 180.640033 
L 123.58725 180.640033 
z
" clip-path="url(#pe2f3ab0c7b)" style="fill: #2ca02c; opacity: 0.5"/>
   </g>
   <g id="patch_125">
    <path d="M 126.176255 256.32 
L 128.76526 256.32 
L 128.76526 187.386696 
L 126.176255 187.386696 
z
" clip-path="url(#pe2f3ab0c7b)" style="fill: #2ca02c; opacity: 0.5"/>
   </g>
   <g id="patch_126">
    <path d="M 128.76526 256.32 
L 131.35426 256.32 
L 131.35426 185.919909 
L 128.76526 185.919909 
z
" clip-path="url(#pe2f3ab0c7b)" style="fill: #2ca02c; opacity: 0.5"/>
   </g>
   <g id="patch_127">
    <path d="M 131.35426 256.32 
L 133.943265 256.32 
L 133.943265 193.253361 
L 131.35426 193.253361 
z
" clip-path="url(#pe2f3ab0c7b)" style="fill: #2ca02c; opacity: 0.5"/>
   </g>
   <g id="patch_128">
    <path d="M 133.943265 256.32 
L 136.53227 256.32 
L 136.53227 200.293358 
L 133.943265 200.293358 
z
" clip-path="url(#pe2f3ab0c7b)" style="fill: #2ca02c; opacity: 0.5"/>
   </g>
   <g id="patch_129">
    <path d="M 136.53227 256.32 
L 139.121271 256.32 
L 139.121271 199.999927 
L 136.53227 199.999927 
z
" clip-path="url(#pe2f3ab0c7b)" style="fill: #2ca02c; opacity: 0.5"/>
   </g>
   <g id="patch_130">
    <path d="M 139.121271 256.32 
L 141.710276 256.32 
L 141.710276 208.213354 
L 139.121271 208.213354 
z
" clip-path="url(#pe2f3ab0c7b)" style="fill: #2ca02c; opacity: 0.5"/>
   </g>
   <g id="patch_131">
    <path d="M 141.710276 256.32 
L 144.299281 256.32 
L 144.299281 214.373351 
L 141.710276 214.373351 
z
" clip-path="url(#pe2f3ab0c7b)" style="fill: #2ca02c; opacity: 0.5"/>
   </g>
   <g id="patch_132">
    <path d="M 144.299281 256.32 
L 146.888281 256.32 
L 146.888281 225.813294 
L 144.299281 225.813294 
z
" clip-path="url(#pe2f3ab0c7b)" style="fill: #2ca02c; opacity: 0.5"/>
   </g>
   <g id="patch_133">
    <path d="M 146.888281 256.32 
L 149.477286 256.32 
L 149.477286 219.360016 
L 146.888281 219.360016 
z
" clip-path="url(#pe2f3ab0c7b)" style="fill: #2ca02c; opacity: 0.5"/>
   </g>
   <g id="patch_134">
    <path d="M 149.477286 256.32 
L 152.066287 256.32 
L 152.066287 223.759958 
L 149.477286 223.759958 
z
" clip-path="url(#pe2f3ab0c7b)" style="fill: #2ca02c; opacity: 0.5"/>
   </g>
   <g id="patch_135">
    <path d="M 152.066287 256.32 
L 154.655292 256.32 
L 154.655292 228.746679 
L 152.066287 228.746679 
z
" clip-path="url(#pe2f3ab0c7b)" style="fill: #2ca02c; opacity: 0.5"/>
   </g>
   <g id="patch_136">
    <path d="M 154.655292 256.32 
L 157.244297 256.32 
L 157.244297 228.746679 
L 154.655292 228.746679 
z
" clip-path="url(#pe2f3ab0c7b)" style="fill: #2ca02c; opacity: 0.5"/>
   </g>
   <g id="patch_137">
    <path d="M 157.244297 256.32 
L 159.833297 256.32 
L 159.833297 239.013311 
L 157.244297 239.013311 
z
" clip-path="url(#pe2f3ab0c7b)" style="fill: #2ca02c; opacity: 0.5"/>
   </g>
   <g id="patch_138">
    <path d="M 159.833297 256.32 
L 162.422306 256.32 
L 162.422306 237.253374 
L 159.833297 237.253374 
z
" clip-path="url(#pe2f3ab0c7b)" style="fill: #2ca02c; opacity: 0.5"/>
   </g>
   <g id="patch_139">
    <path d="M 162.422306 256.32 
L 165.011307 256.32 
L 165.011307 238.719977 
L 162.422306 238.719977 
z
" clip-path="url(#pe2f3ab0c7b)" style="fill: #2ca02c; opacity: 0.5"/>
   </g>
   <g id="patch_140">
    <path d="M 165.011307 256.32 
L 167.600307 256.32 
L 167.600307 236.959975 
L 165.011307 236.959975 
z
" clip-path="url(#pe2f3ab0c7b)" style="fill: #2ca02c; opacity: 0.5"/>
   </g>
   <g id="patch_141">
    <path d="M 167.600307 256.32 
L 170.189308 256.32 
L 170.189308 246.05332 
L 167.600307 246.05332 
z
" clip-path="url(#pe2f3ab0c7b)" style="fill: #2ca02c; opacity: 0.5"/>
   </g>
   <g id="patch_142">
    <path d="M 170.189308 256.32 
L 172.778317 256.32 
L 172.778317 244.293359 
L 170.189308 244.293359 
z
" clip-path="url(#pe2f3ab0c7b)" style="fill: #2ca02c; opacity: 0.5"/>
   </g>
   <g id="patch_143">
    <path d="M 172.778317 256.32 
L 175.367318 256.32 
L 175.367318 242.533315 
L 172.778317 242.533315 
z
" clip-path="url(#pe2f3ab0c7b)" style="fill: #2ca02c; opacity: 0.5"/>
   </g>
   <g id="patch_144">
    <path d="M 175.367318 256.32 
L 177.956318 256.32 
L 177.956318 247.226655 
L 175.367318 247.226655 
z
" clip-path="url(#pe2f3ab0c7b)" style="fill: #2ca02c; opacity: 0.5"/>
   </g>
   <g id="patch_145">
    <path d="M 177.956318 256.32 
L 180.545328 256.32 
L 180.545328 245.760023 
L 177.956318 245.760023 
z
" clip-path="url(#pe2f3ab0c7b)" style="fill: #2ca02c; opacity: 0.5"/>
   </g>
   <g id="patch_146">
    <path d="M 180.545328 256.32 
L 183.134328 256.32 
L 183.134328 250.159992 
L 180.545328 250.159992 
z
" clip-path="url(#pe2f3ab0c7b)" style="fill: #2ca02c; opacity: 0.5"/>
   </g>
   <g id="patch_147">
    <path d="M 183.134328 256.32 
L 185.723329 256.32 
L 185.723329 248.39999 
L 183.134328 248.39999 
z
" clip-path="url(#pe2f3ab0c7b)" style="fill: #2ca02c; opacity: 0.5"/>
   </g>
   <g id="patch_148">
    <path d="M 185.723329 256.32 
L 188.312338 256.32 
L 188.312338 250.453346 
L 185.723329 250.453346 
z
" clip-path="url(#pe2f3ab0c7b)" style="fill: #2ca02c; opacity: 0.5"/>
   </g>
   <g id="patch_149">
    <path d="M 188.312338 256.32 
L 190.901339 256.32 
L 190.901339 250.746659 
L 188.312338 250.746659 
z
" clip-path="url(#pe2f3ab0c7b)" style="fill: #2ca02c; opacity: 0.5"/>
   </g>
   <g id="patch_150">
    <path d="M 190.901339 256.32 
L 193.490339 256.32 
L 193.490339 252.213328 
L 190.901339 252.213328 
z
" clip-path="url(#pe2f3ab0c7b)" style="fill: #2ca02c; opacity: 0.5"/>
   </g>
   <g id="patch_151">
    <path d="M 193.490339 256.32 
L 196.079348 256.32 
L 196.079348 253.09334 
L 193.490339 253.09334 
z
" clip-path="url(#pe2f3ab0c7b)" style="fill: #2ca02c; opacity: 0.5"/>
   </g>
   <g id="patch_152">
    <path d="M 196.079348 256.32 
L 198.668349 256.32 
L 198.668349 253.093329 
L 196.079348 253.093329 
z
" clip-path="url(#pe2f3ab0c7b)" style="fill: #2ca02c; opacity: 0.5"/>
   </g>
   <g id="patch_153">
    <path d="M 198.668349 256.32 
L 201.257349 256.32 
L 201.257349 252.213328 
L 198.668349 252.213328 
z
" clip-path="url(#pe2f3ab0c7b)" style="fill: #2ca02c; opacity: 0.5"/>
   </g>
   <g id="patch_154">
    <path d="M 201.257349 256.32 
L 203.846359 256.32 
L 203.846359 253.09334 
L 201.257349 253.09334 
z
" clip-path="url(#pe2f3ab0c7b)" style="fill: #2ca02c; opacity: 0.5"/>
   </g>
   <g id="patch_155">
    <path d="M 203.846359 256.32 
L 206.435359 256.32 
L 206.435359 252.506662 
L 203.846359 252.506662 
z
" clip-path="url(#pe2f3ab0c7b)" style="fill: #2ca02c; opacity: 0.5"/>
   </g>
   <g id="patch_156">
    <path d="M 206.435359 256.32 
L 209.02436 256.32 
L 209.02436 254.853331 
L 206.435359 254.853331 
z
" clip-path="url(#pe2f3ab0c7b)" style="fill: #2ca02c; opacity: 0.5"/>
   </g>
   <g id="patch_157">
    <path d="M 209.02436 256.32 
L 211.613369 256.32 
L 211.613369 252.800008 
L 209.02436 252.800008 
z
" clip-path="url(#pe2f3ab0c7b)" style="fill: #2ca02c; opacity: 0.5"/>
   </g>
   <g id="patch_158">
    <path d="M 211.613369 256.32 
L 214.20237 256.32 
L 214.20237 254.266664 
L 211.613369 254.266664 
z
" clip-path="url(#pe2f3ab0c7b)" style="fill: #2ca02c; opacity: 0.5"/>
   </g>
   <g id="patch_159">
    <path d="M 214.20237 256.32 
L 216.79137 256.32 
L 216.79137 253.679997 
L 214.20237 253.679997 
z
" clip-path="url(#pe2f3ab0c7b)" style="fill: #2ca02c; opacity: 0.5"/>
   </g>
   <g id="patch_160">
    <path d="M 216.79137 256.32 
L 219.38038 256.32 
L 219.38038 253.973338 
L 216.79137 253.973338 
z
" clip-path="url(#pe2f3ab0c7b)" style="fill: #2ca02c; opacity: 0.5"/>
   </g>
   <g id="patch_161">
    <path d="M 219.38038 256.32 
L 221.96938 256.32 
L 221.96938 255.146665 
L 219.38038 255.146665 
z
" clip-path="url(#pe2f3ab0c7b)" style="fill: #2ca02c; opacity: 0.5"/>
   </g>
   <g id="patch_162">
    <path d="M 221.96938 256.32 
L 224.558381 256.32 
L 224.558381 255.733333 
L 221.96938 255.733333 
z
" clip-path="url(#pe2f3ab0c7b)" style="fill: #2ca02c; opacity: 0.5"/>
   </g>
   <g id="patch_163">
    <path d="M 224.558381 256.32 
L 227.14739 256.32 
L 227.14739 255.440002 
L 224.558381 255.440002 
z
" clip-path="url(#pe2f3ab0c7b)" style="fill: #2ca02c; opacity: 0.5"/>
   </g>
   <g id="patch_164">
    <path d="M 227.14739 256.32 
L 229.73639 256.32 
L 229.73639 255.146665 
L 227.14739 255.146665 
z
" clip-path="url(#pe2f3ab0c7b)" style="fill: #2ca02c; opacity: 0.5"/>
   </g>
   <g id="patch_165">
    <path d="M 229.73639 256.32 
L 232.3254 256.32 
L 232.3254 254.853336 
L 229.73639 254.853336 
z
" clip-path="url(#pe2f3ab0c7b)" style="fill: #2ca02c; opacity: 0.5"/>
   </g>
   <g id="patch_166">
    <path d="M 232.3254 256.32 
L 234.914391 256.32 
L 234.914391 255.146661 
L 232.3254 255.146661 
z
" clip-path="url(#pe2f3ab0c7b)" style="fill: #2ca02c; opacity: 0.5"/>
   </g>
   <g id="patch_167">
    <path d="M 234.914391 256.32 
L 237.503401 256.32 
L 237.503401 256.026667 
L 234.914391 256.026667 
z
" clip-path="url(#pe2f3ab0c7b)" style="fill: #2ca02c; opacity: 0.5"/>
   </g>
   <g id="patch_168">
    <path d="M 237.503401 256.32 
L 240.09241 256.32 
L 240.09241 255.146669 
L 237.503401 255.146669 
z
" clip-path="url(#pe2f3ab0c7b)" style="fill: #2ca02c; opacity: 0.5"/>
   </g>
   <g id="patch_169">
    <path d="M 240.09241 256.32 
L 242.681402 256.32 
L 242.681402 255.146661 
L 240.09241 255.146661 
z
" clip-path="url(#pe2f3ab0c7b)" style="fill: #2ca02c; opacity: 0.5"/>
   </g>
   <g id="patch_170">
    <path d="M 242.681402 256.32 
L 245.270411 256.32 
L 245.270411 255.440002 
L 242.681402 255.440002 
z
" clip-path="url(#pe2f3ab0c7b)" style="fill: #2ca02c; opacity: 0.5"/>
   </g>
   <g id="patch_171">
    <path d="M 245.270411 256.32 
L 247.859421 256.32 
L 247.859421 255.733335 
L 245.270411 255.733335 
z
" clip-path="url(#pe2f3ab0c7b)" style="fill: #2ca02c; opacity: 0.5"/>
   </g>
   <g id="patch_172">
    <path d="M 247.859421 256.32 
L 250.448412 256.32 
L 250.448412 255.439996 
L 247.859421 255.439996 
z
" clip-path="url(#pe2f3ab0c7b)" style="fill: #2ca02c; opacity: 0.5"/>
   </g>
   <g id="patch_173">
    <path d="M 250.448412 256.32 
L 253.037422 256.32 
L 253.037422 255.440002 
L 250.448412 255.440002 
z
" clip-path="url(#pe2f3ab0c7b)" style="fill: #2ca02c; opacity: 0.5"/>
   </g>
   <g id="patch_174">
    <path d="M 253.037422 256.32 
L 255.626431 256.32 
L 255.626431 254.560004 
L 253.037422 254.560004 
z
" clip-path="url(#pe2f3ab0c7b)" style="fill: #2ca02c; opacity: 0.5"/>
   </g>
   <g id="patch_175">
    <path d="M 255.626431 256.32 
L 258.215423 256.32 
L 258.215423 255.733331 
L 255.626431 255.733331 
z
" clip-path="url(#pe2f3ab0c7b)" style="fill: #2ca02c; opacity: 0.5"/>
   </g>
   <g id="patch_176">
    <path d="M 258.215423 256.32 
L 260.804432 256.32 
L 260.804432 255.440002 
L 258.215423 255.440002 
z
" clip-path="url(#pe2f3ab0c7b)" style="fill: #2ca02c; opacity: 0.5"/>
   </g>
   <g id="patch_177">
    <path d="M 260.804432 256.32 
L 263.393424 256.32 
L 263.393424 255.439996 
L 260.804432 255.439996 
z
" clip-path="url(#pe2f3ab0c7b)" style="fill: #2ca02c; opacity: 0.5"/>
   </g>
   <g id="patch_178">
    <path d="M 263.393424 256.32 
L 265.982433 256.32 
L 265.982433 256.32 
L 263.393424 256.32 
z
" clip-path="url(#pe2f3ab0c7b)" style="fill: #2ca02c; opacity: 0.5"/>
   </g>
   <g id="patch_179">
    <path d="M 265.982433 256.32 
L 268.571442 256.32 
L 268.571442 255.440002 
L 265.982433 255.440002 
z
" clip-path="url(#pe2f3ab0c7b)" style="fill: #2ca02c; opacity: 0.5"/>
   </g>
   <g id="patch_180">
    <path d="M 268.571442 256.32 
L 271.160434 256.32 
L 271.160434 255.439996 
L 268.571442 255.439996 
z
" clip-path="url(#pe2f3ab0c7b)" style="fill: #2ca02c; opacity: 0.5"/>
   </g>
   <g id="patch_181">
    <path d="M 271.160434 256.32 
L 273.749443 256.32 
L 273.749443 256.026667 
L 271.160434 256.026667 
z
" clip-path="url(#pe2f3ab0c7b)" style="fill: #2ca02c; opacity: 0.5"/>
   </g>
   <g id="patch_182">
    <path d="M 273.749443 256.32 
L 276.338453 256.32 
L 276.338453 256.026667 
L 273.749443 256.026667 
z
" clip-path="url(#pe2f3ab0c7b)" style="fill: #2ca02c; opacity: 0.5"/>
   </g>
   <g id="patch_183">
    <path d="M 276.338453 256.32 
L 278.927444 256.32 
L 278.927444 256.026665 
L 276.338453 256.026665 
z
" clip-path="url(#pe2f3ab0c7b)" style="fill: #2ca02c; opacity: 0.5"/>
   </g>
   <g id="patch_184">
    <path d="M 278.927444 256.32 
L 281.516454 256.32 
L 281.516454 255.733335 
L 278.927444 255.733335 
z
" clip-path="url(#pe2f3ab0c7b)" style="fill: #2ca02c; opacity: 0.5"/>
   </g>
   <g id="patch_185">
    <path d="M 281.516454 256.32 
L 284.105463 256.32 
L 284.105463 256.026667 
L 281.516454 256.026667 
z
" clip-path="url(#pe2f3ab0c7b)" style="fill: #2ca02c; opacity: 0.5"/>
   </g>
   <g id="patch_186">
    <path d="M 284.105463 256.32 
L 286.694455 256.32 
L 286.694455 256.32 
L 284.105463 256.32 
z
" clip-path="url(#pe2f3ab0c7b)" style="fill: #2ca02c; opacity: 0.5"/>
   </g>
   <g id="patch_187">
    <path d="M 286.694455 256.32 
L 289.283464 256.32 
L 289.283464 256.026667 
L 286.694455 256.026667 
z
" clip-path="url(#pe2f3ab0c7b)" style="fill: #2ca02c; opacity: 0.5"/>
   </g>
   <g id="patch_188">
    <path d="M 289.283464 256.32 
L 291.872474 256.32 
L 291.872474 255.733335 
L 289.283464 255.733335 
z
" clip-path="url(#pe2f3ab0c7b)" style="fill: #2ca02c; opacity: 0.5"/>
   </g>
   <g id="patch_189">
    <path d="M 291.872474 256.32 
L 294.461465 256.32 
L 294.461465 256.32 
L 291.872474 256.32 
z
" clip-path="url(#pe2f3ab0c7b)" style="fill: #2ca02c; opacity: 0.5"/>
   </g>
   <g id="patch_190">
    <path d="M 294.461465 256.32 
L 297.050475 256.32 
L 297.050475 255.733335 
L 294.461465 255.733335 
z
" clip-path="url(#pe2f3ab0c7b)" style="fill: #2ca02c; opacity: 0.5"/>
   </g>
   <g id="patch_191">
    <path d="M 297.050475 256.32 
L 299.639484 256.32 
L 299.639484 256.32 
L 297.050475 256.32 
z
" clip-path="url(#pe2f3ab0c7b)" style="fill: #2ca02c; opacity: 0.5"/>
   </g>
   <g id="patch_192">
    <path d="M 299.639484 256.32 
L 302.228475 256.32 
L 302.228475 255.733331 
L 299.639484 255.733331 
z
" clip-path="url(#pe2f3ab0c7b)" style="fill: #2ca02c; opacity: 0.5"/>
   </g>
   <g id="patch_193">
    <path d="M 302.228475 256.32 
L 304.817485 256.32 
L 304.817485 256.32 
L 302.228475 256.32 
z
" clip-path="url(#pe2f3ab0c7b)" style="fill: #2ca02c; opacity: 0.5"/>
   </g>
   <g id="patch_194">
    <path d="M 304.817485 256.32 
L 307.406494 256.32 
L 307.406494 256.32 
L 304.817485 256.32 
z
" clip-path="url(#pe2f3ab0c7b)" style="fill: #2ca02c; opacity: 0.5"/>
   </g>
   <g id="patch_195">
    <path d="M 307.406494 256.32 
L 309.995486 256.32 
L 309.995486 255.733331 
L 307.406494 255.733331 
z
" clip-path="url(#pe2f3ab0c7b)" style="fill: #2ca02c; opacity: 0.5"/>
   </g>
   <g id="patch_196">
    <path d="M 309.995486 256.32 
L 312.584495 256.32 
L 312.584495 256.026667 
L 309.995486 256.026667 
z
" clip-path="url(#pe2f3ab0c7b)" style="fill: #2ca02c; opacity: 0.5"/>
   </g>
   <g id="patch_197">
    <path d="M 312.584495 256.32 
L 315.173505 256.32 
L 315.173505 256.026667 
L 312.584495 256.026667 
z
" clip-path="url(#pe2f3ab0c7b)" style="fill: #2ca02c; opacity: 0.5"/>
   </g>
   <g id="patch_198">
    <path d="M 315.173505 256.32 
L 317.762496 256.32 
L 317.762496 256.32 
L 315.173505 256.32 
z
" clip-path="url(#pe2f3ab0c7b)" style="fill: #2ca02c; opacity: 0.5"/>
   </g>
   <g id="patch_199">
    <path d="M 317.762496 256.32 
L 320.351506 256.32 
L 320.351506 256.32 
L 317.762496 256.32 
z
" clip-path="url(#pe2f3ab0c7b)" style="fill: #2ca02c; opacity: 0.5"/>
   </g>
   <g id="patch_200">
    <path d="M 320.351506 256.32 
L 322.940515 256.32 
L 322.940515 256.026667 
L 320.351506 256.026667 
z
" clip-path="url(#pe2f3ab0c7b)" style="fill: #2ca02c; opacity: 0.5"/>
   </g>
   <g id="patch_201">
    <path d="M 322.940515 256.32 
L 325.529507 256.32 
L 325.529507 256.026665 
L 322.940515 256.026665 
z
" clip-path="url(#pe2f3ab0c7b)" style="fill: #2ca02c; opacity: 0.5"/>
   </g>
   <g id="patch_202">
    <path d="M 325.529507 256.32 
L 328.118516 256.32 
L 328.118516 255.733335 
L 325.529507 255.733335 
z
" clip-path="url(#pe2f3ab0c7b)" style="fill: #2ca02c; opacity: 0.5"/>
   </g>
   <g id="patch_203">
    <path d="M 80.74321 256.32 
L 83.65069 256.32 
L 83.65069 104.038919 
L 80.74321 104.038919 
z
" clip-path="url(#pe2f3ab0c7b)" style="fill: #ff7f0e; opacity: 0.5"/>
   </g>
   <g id="patch_204">
    <path d="M 83.65069 256.32 
L 86.558169 256.32 
L 86.558169 98.814868 
L 83.65069 98.814868 
z
" clip-path="url(#pe2f3ab0c7b)" style="fill: #ff7f0e; opacity: 0.5"/>
   </g>
   <g id="patch_205">
    <path d="M 86.558169 256.32 
L 89.465649 256.32 
L 89.465649 99.337273 
L 86.558169 99.337273 
z
" clip-path="url(#pe2f3ab0c7b)" style="fill: #ff7f0e; opacity: 0.5"/>
   </g>
   <g id="patch_206">
    <path d="M 89.465649 256.32 
L 92.373129 256.32 
L 92.373129 115.270628 
L 89.465649 115.270628 
z
" clip-path="url(#pe2f3ab0c7b)" style="fill: #ff7f0e; opacity: 0.5"/>
   </g>
   <g id="patch_207">
    <path d="M 92.373129 256.32 
L 95.280609 256.32 
L 95.280609 112.136197 
L 92.373129 112.136197 
z
" clip-path="url(#pe2f3ab0c7b)" style="fill: #ff7f0e; opacity: 0.5"/>
   </g>
   <g id="patch_208">
    <path d="M 95.280609 256.32 
L 98.188089 256.32 
L 98.188089 128.85316 
L 95.280609 128.85316 
z
" clip-path="url(#pe2f3ab0c7b)" style="fill: #ff7f0e; opacity: 0.5"/>
   </g>
   <g id="patch_209">
    <path d="M 98.188089 256.32 
L 101.095569 256.32 
L 101.095569 144.525312 
L 98.188089 144.525312 
z
" clip-path="url(#pe2f3ab0c7b)" style="fill: #ff7f0e; opacity: 0.5"/>
   </g>
   <g id="patch_210">
    <path d="M 101.095569 256.32 
L 104.003049 256.32 
L 104.003049 151.316579 
L 101.095569 151.316579 
z
" clip-path="url(#pe2f3ab0c7b)" style="fill: #ff7f0e; opacity: 0.5"/>
   </g>
   <g id="patch_211">
    <path d="M 104.003049 256.32 
L 106.910528 256.32 
L 106.910528 172.996389 
L 104.003049 172.996389 
z
" clip-path="url(#pe2f3ab0c7b)" style="fill: #ff7f0e; opacity: 0.5"/>
   </g>
   <g id="patch_212">
    <path d="M 106.910528 256.32 
L 109.818008 256.32 
L 109.818008 180.310061 
L 106.910528 180.310061 
z
" clip-path="url(#pe2f3ab0c7b)" style="fill: #ff7f0e; opacity: 0.5"/>
   </g>
   <g id="patch_213">
    <path d="M 109.818008 256.32 
L 112.725488 256.32 
L 112.725488 184.228099 
L 109.818008 184.228099 
z
" clip-path="url(#pe2f3ab0c7b)" style="fill: #ff7f0e; opacity: 0.5"/>
   </g>
   <g id="patch_214">
    <path d="M 112.725488 256.32 
L 115.632968 256.32 
L 115.632968 188.668542 
L 112.725488 188.668542 
z
" clip-path="url(#pe2f3ab0c7b)" style="fill: #ff7f0e; opacity: 0.5"/>
   </g>
   <g id="patch_215">
    <path d="M 115.632968 256.32 
L 118.540448 256.32 
L 118.540448 198.594238 
L 115.632968 198.594238 
z
" clip-path="url(#pe2f3ab0c7b)" style="fill: #ff7f0e; opacity: 0.5"/>
   </g>
   <g id="patch_216">
    <path d="M 118.540448 256.32 
L 121.447928 256.32 
L 121.447928 201.728669 
L 118.540448 201.728669 
z
" clip-path="url(#pe2f3ab0c7b)" style="fill: #ff7f0e; opacity: 0.5"/>
   </g>
   <g id="patch_217">
    <path d="M 121.447928 256.32 
L 124.355408 256.32 
L 124.355408 208.258732 
L 121.447928 208.258732 
z
" clip-path="url(#pe2f3ab0c7b)" style="fill: #ff7f0e; opacity: 0.5"/>
   </g>
   <g id="patch_218">
    <path d="M 124.355408 256.32 
L 127.262887 256.32 
L 127.262887 202.512277 
L 124.355408 202.512277 
z
" clip-path="url(#pe2f3ab0c7b)" style="fill: #ff7f0e; opacity: 0.5"/>
   </g>
   <g id="patch_219">
    <path d="M 127.262887 256.32 
L 130.170367 256.32 
L 130.170367 200.683859 
L 127.262887 200.683859 
z
" clip-path="url(#pe2f3ab0c7b)" style="fill: #ff7f0e; opacity: 0.5"/>
   </g>
   <g id="patch_220">
    <path d="M 130.170367 256.32 
L 133.077847 256.32 
L 133.077847 200.945061 
L 130.170367 200.945061 
z
" clip-path="url(#pe2f3ab0c7b)" style="fill: #ff7f0e; opacity: 0.5"/>
   </g>
   <g id="patch_221">
    <path d="M 133.077847 256.32 
L 135.985327 256.32 
L 135.985327 195.198605 
L 133.077847 195.198605 
z
" clip-path="url(#pe2f3ab0c7b)" style="fill: #ff7f0e; opacity: 0.5"/>
   </g>
   <g id="patch_222">
    <path d="M 135.985327 256.32 
L 138.892807 256.32 
L 138.892807 192.847783 
L 135.985327 192.847783 
z
" clip-path="url(#pe2f3ab0c7b)" style="fill: #ff7f0e; opacity: 0.5"/>
   </g>
   <g id="patch_223">
    <path d="M 138.892807 256.32 
L 141.800287 256.32 
L 141.800287 185.795314 
L 138.892807 185.795314 
z
" clip-path="url(#pe2f3ab0c7b)" style="fill: #ff7f0e; opacity: 0.5"/>
   </g>
   <g id="patch_224">
    <path d="M 141.800287 256.32 
L 144.707767 256.32 
L 144.707767 187.362529 
L 141.800287 187.362529 
z
" clip-path="url(#pe2f3ab0c7b)" style="fill: #ff7f0e; opacity: 0.5"/>
   </g>
   <g id="patch_225">
    <path d="M 144.707767 256.32 
L 147.615246 256.32 
L 147.615246 191.54177 
L 144.707767 191.54177 
z
" clip-path="url(#pe2f3ab0c7b)" style="fill: #ff7f0e; opacity: 0.5"/>
   </g>
   <g id="patch_226">
    <path d="M 147.615246 256.32 
L 150.522726 256.32 
L 150.522726 191.019365 
L 147.615246 191.019365 
z
" clip-path="url(#pe2f3ab0c7b)" style="fill: #ff7f0e; opacity: 0.5"/>
   </g>
   <g id="patch_227">
    <path d="M 150.522726 256.32 
L 153.430206 256.32 
L 153.430206 192.064175 
L 150.522726 192.064175 
z
" clip-path="url(#pe2f3ab0c7b)" style="fill: #ff7f0e; opacity: 0.5"/>
   </g>
   <g id="patch_228">
    <path d="M 153.430206 256.32 
L 156.337686 256.32 
L 156.337686 198.594238 
L 153.430206 198.594238 
z
" clip-path="url(#pe2f3ab0c7b)" style="fill: #ff7f0e; opacity: 0.5"/>
   </g>
   <g id="patch_229">
    <path d="M 156.337686 256.32 
L 159.245166 256.32 
L 159.245166 199.377846 
L 156.337686 199.377846 
z
" clip-path="url(#pe2f3ab0c7b)" style="fill: #ff7f0e; opacity: 0.5"/>
   </g>
   <g id="patch_230">
    <path d="M 159.245166 256.32 
L 162.152646 256.32 
L 162.152646 210.870758 
L 159.245166 210.870758 
z
" clip-path="url(#pe2f3ab0c7b)" style="fill: #ff7f0e; opacity: 0.5"/>
   </g>
   <g id="patch_231">
    <path d="M 162.152646 256.32 
L 165.060125 256.32 
L 165.060125 214.527593 
L 162.152646 214.527593 
z
" clip-path="url(#pe2f3ab0c7b)" style="fill: #ff7f0e; opacity: 0.5"/>
   </g>
   <g id="patch_232">
    <path d="M 165.060125 256.32 
L 167.967605 256.32 
L 167.967605 218.445632 
L 165.060125 218.445632 
z
" clip-path="url(#pe2f3ab0c7b)" style="fill: #ff7f0e; opacity: 0.5"/>
   </g>
   <g id="patch_233">
    <path d="M 167.967605 256.32 
L 170.875085 256.32 
L 170.875085 227.848923 
L 167.967605 227.848923 
z
" clip-path="url(#pe2f3ab0c7b)" style="fill: #ff7f0e; opacity: 0.5"/>
   </g>
   <g id="patch_234">
    <path d="M 170.875085 256.32 
L 173.782565 256.32 
L 173.782565 228.632531 
L 170.875085 228.632531 
z
" clip-path="url(#pe2f3ab0c7b)" style="fill: #ff7f0e; opacity: 0.5"/>
   </g>
   <g id="patch_235">
    <path d="M 173.782565 256.32 
L 176.690045 256.32 
L 176.690045 231.766961 
L 173.782565 231.766961 
z
" clip-path="url(#pe2f3ab0c7b)" style="fill: #ff7f0e; opacity: 0.5"/>
   </g>
   <g id="patch_236">
    <path d="M 176.690045 256.32 
L 179.597525 256.32 
L 179.597525 237.513417 
L 176.690045 237.513417 
z
" clip-path="url(#pe2f3ab0c7b)" style="fill: #ff7f0e; opacity: 0.5"/>
   </g>
   <g id="patch_237">
    <path d="M 179.597525 256.32 
L 182.505005 256.32 
L 182.505005 241.170253 
L 179.597525 241.170253 
z
" clip-path="url(#pe2f3ab0c7b)" style="fill: #ff7f0e; opacity: 0.5"/>
   </g>
   <g id="patch_238">
    <path d="M 182.505005 256.32 
L 185.412484 256.32 
L 185.412484 246.655506 
L 182.505005 246.655506 
z
" clip-path="url(#pe2f3ab0c7b)" style="fill: #ff7f0e; opacity: 0.5"/>
   </g>
   <g id="patch_239">
    <path d="M 185.412484 256.32 
L 188.319964 256.32 
L 188.319964 246.394303 
L 185.412484 246.394303 
z
" clip-path="url(#pe2f3ab0c7b)" style="fill: #ff7f0e; opacity: 0.5"/>
   </g>
   <g id="patch_240">
    <path d="M 188.319964 256.32 
L 191.227444 256.32 
L 191.227444 248.222721 
L 188.319964 248.222721 
z
" clip-path="url(#pe2f3ab0c7b)" style="fill: #ff7f0e; opacity: 0.5"/>
   </g>
   <g id="patch_241">
    <path d="M 191.227444 256.32 
L 194.134924 256.32 
L 194.134924 251.357152 
L 191.227444 251.357152 
z
" clip-path="url(#pe2f3ab0c7b)" style="fill: #ff7f0e; opacity: 0.5"/>
   </g>
   <g id="patch_242">
    <path d="M 194.134924 256.32 
L 197.042404 256.32 
L 197.042404 251.357152 
L 194.134924 251.357152 
z
" clip-path="url(#pe2f3ab0c7b)" style="fill: #ff7f0e; opacity: 0.5"/>
   </g>
   <g id="patch_243">
    <path d="M 197.042404 256.32 
L 199.949884 256.32 
L 199.949884 251.879557 
L 197.042404 251.879557 
z
" clip-path="url(#pe2f3ab0c7b)" style="fill: #ff7f0e; opacity: 0.5"/>
   </g>
   <g id="patch_244">
    <path d="M 199.949884 256.32 
L 202.857364 256.32 
L 202.857364 251.618354 
L 199.949884 251.618354 
z
" clip-path="url(#pe2f3ab0c7b)" style="fill: #ff7f0e; opacity: 0.5"/>
   </g>
   <g id="patch_245">
    <path d="M 202.857364 256.32 
L 205.764843 256.32 
L 205.764843 253.18557 
L 202.857364 253.18557 
z
" clip-path="url(#pe2f3ab0c7b)" style="fill: #ff7f0e; opacity: 0.5"/>
   </g>
   <g id="patch_246">
    <path d="M 205.764843 256.32 
L 208.672323 256.32 
L 208.672323 254.491582 
L 205.764843 254.491582 
z
" clip-path="url(#pe2f3ab0c7b)" style="fill: #ff7f0e; opacity: 0.5"/>
   </g>
   <g id="patch_247">
    <path d="M 208.672323 256.32 
L 211.579803 256.32 
L 211.579803 254.752785 
L 208.672323 254.752785 
z
" clip-path="url(#pe2f3ab0c7b)" style="fill: #ff7f0e; opacity: 0.5"/>
   </g>
   <g id="patch_248">
    <path d="M 211.579803 256.32 
L 214.487283 256.32 
L 214.487283 253.707975 
L 211.579803 253.707975 
z
" clip-path="url(#pe2f3ab0c7b)" style="fill: #ff7f0e; opacity: 0.5"/>
   </g>
   <g id="patch_249">
    <path d="M 214.487283 256.32 
L 217.394763 256.32 
L 217.394763 254.491582 
L 214.487283 254.491582 
z
" clip-path="url(#pe2f3ab0c7b)" style="fill: #ff7f0e; opacity: 0.5"/>
   </g>
   <g id="patch_250">
    <path d="M 217.394763 256.32 
L 220.302243 256.32 
L 220.302243 253.446772 
L 217.394763 253.446772 
z
" clip-path="url(#pe2f3ab0c7b)" style="fill: #ff7f0e; opacity: 0.5"/>
   </g>
   <g id="patch_251">
    <path d="M 220.302243 256.32 
L 223.209722 256.32 
L 223.209722 255.27519 
L 220.302243 255.27519 
z
" clip-path="url(#pe2f3ab0c7b)" style="fill: #ff7f0e; opacity: 0.5"/>
   </g>
   <g id="patch_252">
    <path d="M 223.209722 256.32 
L 226.117202 256.32 
L 226.117202 255.013987 
L 223.209722 255.013987 
z
" clip-path="url(#pe2f3ab0c7b)" style="fill: #ff7f0e; opacity: 0.5"/>
   </g>
   <g id="patch_253">
    <path d="M 226.117202 256.32 
L 229.024682 256.32 
L 229.024682 255.013987 
L 226.117202 255.013987 
z
" clip-path="url(#pe2f3ab0c7b)" style="fill: #ff7f0e; opacity: 0.5"/>
   </g>
   <g id="patch_254">
    <path d="M 229.024682 256.32 
L 231.932162 256.32 
L 231.932162 253.969177 
L 229.024682 253.969177 
z
" clip-path="url(#pe2f3ab0c7b)" style="fill: #ff7f0e; opacity: 0.5"/>
   </g>
   <g id="patch_255">
    <path d="M 231.932162 256.32 
L 234.839642 256.32 
L 234.839642 254.752785 
L 231.932162 254.752785 
z
" clip-path="url(#pe2f3ab0c7b)" style="fill: #ff7f0e; opacity: 0.5"/>
   </g>
   <g id="patch_256">
    <path d="M 234.839642 256.32 
L 237.747122 256.32 
L 237.747122 255.536392 
L 234.839642 255.536392 
z
" clip-path="url(#pe2f3ab0c7b)" style="fill: #ff7f0e; opacity: 0.5"/>
   </g>
   <g id="patch_257">
    <path d="M 237.747122 256.32 
L 240.654602 256.32 
L 240.654602 255.797595 
L 237.747122 255.797595 
z
" clip-path="url(#pe2f3ab0c7b)" style="fill: #ff7f0e; opacity: 0.5"/>
   </g>
   <g id="patch_258">
    <path d="M 240.654602 256.32 
L 243.562081 256.32 
L 243.562081 255.27519 
L 240.654602 255.27519 
z
" clip-path="url(#pe2f3ab0c7b)" style="fill: #ff7f0e; opacity: 0.5"/>
   </g>
   <g id="patch_259">
    <path d="M 243.562081 256.32 
L 246.469561 256.32 
L 246.469561 255.797595 
L 243.562081 255.797595 
z
" clip-path="url(#pe2f3ab0c7b)" style="fill: #ff7f0e; opacity: 0.5"/>
   </g>
   <g id="patch_260">
    <path d="M 246.469561 256.32 
L 249.377041 256.32 
L 249.377041 255.013987 
L 246.469561 255.013987 
z
" clip-path="url(#pe2f3ab0c7b)" style="fill: #ff7f0e; opacity: 0.5"/>
   </g>
   <g id="patch_261">
    <path d="M 249.377041 256.32 
L 252.284521 256.32 
L 252.284521 256.058797 
L 249.377041 256.058797 
z
" clip-path="url(#pe2f3ab0c7b)" style="fill: #ff7f0e; opacity: 0.5"/>
   </g>
   <g id="patch_262">
    <path d="M 252.284521 256.32 
L 255.192001 256.32 
L 255.192001 255.797595 
L 252.284521 255.797595 
z
" clip-path="url(#pe2f3ab0c7b)" style="fill: #ff7f0e; opacity: 0.5"/>
   </g>
   <g id="patch_263">
    <path d="M 255.192001 256.32 
L 258.099481 256.32 
L 258.099481 255.797595 
L 255.192001 255.797595 
z
" clip-path="url(#pe2f3ab0c7b)" style="fill: #ff7f0e; opacity: 0.5"/>
   </g>
   <g id="patch_264">
    <path d="M 258.099481 256.32 
L 261.006961 256.32 
L 261.006961 256.058797 
L 258.099481 256.058797 
z
" clip-path="url(#pe2f3ab0c7b)" style="fill: #ff7f0e; opacity: 0.5"/>
   </g>
   <g id="patch_265">
    <path d="M 261.006961 256.32 
L 263.91444 256.32 
L 263.91444 255.797595 
L 261.006961 255.797595 
z
" clip-path="url(#pe2f3ab0c7b)" style="fill: #ff7f0e; opacity: 0.5"/>
   </g>
   <g id="patch_266">
    <path d="M 263.91444 256.32 
L 266.82192 256.32 
L 266.82192 256.32 
L 263.91444 256.32 
z
" clip-path="url(#pe2f3ab0c7b)" style="fill: #ff7f0e; opacity: 0.5"/>
   </g>
   <g id="patch_267">
    <path d="M 266.82192 256.32 
L 269.7294 256.32 
L 269.7294 255.797595 
L 266.82192 255.797595 
z
" clip-path="url(#pe2f3ab0c7b)" style="fill: #ff7f0e; opacity: 0.5"/>
   </g>
   <g id="patch_268">
    <path d="M 269.7294 256.32 
L 272.63688 256.32 
L 272.63688 256.32 
L 269.7294 256.32 
z
" clip-path="url(#pe2f3ab0c7b)" style="fill: #ff7f0e; opacity: 0.5"/>
   </g>
   <g id="patch_269">
    <path d="M 272.63688 256.32 
L 275.54436 256.32 
L 275.54436 256.32 
L 272.63688 256.32 
z
" clip-path="url(#pe2f3ab0c7b)" style="fill: #ff7f0e; opacity: 0.5"/>
   </g>
   <g id="patch_270">
    <path d="M 275.54436 256.32 
L 278.45184 256.32 
L 278.45184 256.32 
L 275.54436 256.32 
z
" clip-path="url(#pe2f3ab0c7b)" style="fill: #ff7f0e; opacity: 0.5"/>
   </g>
   <g id="patch_271">
    <path d="M 278.45184 256.32 
L 281.359319 256.32 
L 281.359319 256.32 
L 278.45184 256.32 
z
" clip-path="url(#pe2f3ab0c7b)" style="fill: #ff7f0e; opacity: 0.5"/>
   </g>
   <g id="patch_272">
    <path d="M 281.359319 256.32 
L 284.266799 256.32 
L 284.266799 256.058797 
L 281.359319 256.058797 
z
" clip-path="url(#pe2f3ab0c7b)" style="fill: #ff7f0e; opacity: 0.5"/>
   </g>
   <g id="patch_273">
    <path d="M 284.266799 256.32 
L 287.174279 256.32 
L 287.174279 256.32 
L 284.266799 256.32 
z
" clip-path="url(#pe2f3ab0c7b)" style="fill: #ff7f0e; opacity: 0.5"/>
   </g>
   <g id="patch_274">
    <path d="M 287.174279 256.32 
L 290.081759 256.32 
L 290.081759 256.32 
L 287.174279 256.32 
z
" clip-path="url(#pe2f3ab0c7b)" style="fill: #ff7f0e; opacity: 0.5"/>
   </g>
   <g id="patch_275">
    <path d="M 290.081759 256.32 
L 292.989239 256.32 
L 292.989239 256.058797 
L 290.081759 256.058797 
z
" clip-path="url(#pe2f3ab0c7b)" style="fill: #ff7f0e; opacity: 0.5"/>
   </g>
   <g id="patch_276">
    <path d="M 292.989239 256.32 
L 295.896719 256.32 
L 295.896719 255.797595 
L 292.989239 255.797595 
z
" clip-path="url(#pe2f3ab0c7b)" style="fill: #ff7f0e; opacity: 0.5"/>
   </g>
   <g id="patch_277">
    <path d="M 295.896719 256.32 
L 298.804199 256.32 
L 298.804199 256.058797 
L 295.896719 256.058797 
z
" clip-path="url(#pe2f3ab0c7b)" style="fill: #ff7f0e; opacity: 0.5"/>
   </g>
   <g id="patch_278">
    <path d="M 298.804199 256.32 
L 301.711678 256.32 
L 301.711678 256.32 
L 298.804199 256.32 
z
" clip-path="url(#pe2f3ab0c7b)" style="fill: #ff7f0e; opacity: 0.5"/>
   </g>
   <g id="patch_279">
    <path d="M 301.711678 256.32 
L 304.619158 256.32 
L 304.619158 256.32 
L 301.711678 256.32 
z
" clip-path="url(#pe2f3ab0c7b)" style="fill: #ff7f0e; opacity: 0.5"/>
   </g>
   <g id="patch_280">
    <path d="M 304.619158 256.32 
L 307.526638 256.32 
L 307.526638 256.32 
L 304.619158 256.32 
z
" clip-path="url(#pe2f3ab0c7b)" style="fill: #ff7f0e; opacity: 0.5"/>
   </g>
   <g id="patch_281">
    <path d="M 307.526638 256.32 
L 310.434118 256.32 
L 310.434118 256.32 
L 307.526638 256.32 
z
" clip-path="url(#pe2f3ab0c7b)" style="fill: #ff7f0e; opacity: 0.5"/>
   </g>
   <g id="patch_282">
    <path d="M 310.434118 256.32 
L 313.341598 256.32 
L 313.341598 256.32 
L 310.434118 256.32 
z
" clip-path="url(#pe2f3ab0c7b)" style="fill: #ff7f0e; opacity: 0.5"/>
   </g>
   <g id="patch_283">
    <path d="M 313.341598 256.32 
L 316.249078 256.32 
L 316.249078 256.058797 
L 313.341598 256.058797 
z
" clip-path="url(#pe2f3ab0c7b)" style="fill: #ff7f0e; opacity: 0.5"/>
   </g>
   <g id="patch_284">
    <path d="M 316.249078 256.32 
L 319.156558 256.32 
L 319.156558 256.32 
L 316.249078 256.32 
z
" clip-path="url(#pe2f3ab0c7b)" style="fill: #ff7f0e; opacity: 0.5"/>
   </g>
   <g id="patch_285">
    <path d="M 319.156558 256.32 
L 322.064037 256.32 
L 322.064037 256.32 
L 319.156558 256.32 
z
" clip-path="url(#pe2f3ab0c7b)" style="fill: #ff7f0e; opacity: 0.5"/>
   </g>
   <g id="patch_286">
    <path d="M 322.064037 256.32 
L 324.971517 256.32 
L 324.971517 256.32 
L 322.064037 256.32 
z
" clip-path="url(#pe2f3ab0c7b)" style="fill: #ff7f0e; opacity: 0.5"/>
   </g>
   <g id="patch_287">
    <path d="M 324.971517 256.32 
L 327.878997 256.32 
L 327.878997 256.32 
L 324.971517 256.32 
z
" clip-path="url(#pe2f3ab0c7b)" style="fill: #ff7f0e; opacity: 0.5"/>
   </g>
   <g id="patch_288">
    <path d="M 327.878997 256.32 
L 330.786477 256.32 
L 330.786477 255.797595 
L 327.878997 255.797595 
z
" clip-path="url(#pe2f3ab0c7b)" style="fill: #ff7f0e; opacity: 0.5"/>
   </g>
   <g id="patch_289">
    <path d="M 330.786477 256.32 
L 333.693957 256.32 
L 333.693957 256.32 
L 330.786477 256.32 
z
" clip-path="url(#pe2f3ab0c7b)" style="fill: #ff7f0e; opacity: 0.5"/>
   </g>
   <g id="patch_290">
    <path d="M 333.693957 256.32 
L 336.601437 256.32 
L 336.601437 256.058797 
L 333.693957 256.058797 
z
" clip-path="url(#pe2f3ab0c7b)" style="fill: #ff7f0e; opacity: 0.5"/>
   </g>
   <g id="patch_291">
    <path d="M 336.601437 256.32 
L 339.508916 256.32 
L 339.508916 256.32 
L 336.601437 256.32 
z
" clip-path="url(#pe2f3ab0c7b)" style="fill: #ff7f0e; opacity: 0.5"/>
   </g>
   <g id="patch_292">
    <path d="M 339.508916 256.32 
L 342.416396 256.32 
L 342.416396 256.32 
L 339.508916 256.32 
z
" clip-path="url(#pe2f3ab0c7b)" style="fill: #ff7f0e; opacity: 0.5"/>
   </g>
   <g id="patch_293">
    <path d="M 342.416396 256.32 
L 345.323876 256.32 
L 345.323876 256.32 
L 342.416396 256.32 
z
" clip-path="url(#pe2f3ab0c7b)" style="fill: #ff7f0e; opacity: 0.5"/>
   </g>
   <g id="patch_294">
    <path d="M 345.323876 256.32 
L 348.231356 256.32 
L 348.231356 256.058797 
L 345.323876 256.058797 
z
" clip-path="url(#pe2f3ab0c7b)" style="fill: #ff7f0e; opacity: 0.5"/>
   </g>
   <g id="patch_295">
    <path d="M 348.231356 256.32 
L 351.138836 256.32 
L 351.138836 256.32 
L 348.231356 256.32 
z
" clip-path="url(#pe2f3ab0c7b)" style="fill: #ff7f0e; opacity: 0.5"/>
   </g>
   <g id="patch_296">
    <path d="M 351.138836 256.32 
L 354.046316 256.32 
L 354.046316 255.797595 
L 351.138836 255.797595 
z
" clip-path="url(#pe2f3ab0c7b)" style="fill: #ff7f0e; opacity: 0.5"/>
   </g>
   <g id="patch_297">
    <path d="M 354.046316 256.32 
L 356.953796 256.32 
L 356.953796 256.32 
L 354.046316 256.32 
z
" clip-path="url(#pe2f3ab0c7b)" style="fill: #ff7f0e; opacity: 0.5"/>
   </g>
   <g id="patch_298">
    <path d="M 356.953796 256.32 
L 359.861275 256.32 
L 359.861275 256.32 
L 356.953796 256.32 
z
" clip-path="url(#pe2f3ab0c7b)" style="fill: #ff7f0e; opacity: 0.5"/>
   </g>
   <g id="patch_299">
    <path d="M 359.861275 256.32 
L 362.768755 256.32 
L 362.768755 256.058797 
L 359.861275 256.058797 
z
" clip-path="url(#pe2f3ab0c7b)" style="fill: #ff7f0e; opacity: 0.5"/>
   </g>
   <g id="patch_300">
    <path d="M 362.768755 256.32 
L 365.676235 256.32 
L 365.676235 256.32 
L 362.768755 256.32 
z
" clip-path="url(#pe2f3ab0c7b)" style="fill: #ff7f0e; opacity: 0.5"/>
   </g>
   <g id="patch_301">
    <path d="M 365.676235 256.32 
L 368.583715 256.32 
L 368.583715 256.32 
L 365.676235 256.32 
z
" clip-path="url(#pe2f3ab0c7b)" style="fill: #ff7f0e; opacity: 0.5"/>
   </g>
   <g id="patch_302">
    <path d="M 368.583715 256.32 
L 371.491195 256.32 
L 371.491195 256.058797 
L 368.583715 256.058797 
z
" clip-path="url(#pe2f3ab0c7b)" style="fill: #ff7f0e; opacity: 0.5"/>
   </g>
   <g id="matplotlib.axis_1">
    <g id="xtick_1">
     <g id="line2d_1">
      <defs>
       <path id="m0a94d4b40c" d="M 0 0 
L 0 3.5 
" style="stroke: #000000; stroke-width: 0.8"/>
      </defs>
      <g>
       <use xlink:href="#m0a94d4b40c" x="80.737844" y="256.32" style="stroke: #000000; stroke-width: 0.8"/>
      </g>
     </g>
     <g id="text_1">
      <!-- 0 -->
      <g transform="translate(76.920344 272.438125) scale(0.12 -0.12)">
       <defs>
        <path id="DejaVuSans-30" d="M 2034 4250 
Q 1547 4250 1301 3770 
Q 1056 3291 1056 2328 
Q 1056 1369 1301 889 
Q 1547 409 2034 409 
Q 2525 409 2770 889 
Q 3016 1369 3016 2328 
Q 3016 3291 2770 3770 
Q 2525 4250 2034 4250 
z
M 2034 4750 
Q 2819 4750 3233 4129 
Q 3647 3509 3647 2328 
Q 3647 1150 3233 529 
Q 2819 -91 2034 -91 
Q 1250 -91 836 529 
Q 422 1150 422 2328 
Q 422 3509 836 4129 
Q 1250 4750 2034 4750 
z
" transform="scale(0.015625)"/>
       </defs>
       <use xlink:href="#DejaVuSans-30"/>
      </g>
     </g>
    </g>
    <g id="xtick_2">
     <g id="line2d_2">
      <g>
       <use xlink:href="#m0a94d4b40c" x="139.310517" y="256.32" style="stroke: #000000; stroke-width: 0.8"/>
      </g>
     </g>
     <g id="text_2">
      <!-- 100 -->
      <g transform="translate(127.858017 272.438125) scale(0.12 -0.12)">
       <defs>
        <path id="DejaVuSans-31" d="M 794 531 
L 1825 531 
L 1825 4091 
L 703 3866 
L 703 4441 
L 1819 4666 
L 2450 4666 
L 2450 531 
L 3481 531 
L 3481 0 
L 794 0 
L 794 531 
z
" transform="scale(0.015625)"/>
       </defs>
       <use xlink:href="#DejaVuSans-31"/>
       <use xlink:href="#DejaVuSans-30" x="63.623047"/>
       <use xlink:href="#DejaVuSans-30" x="127.246094"/>
      </g>
     </g>
    </g>
    <g id="xtick_3">
     <g id="line2d_3">
      <g>
       <use xlink:href="#m0a94d4b40c" x="197.883191" y="256.32" style="stroke: #000000; stroke-width: 0.8"/>
      </g>
     </g>
     <g id="text_3">
      <!-- 200 -->
      <g transform="translate(186.430691 272.438125) scale(0.12 -0.12)">
       <defs>
        <path id="DejaVuSans-32" d="M 1228 531 
L 3431 531 
L 3431 0 
L 469 0 
L 469 531 
Q 828 903 1448 1529 
Q 2069 2156 2228 2338 
Q 2531 2678 2651 2914 
Q 2772 3150 2772 3378 
Q 2772 3750 2511 3984 
Q 2250 4219 1831 4219 
Q 1534 4219 1204 4116 
Q 875 4013 500 3803 
L 500 4441 
Q 881 4594 1212 4672 
Q 1544 4750 1819 4750 
Q 2544 4750 2975 4387 
Q 3406 4025 3406 3419 
Q 3406 3131 3298 2873 
Q 3191 2616 2906 2266 
Q 2828 2175 2409 1742 
Q 1991 1309 1228 531 
z
" transform="scale(0.015625)"/>
       </defs>
       <use xlink:href="#DejaVuSans-32"/>
       <use xlink:href="#DejaVuSans-30" x="63.623047"/>
       <use xlink:href="#DejaVuSans-30" x="127.246094"/>
      </g>
     </g>
    </g>
    <g id="xtick_4">
     <g id="line2d_4">
      <g>
       <use xlink:href="#m0a94d4b40c" x="256.455865" y="256.32" style="stroke: #000000; stroke-width: 0.8"/>
      </g>
     </g>
     <g id="text_4">
      <!-- 300 -->
      <g transform="translate(245.003365 272.438125) scale(0.12 -0.12)">
       <defs>
        <path id="DejaVuSans-33" d="M 2597 2516 
Q 3050 2419 3304 2112 
Q 3559 1806 3559 1356 
Q 3559 666 3084 287 
Q 2609 -91 1734 -91 
Q 1441 -91 1130 -33 
Q 819 25 488 141 
L 488 750 
Q 750 597 1062 519 
Q 1375 441 1716 441 
Q 2309 441 2620 675 
Q 2931 909 2931 1356 
Q 2931 1769 2642 2001 
Q 2353 2234 1838 2234 
L 1294 2234 
L 1294 2753 
L 1863 2753 
Q 2328 2753 2575 2939 
Q 2822 3125 2822 3475 
Q 2822 3834 2567 4026 
Q 2313 4219 1838 4219 
Q 1578 4219 1281 4162 
Q 984 4106 628 3988 
L 628 4550 
Q 988 4650 1302 4700 
Q 1616 4750 1894 4750 
Q 2613 4750 3031 4423 
Q 3450 4097 3450 3541 
Q 3450 3153 3228 2886 
Q 3006 2619 2597 2516 
z
" transform="scale(0.015625)"/>
       </defs>
       <use xlink:href="#DejaVuSans-33"/>
       <use xlink:href="#DejaVuSans-30" x="63.623047"/>
       <use xlink:href="#DejaVuSans-30" x="127.246094"/>
      </g>
     </g>
    </g>
    <g id="xtick_5">
     <g id="line2d_5">
      <g>
       <use xlink:href="#m0a94d4b40c" x="315.028539" y="256.32" style="stroke: #000000; stroke-width: 0.8"/>
      </g>
     </g>
     <g id="text_5">
      <!-- 400 -->
      <g transform="translate(303.576039 272.438125) scale(0.12 -0.12)">
       <defs>
        <path id="DejaVuSans-34" d="M 2419 4116 
L 825 1625 
L 2419 1625 
L 2419 4116 
z
M 2253 4666 
L 3047 4666 
L 3047 1625 
L 3713 1625 
L 3713 1100 
L 3047 1100 
L 3047 0 
L 2419 0 
L 2419 1100 
L 313 1100 
L 313 1709 
L 2253 4666 
z
" transform="scale(0.015625)"/>
       </defs>
       <use xlink:href="#DejaVuSans-34"/>
       <use xlink:href="#DejaVuSans-30" x="63.623047"/>
       <use xlink:href="#DejaVuSans-30" x="127.246094"/>
      </g>
     </g>
    </g>
    <g id="xtick_6">
     <g id="line2d_6">
      <g>
       <use xlink:href="#m0a94d4b40c" x="373.601213" y="256.32" style="stroke: #000000; stroke-width: 0.8"/>
      </g>
     </g>
     <g id="text_6">
      <!-- 500 -->
      <g transform="translate(362.148713 272.438125) scale(0.12 -0.12)">
       <defs>
        <path id="DejaVuSans-35" d="M 691 4666 
L 3169 4666 
L 3169 4134 
L 1269 4134 
L 1269 2991 
Q 1406 3038 1543 3061 
Q 1681 3084 1819 3084 
Q 2600 3084 3056 2656 
Q 3513 2228 3513 1497 
Q 3513 744 3044 326 
Q 2575 -91 1722 -91 
Q 1428 -91 1123 -41 
Q 819 9 494 109 
L 494 744 
Q 775 591 1075 516 
Q 1375 441 1709 441 
Q 2250 441 2565 725 
Q 2881 1009 2881 1497 
Q 2881 1984 2565 2268 
Q 2250 2553 1709 2553 
Q 1456 2553 1204 2497 
Q 953 2441 691 2322 
L 691 4666 
z
" transform="scale(0.015625)"/>
       </defs>
       <use xlink:href="#DejaVuSans-35"/>
       <use xlink:href="#DejaVuSans-30" x="63.623047"/>
       <use xlink:href="#DejaVuSans-30" x="127.246094"/>
      </g>
     </g>
    </g>
    <g id="text_7">
     <!-- $\psi_2 - \psi_1$ -->
     <g transform="translate(189.9 292.574375) scale(0.18 -0.18)">
      <defs>
       <path id="DejaVuSans-Oblique-3c8" d="M 1591 -78 
Q 891 38 616 341 
Q 278 713 425 1472 
L 819 3500 
L 1400 3500 
L 1009 1494 
Q 900 922 1119 684 
Q 1313 478 1691 434 
L 2284 3500 
L 2856 3500 
L 2263 438 
Q 2681 481 2928 688 
Q 3247 950 3353 1497 
L 3741 3500 
L 4322 3500 
L 3928 1475 
Q 3775 688 3300 344 
Q 2872 34 2163 -75 
L 1919 -1331 
L 1347 -1331 
L 1591 -78 
z
" transform="scale(0.015625)"/>
       <path id="DejaVuSans-2212" d="M 678 2272 
L 4684 2272 
L 4684 1741 
L 678 1741 
L 678 2272 
z
" transform="scale(0.015625)"/>
      </defs>
      <use xlink:href="#DejaVuSans-Oblique-3c8" transform="translate(0 0.3125)"/>
      <use xlink:href="#DejaVuSans-32" transform="translate(65.966797 -16.09375) scale(0.7)"/>
      <use xlink:href="#DejaVuSans-2212" transform="translate(132.719727 0.3125)"/>
      <use xlink:href="#DejaVuSans-Oblique-3c8" transform="translate(235.991211 0.3125)"/>
      <use xlink:href="#DejaVuSans-31" transform="translate(301.958008 -16.09375) scale(0.7)"/>
     </g>
    </g>
   </g>
   <g id="matplotlib.axis_2">
    <g id="ytick_1">
     <g id="line2d_7">
      <defs>
       <path id="mb261ee55e2" d="M 0 0 
L -3.5 0 
" style="stroke: #000000; stroke-width: 0.8"/>
      </defs>
      <g>
       <use xlink:href="#mb261ee55e2" x="54" y="256.32" style="stroke: #000000; stroke-width: 0.8"/>
      </g>
     </g>
     <g id="text_8">
      <!-- 0.000 -->
      <g transform="translate(12.64625 260.879063) scale(0.12 -0.12)">
       <defs>
        <path id="DejaVuSans-2e" d="M 684 794 
L 1344 794 
L 1344 0 
L 684 0 
L 684 794 
z
" transform="scale(0.015625)"/>
       </defs>
       <use xlink:href="#DejaVuSans-30"/>
       <use xlink:href="#DejaVuSans-2e" x="63.623047"/>
       <use xlink:href="#DejaVuSans-30" x="95.410156"/>
       <use xlink:href="#DejaVuSans-30" x="159.033203"/>
       <use xlink:href="#DejaVuSans-30" x="222.65625"/>
      </g>
     </g>
    </g>
    <g id="ytick_2">
     <g id="line2d_8">
      <g>
       <use xlink:href="#mb261ee55e2" x="54" y="230.388415" style="stroke: #000000; stroke-width: 0.8"/>
      </g>
     </g>
     <g id="text_9">
      <!-- 0.002 -->
      <g transform="translate(12.64625 234.947478) scale(0.12 -0.12)">
       <use xlink:href="#DejaVuSans-30"/>
       <use xlink:href="#DejaVuSans-2e" x="63.623047"/>
       <use xlink:href="#DejaVuSans-30" x="95.410156"/>
       <use xlink:href="#DejaVuSans-30" x="159.033203"/>
       <use xlink:href="#DejaVuSans-32" x="222.65625"/>
      </g>
     </g>
    </g>
    <g id="ytick_3">
     <g id="line2d_9">
      <g>
       <use xlink:href="#mb261ee55e2" x="54" y="204.456831" style="stroke: #000000; stroke-width: 0.8"/>
      </g>
     </g>
     <g id="text_10">
      <!-- 0.004 -->
      <g transform="translate(12.64625 209.015893) scale(0.12 -0.12)">
       <use xlink:href="#DejaVuSans-30"/>
       <use xlink:href="#DejaVuSans-2e" x="63.623047"/>
       <use xlink:href="#DejaVuSans-30" x="95.410156"/>
       <use xlink:href="#DejaVuSans-30" x="159.033203"/>
       <use xlink:href="#DejaVuSans-34" x="222.65625"/>
      </g>
     </g>
    </g>
    <g id="ytick_4">
     <g id="line2d_10">
      <g>
       <use xlink:href="#mb261ee55e2" x="54" y="178.525246" style="stroke: #000000; stroke-width: 0.8"/>
      </g>
     </g>
     <g id="text_11">
      <!-- 0.006 -->
      <g transform="translate(12.64625 183.084308) scale(0.12 -0.12)">
       <defs>
        <path id="DejaVuSans-36" d="M 2113 2584 
Q 1688 2584 1439 2293 
Q 1191 2003 1191 1497 
Q 1191 994 1439 701 
Q 1688 409 2113 409 
Q 2538 409 2786 701 
Q 3034 994 3034 1497 
Q 3034 2003 2786 2293 
Q 2538 2584 2113 2584 
z
M 3366 4563 
L 3366 3988 
Q 3128 4100 2886 4159 
Q 2644 4219 2406 4219 
Q 1781 4219 1451 3797 
Q 1122 3375 1075 2522 
Q 1259 2794 1537 2939 
Q 1816 3084 2150 3084 
Q 2853 3084 3261 2657 
Q 3669 2231 3669 1497 
Q 3669 778 3244 343 
Q 2819 -91 2113 -91 
Q 1303 -91 875 529 
Q 447 1150 447 2328 
Q 447 3434 972 4092 
Q 1497 4750 2381 4750 
Q 2619 4750 2861 4703 
Q 3103 4656 3366 4563 
z
" transform="scale(0.015625)"/>
       </defs>
       <use xlink:href="#DejaVuSans-30"/>
       <use xlink:href="#DejaVuSans-2e" x="63.623047"/>
       <use xlink:href="#DejaVuSans-30" x="95.410156"/>
       <use xlink:href="#DejaVuSans-30" x="159.033203"/>
       <use xlink:href="#DejaVuSans-36" x="222.65625"/>
      </g>
     </g>
    </g>
    <g id="ytick_5">
     <g id="line2d_11">
      <g>
       <use xlink:href="#mb261ee55e2" x="54" y="152.593661" style="stroke: #000000; stroke-width: 0.8"/>
      </g>
     </g>
     <g id="text_12">
      <!-- 0.008 -->
      <g transform="translate(12.64625 157.152724) scale(0.12 -0.12)">
       <defs>
        <path id="DejaVuSans-38" d="M 2034 2216 
Q 1584 2216 1326 1975 
Q 1069 1734 1069 1313 
Q 1069 891 1326 650 
Q 1584 409 2034 409 
Q 2484 409 2743 651 
Q 3003 894 3003 1313 
Q 3003 1734 2745 1975 
Q 2488 2216 2034 2216 
z
M 1403 2484 
Q 997 2584 770 2862 
Q 544 3141 544 3541 
Q 544 4100 942 4425 
Q 1341 4750 2034 4750 
Q 2731 4750 3128 4425 
Q 3525 4100 3525 3541 
Q 3525 3141 3298 2862 
Q 3072 2584 2669 2484 
Q 3125 2378 3379 2068 
Q 3634 1759 3634 1313 
Q 3634 634 3220 271 
Q 2806 -91 2034 -91 
Q 1263 -91 848 271 
Q 434 634 434 1313 
Q 434 1759 690 2068 
Q 947 2378 1403 2484 
z
M 1172 3481 
Q 1172 3119 1398 2916 
Q 1625 2713 2034 2713 
Q 2441 2713 2670 2916 
Q 2900 3119 2900 3481 
Q 2900 3844 2670 4047 
Q 2441 4250 2034 4250 
Q 1625 4250 1398 4047 
Q 1172 3844 1172 3481 
z
" transform="scale(0.015625)"/>
       </defs>
       <use xlink:href="#DejaVuSans-30"/>
       <use xlink:href="#DejaVuSans-2e" x="63.623047"/>
       <use xlink:href="#DejaVuSans-30" x="95.410156"/>
       <use xlink:href="#DejaVuSans-30" x="159.033203"/>
       <use xlink:href="#DejaVuSans-38" x="222.65625"/>
      </g>
     </g>
    </g>
    <g id="ytick_6">
     <g id="line2d_12">
      <g>
       <use xlink:href="#mb261ee55e2" x="54" y="126.662077" style="stroke: #000000; stroke-width: 0.8"/>
      </g>
     </g>
     <g id="text_13">
      <!-- 0.010 -->
      <g transform="translate(12.64625 131.221139) scale(0.12 -0.12)">
       <use xlink:href="#DejaVuSans-30"/>
       <use xlink:href="#DejaVuSans-2e" x="63.623047"/>
       <use xlink:href="#DejaVuSans-30" x="95.410156"/>
       <use xlink:href="#DejaVuSans-31" x="159.033203"/>
       <use xlink:href="#DejaVuSans-30" x="222.65625"/>
      </g>
     </g>
    </g>
    <g id="ytick_7">
     <g id="line2d_13">
      <g>
       <use xlink:href="#mb261ee55e2" x="54" y="100.730492" style="stroke: #000000; stroke-width: 0.8"/>
      </g>
     </g>
     <g id="text_14">
      <!-- 0.012 -->
      <g transform="translate(12.64625 105.289554) scale(0.12 -0.12)">
       <use xlink:href="#DejaVuSans-30"/>
       <use xlink:href="#DejaVuSans-2e" x="63.623047"/>
       <use xlink:href="#DejaVuSans-30" x="95.410156"/>
       <use xlink:href="#DejaVuSans-31" x="159.033203"/>
       <use xlink:href="#DejaVuSans-32" x="222.65625"/>
      </g>
     </g>
    </g>
    <g id="ytick_8">
     <g id="line2d_14">
      <g>
       <use xlink:href="#mb261ee55e2" x="54" y="74.798907" style="stroke: #000000; stroke-width: 0.8"/>
      </g>
     </g>
     <g id="text_15">
      <!-- 0.014 -->
      <g transform="translate(12.64625 79.35797) scale(0.12 -0.12)">
       <use xlink:href="#DejaVuSans-30"/>
       <use xlink:href="#DejaVuSans-2e" x="63.623047"/>
       <use xlink:href="#DejaVuSans-30" x="95.410156"/>
       <use xlink:href="#DejaVuSans-31" x="159.033203"/>
       <use xlink:href="#DejaVuSans-34" x="222.65625"/>
      </g>
     </g>
    </g>
    <g id="ytick_9">
     <g id="line2d_15">
      <g>
       <use xlink:href="#mb261ee55e2" x="54" y="48.867323" style="stroke: #000000; stroke-width: 0.8"/>
      </g>
     </g>
     <g id="text_16">
      <!-- 0.016 -->
      <g transform="translate(12.64625 53.426385) scale(0.12 -0.12)">
       <use xlink:href="#DejaVuSans-30"/>
       <use xlink:href="#DejaVuSans-2e" x="63.623047"/>
       <use xlink:href="#DejaVuSans-30" x="95.410156"/>
       <use xlink:href="#DejaVuSans-31" x="159.033203"/>
       <use xlink:href="#DejaVuSans-36" x="222.65625"/>
      </g>
     </g>
    </g>
   </g>
   <g id="patch_303">
    <path d="M 54 256.32 
L 54 34.56 
" style="fill: none; stroke: #000000; stroke-width: 0.8; stroke-linejoin: miter; stroke-linecap: square"/>
   </g>
   <g id="patch_304">
    <path d="M 388.8 256.32 
L 388.8 34.56 
" style="fill: none; stroke: #000000; stroke-width: 0.8; stroke-linejoin: miter; stroke-linecap: square"/>
   </g>
   <g id="patch_305">
    <path d="M 54 256.32 
L 388.8 256.32 
" style="fill: none; stroke: #000000; stroke-width: 0.8; stroke-linejoin: miter; stroke-linecap: square"/>
   </g>
   <g id="patch_306">
    <path d="M 54 34.56 
L 388.8 34.56 
" style="fill: none; stroke: #000000; stroke-width: 0.8; stroke-linejoin: miter; stroke-linecap: square"/>
   </g>
   <g id="legend_1">
    <g id="patch_307">
     <path d="M 304.489375 107.408125 
L 379 107.408125 
Q 381.8 107.408125 381.8 104.608125 
L 381.8 44.36 
Q 381.8 41.56 379 41.56 
L 304.489375 41.56 
Q 301.689375 41.56 301.689375 44.36 
L 301.689375 104.608125 
Q 301.689375 107.408125 304.489375 107.408125 
z
" style="fill: #ffffff; opacity: 0.8; stroke: #cccccc; stroke-linejoin: miter"/>
    </g>
    <g id="patch_308">
     <path d="M 307.289375 57.797813 
L 321.289375 57.797813 
L 321.289375 47.997813 
L 307.289375 47.997813 
z
" style="fill: #1f77b4; opacity: 0.2"/>
    </g>
    <g id="text_17">
     <!-- Prior -->
     <g transform="translate(332.489375 57.797813) scale(0.14 -0.14)">
      <defs>
       <path id="DejaVuSans-50" d="M 1259 4147 
L 1259 2394 
L 2053 2394 
Q 2494 2394 2734 2622 
Q 2975 2850 2975 3272 
Q 2975 3691 2734 3919 
Q 2494 4147 2053 4147 
L 1259 4147 
z
M 628 4666 
L 2053 4666 
Q 2838 4666 3239 4311 
Q 3641 3956 3641 3272 
Q 3641 2581 3239 2228 
Q 2838 1875 2053 1875 
L 1259 1875 
L 1259 0 
L 628 0 
L 628 4666 
z
" transform="scale(0.015625)"/>
       <path id="DejaVuSans-72" d="M 2631 2963 
Q 2534 3019 2420 3045 
Q 2306 3072 2169 3072 
Q 1681 3072 1420 2755 
Q 1159 2438 1159 1844 
L 1159 0 
L 581 0 
L 581 3500 
L 1159 3500 
L 1159 2956 
Q 1341 3275 1631 3429 
Q 1922 3584 2338 3584 
Q 2397 3584 2469 3576 
Q 2541 3569 2628 3553 
L 2631 2963 
z
" transform="scale(0.015625)"/>
       <path id="DejaVuSans-69" d="M 603 3500 
L 1178 3500 
L 1178 0 
L 603 0 
L 603 3500 
z
M 603 4863 
L 1178 4863 
L 1178 4134 
L 603 4134 
L 603 4863 
z
" transform="scale(0.015625)"/>
       <path id="DejaVuSans-6f" d="M 1959 3097 
Q 1497 3097 1228 2736 
Q 959 2375 959 1747 
Q 959 1119 1226 758 
Q 1494 397 1959 397 
Q 2419 397 2687 759 
Q 2956 1122 2956 1747 
Q 2956 2369 2687 2733 
Q 2419 3097 1959 3097 
z
M 1959 3584 
Q 2709 3584 3137 3096 
Q 3566 2609 3566 1747 
Q 3566 888 3137 398 
Q 2709 -91 1959 -91 
Q 1206 -91 779 398 
Q 353 888 353 1747 
Q 353 2609 779 3096 
Q 1206 3584 1959 3584 
z
" transform="scale(0.015625)"/>
      </defs>
      <use xlink:href="#DejaVuSans-50"/>
      <use xlink:href="#DejaVuSans-72" x="58.552734"/>
      <use xlink:href="#DejaVuSans-69" x="99.666016"/>
      <use xlink:href="#DejaVuSans-6f" x="127.449219"/>
      <use xlink:href="#DejaVuSans-72" x="188.630859"/>
     </g>
    </g>
    <g id="patch_309">
     <path d="M 307.289375 78.347188 
L 321.289375 78.347188 
L 321.289375 68.547188 
L 307.289375 68.547188 
z
" style="fill: #2ca02c; opacity: 0.5"/>
    </g>
    <g id="text_18">
     <!-- FMPE -->
     <g transform="translate(332.489375 78.347188) scale(0.14 -0.14)">
      <defs>
       <path id="DejaVuSans-46" d="M 628 4666 
L 3309 4666 
L 3309 4134 
L 1259 4134 
L 1259 2759 
L 3109 2759 
L 3109 2228 
L 1259 2228 
L 1259 0 
L 628 0 
L 628 4666 
z
" transform="scale(0.015625)"/>
       <path id="DejaVuSans-4d" d="M 628 4666 
L 1569 4666 
L 2759 1491 
L 3956 4666 
L 4897 4666 
L 4897 0 
L 4281 0 
L 4281 4097 
L 3078 897 
L 2444 897 
L 1241 4097 
L 1241 0 
L 628 0 
L 628 4666 
z
" transform="scale(0.015625)"/>
       <path id="DejaVuSans-45" d="M 628 4666 
L 3578 4666 
L 3578 4134 
L 1259 4134 
L 1259 2753 
L 3481 2753 
L 3481 2222 
L 1259 2222 
L 1259 531 
L 3634 531 
L 3634 0 
L 628 0 
L 628 4666 
z
" transform="scale(0.015625)"/>
      </defs>
      <use xlink:href="#DejaVuSans-46"/>
      <use xlink:href="#DejaVuSans-4d" x="57.519531"/>
      <use xlink:href="#DejaVuSans-50" x="143.798828"/>
      <use xlink:href="#DejaVuSans-45" x="204.101562"/>
     </g>
    </g>
    <g id="patch_310">
     <path d="M 307.289375 98.896563 
L 321.289375 98.896563 
L 321.289375 89.096563 
L 307.289375 89.096563 
z
" style="fill: #ff7f0e; opacity: 0.5"/>
    </g>
    <g id="text_19">
     <!-- MCMC -->
     <g transform="translate(332.489375 98.896563) scale(0.14 -0.14)">
      <defs>
       <path id="DejaVuSans-43" d="M 4122 4306 
L 4122 3641 
Q 3803 3938 3442 4084 
Q 3081 4231 2675 4231 
Q 1875 4231 1450 3742 
Q 1025 3253 1025 2328 
Q 1025 1406 1450 917 
Q 1875 428 2675 428 
Q 3081 428 3442 575 
Q 3803 722 4122 1019 
L 4122 359 
Q 3791 134 3420 21 
Q 3050 -91 2638 -91 
Q 1578 -91 968 557 
Q 359 1206 359 2328 
Q 359 3453 968 4101 
Q 1578 4750 2638 4750 
Q 3056 4750 3426 4639 
Q 3797 4528 4122 4306 
z
" transform="scale(0.015625)"/>
      </defs>
      <use xlink:href="#DejaVuSans-4d"/>
      <use xlink:href="#DejaVuSans-43" x="86.279297"/>
      <use xlink:href="#DejaVuSans-4d" x="156.103516"/>
      <use xlink:href="#DejaVuSans-43" x="242.382812"/>
     </g>
    </g>
   </g>
  </g>
 </g>
 <defs>
  <clipPath id="pe2f3ab0c7b">
   <rect x="54" y="34.56" width="334.8" height="221.76"/>
  </clipPath>
 </defs>
</svg>
