<?xml version="1.0" encoding="utf-8" standalone="no"?>
<!DOCTYPE svg PUBLIC "-//W3C//DTD SVG 1.1//EN"
  "http://www.w3.org/Graphics/SVG/1.1/DTD/svg11.dtd">
<svg xmlns:xlink="http://www.w3.org/1999/xlink" width="432pt" height="288pt" viewBox="0 0 432 288" xmlns="http://www.w3.org/2000/svg" version="1.1">
 <metadata>
  <rdf:RDF xmlns:dc="http://purl.org/dc/elements/1.1/" xmlns:cc="http://creativecommons.org/ns#" xmlns:rdf="http://www.w3.org/1999/02/22-rdf-syntax-ns#">
   <cc:Work>
    <dc:type rdf:resource="http://purl.org/dc/dcmitype/StillImage"/>
    <dc:date>2024-09-09T16:59:29.913162</dc:date>
    <dc:format>image/svg+xml</dc:format>
    <dc:creator>
     <cc:Agent>
      <dc:title>Matplotlib v3.9.1.post1, https://matplotlib.org/</dc:title>
     </cc:Agent>
    </dc:creator>
   </cc:Work>
  </rdf:RDF>
 </metadata>
 <defs>
  <style type="text/css">*{stroke-linejoin: round; stroke-linecap: butt}</style>
 </defs>
 <g id="figure_1">
  <g id="patch_1">
   <path d="M 0 288 
L 432 288 
L 432 0 
L 0 0 
z
" style="fill: #ffffff"/>
  </g>
  <g id="axes_1">
   <g id="patch_2">
    <path d="M 54 256.32 
L 388.8 256.32 
L 388.8 34.56 
L 54 34.56 
z
" style="fill: #ffffff"/>
   </g>
   <g id="patch_3">
    <path d="M 85.639249 256.32 
L 88.518675 256.32 
L 88.518675 219.450727 
L 85.639249 219.450727 
z
" clip-path="url(#p8eaa614f67)" style="fill: #1f77b4; opacity: 0.2"/>
   </g>
   <g id="patch_4">
    <path d="M 88.518675 256.32 
L 91.3981 256.32 
L 91.3981 221.537667 
L 88.518675 221.537667 
z
" clip-path="url(#p8eaa614f67)" style="fill: #1f77b4; opacity: 0.2"/>
   </g>
   <g id="patch_5">
    <path d="M 91.3981 256.32 
L 94.277526 256.32 
L 94.277526 215.276851 
L 91.3981 215.276851 
z
" clip-path="url(#p8eaa614f67)" style="fill: #1f77b4; opacity: 0.2"/>
   </g>
   <g id="patch_6">
    <path d="M 94.277526 256.32 
L 97.156951 256.32 
L 97.156951 221.189841 
L 94.277526 221.189841 
z
" clip-path="url(#p8eaa614f67)" style="fill: #1f77b4; opacity: 0.2"/>
   </g>
   <g id="patch_7">
    <path d="M 97.156951 256.32 
L 100.036377 256.32 
L 100.036377 223.62461 
L 97.156951 223.62461 
z
" clip-path="url(#p8eaa614f67)" style="fill: #1f77b4; opacity: 0.2"/>
   </g>
   <g id="patch_8">
    <path d="M 100.036377 256.32 
L 102.915803 256.32 
L 102.915803 222.233317 
L 100.036377 222.233317 
z
" clip-path="url(#p8eaa614f67)" style="fill: #1f77b4; opacity: 0.2"/>
   </g>
   <g id="patch_9">
    <path d="M 102.915803 256.32 
L 105.795229 256.32 
L 105.795229 219.798554 
L 102.915803 219.798554 
z
" clip-path="url(#p8eaa614f67)" style="fill: #1f77b4; opacity: 0.2"/>
   </g>
   <g id="patch_10">
    <path d="M 105.795229 256.32 
L 108.674654 256.32 
L 108.674654 221.885481 
L 105.795229 221.885481 
z
" clip-path="url(#p8eaa614f67)" style="fill: #1f77b4; opacity: 0.2"/>
   </g>
   <g id="patch_11">
    <path d="M 108.674654 256.32 
L 111.554081 256.32 
L 111.554081 221.885507 
L 108.674654 221.885507 
z
" clip-path="url(#p8eaa614f67)" style="fill: #1f77b4; opacity: 0.2"/>
   </g>
   <g id="patch_12">
    <path d="M 111.554081 256.32 
L 114.433506 256.32 
L 114.433506 222.581128 
L 111.554081 222.581128 
z
" clip-path="url(#p8eaa614f67)" style="fill: #1f77b4; opacity: 0.2"/>
   </g>
   <g id="patch_13">
    <path d="M 114.433506 256.32 
L 117.312931 256.32 
L 117.312931 225.363715 
L 114.433506 225.363715 
z
" clip-path="url(#p8eaa614f67)" style="fill: #1f77b4; opacity: 0.2"/>
   </g>
   <g id="patch_14">
    <path d="M 117.312931 256.32 
L 120.192358 256.32 
L 120.192358 226.755031 
L 117.312931 226.755031 
z
" clip-path="url(#p8eaa614f67)" style="fill: #1f77b4; opacity: 0.2"/>
   </g>
   <g id="patch_15">
    <path d="M 120.192358 256.32 
L 123.071785 256.32 
L 123.071785 215.972513 
L 120.192358 215.972513 
z
" clip-path="url(#p8eaa614f67)" style="fill: #1f77b4; opacity: 0.2"/>
   </g>
   <g id="patch_16">
    <path d="M 123.071785 256.32 
L 125.951209 256.32 
L 125.951209 217.363776 
L 123.071785 217.363776 
z
" clip-path="url(#p8eaa614f67)" style="fill: #1f77b4; opacity: 0.2"/>
   </g>
   <g id="patch_17">
    <path d="M 125.951209 256.32 
L 128.830634 256.32 
L 128.830634 225.015892 
L 125.951209 225.015892 
z
" clip-path="url(#p8eaa614f67)" style="fill: #1f77b4; opacity: 0.2"/>
   </g>
   <g id="patch_18">
    <path d="M 128.830634 256.32 
L 131.710059 256.32 
L 131.710059 218.407246 
L 128.830634 218.407246 
z
" clip-path="url(#p8eaa614f67)" style="fill: #1f77b4; opacity: 0.2"/>
   </g>
   <g id="patch_19">
    <path d="M 131.710059 256.32 
L 134.589484 256.32 
L 134.589484 227.450656 
L 131.710059 227.450656 
z
" clip-path="url(#p8eaa614f67)" style="fill: #1f77b4; opacity: 0.2"/>
   </g>
   <g id="patch_20">
    <path d="M 134.589484 256.32 
L 137.468913 256.32 
L 137.468913 219.450773 
L 134.589484 219.450773 
z
" clip-path="url(#p8eaa614f67)" style="fill: #1f77b4; opacity: 0.2"/>
   </g>
   <g id="patch_21">
    <path d="M 137.468913 256.32 
L 140.348338 256.32 
L 140.348338 225.711538 
L 137.468913 225.711538 
z
" clip-path="url(#p8eaa614f67)" style="fill: #1f77b4; opacity: 0.2"/>
   </g>
   <g id="patch_22">
    <path d="M 140.348338 256.32 
L 143.227763 256.32 
L 143.227763 228.841949 
L 140.348338 228.841949 
z
" clip-path="url(#p8eaa614f67)" style="fill: #1f77b4; opacity: 0.2"/>
   </g>
   <g id="patch_23">
    <path d="M 143.227763 256.32 
L 146.107188 256.32 
L 146.107188 222.233304 
L 143.227763 222.233304 
z
" clip-path="url(#p8eaa614f67)" style="fill: #1f77b4; opacity: 0.2"/>
   </g>
   <g id="patch_24">
    <path d="M 146.107188 256.32 
L 148.986612 256.32 
L 148.986612 213.885542 
L 146.107188 213.885542 
z
" clip-path="url(#p8eaa614f67)" style="fill: #1f77b4; opacity: 0.2"/>
   </g>
   <g id="patch_25">
    <path d="M 148.986612 256.32 
L 151.866042 256.32 
L 151.866042 222.929002 
L 148.986612 222.929002 
z
" clip-path="url(#p8eaa614f67)" style="fill: #1f77b4; opacity: 0.2"/>
   </g>
   <g id="patch_26">
    <path d="M 151.866042 256.32 
L 154.745466 256.32 
L 154.745466 226.059362 
L 151.866042 226.059362 
z
" clip-path="url(#p8eaa614f67)" style="fill: #1f77b4; opacity: 0.2"/>
   </g>
   <g id="patch_27">
    <path d="M 154.745466 256.32 
L 157.624891 256.32 
L 157.624891 220.146364 
L 154.745466 220.146364 
z
" clip-path="url(#p8eaa614f67)" style="fill: #1f77b4; opacity: 0.2"/>
   </g>
   <g id="patch_28">
    <path d="M 157.624891 256.32 
L 160.50432 256.32 
L 160.50432 219.10295 
L 157.624891 219.10295 
z
" clip-path="url(#p8eaa614f67)" style="fill: #1f77b4; opacity: 0.2"/>
   </g>
   <g id="patch_29">
    <path d="M 160.50432 256.32 
L 163.383741 256.32 
L 163.383741 218.755013 
L 160.50432 218.755013 
z
" clip-path="url(#p8eaa614f67)" style="fill: #1f77b4; opacity: 0.2"/>
   </g>
   <g id="patch_30">
    <path d="M 163.383741 256.32 
L 166.26317 256.32 
L 166.26317 223.972471 
L 163.383741 223.972471 
z
" clip-path="url(#p8eaa614f67)" style="fill: #1f77b4; opacity: 0.2"/>
   </g>
   <g id="patch_31">
    <path d="M 166.26317 256.32 
L 169.14259 256.32 
L 169.14259 224.320196 
L 166.26317 224.320196 
z
" clip-path="url(#p8eaa614f67)" style="fill: #1f77b4; opacity: 0.2"/>
   </g>
   <g id="patch_32">
    <path d="M 169.14259 256.32 
L 172.02202 256.32 
L 172.02202 221.885533 
L 169.14259 221.885533 
z
" clip-path="url(#p8eaa614f67)" style="fill: #1f77b4; opacity: 0.2"/>
   </g>
   <g id="patch_33">
    <path d="M 172.02202 256.32 
L 174.901449 256.32 
L 174.901449 223.972471 
L 172.02202 223.972471 
z
" clip-path="url(#p8eaa614f67)" style="fill: #1f77b4; opacity: 0.2"/>
   </g>
   <g id="patch_34">
    <path d="M 174.901449 256.32 
L 177.780869 256.32 
L 177.780869 223.972372 
L 174.901449 223.972372 
z
" clip-path="url(#p8eaa614f67)" style="fill: #1f77b4; opacity: 0.2"/>
   </g>
   <g id="patch_35">
    <path d="M 177.780869 256.32 
L 180.660299 256.32 
L 180.660299 220.494242 
L 177.780869 220.494242 
z
" clip-path="url(#p8eaa614f67)" style="fill: #1f77b4; opacity: 0.2"/>
   </g>
   <g id="patch_36">
    <path d="M 180.660299 256.32 
L 183.539719 256.32 
L 183.539719 218.407189 
L 180.660299 218.407189 
z
" clip-path="url(#p8eaa614f67)" style="fill: #1f77b4; opacity: 0.2"/>
   </g>
   <g id="patch_37">
    <path d="M 183.539719 256.32 
L 186.419148 256.32 
L 186.419148 219.450773 
L 183.539719 219.450773 
z
" clip-path="url(#p8eaa614f67)" style="fill: #1f77b4; opacity: 0.2"/>
   </g>
   <g id="patch_38">
    <path d="M 186.419148 256.32 
L 189.298577 256.32 
L 189.298577 217.363836 
L 186.419148 217.363836 
z
" clip-path="url(#p8eaa614f67)" style="fill: #1f77b4; opacity: 0.2"/>
   </g>
   <g id="patch_39">
    <path d="M 189.298577 256.32 
L 192.177998 256.32 
L 192.177998 218.755013 
L 189.298577 218.755013 
z
" clip-path="url(#p8eaa614f67)" style="fill: #1f77b4; opacity: 0.2"/>
   </g>
   <g id="patch_40">
    <path d="M 192.177998 256.32 
L 195.057427 256.32 
L 195.057427 220.842065 
L 192.177998 220.842065 
z
" clip-path="url(#p8eaa614f67)" style="fill: #1f77b4; opacity: 0.2"/>
   </g>
   <g id="patch_41">
    <path d="M 195.057427 256.32 
L 197.936847 256.32 
L 197.936847 220.841956 
L 195.057427 220.841956 
z
" clip-path="url(#p8eaa614f67)" style="fill: #1f77b4; opacity: 0.2"/>
   </g>
   <g id="patch_42">
    <path d="M 197.936847 256.32 
L 200.816277 256.32 
L 200.816277 219.450773 
L 197.936847 219.450773 
z
" clip-path="url(#p8eaa614f67)" style="fill: #1f77b4; opacity: 0.2"/>
   </g>
   <g id="patch_43">
    <path d="M 200.816277 256.32 
L 203.695706 256.32 
L 203.695706 217.016013 
L 200.816277 217.016013 
z
" clip-path="url(#p8eaa614f67)" style="fill: #1f77b4; opacity: 0.2"/>
   </g>
   <g id="patch_44">
    <path d="M 203.695706 256.32 
L 206.575126 256.32 
L 206.575126 219.45066 
L 203.695706 219.45066 
z
" clip-path="url(#p8eaa614f67)" style="fill: #1f77b4; opacity: 0.2"/>
   </g>
   <g id="patch_45">
    <path d="M 206.575126 256.32 
L 209.454555 256.32 
L 209.454555 219.10295 
L 206.575126 219.10295 
z
" clip-path="url(#p8eaa614f67)" style="fill: #1f77b4; opacity: 0.2"/>
   </g>
   <g id="patch_46">
    <path d="M 209.454555 256.32 
L 212.333976 256.32 
L 212.333976 215.624597 
L 209.454555 215.624597 
z
" clip-path="url(#p8eaa614f67)" style="fill: #1f77b4; opacity: 0.2"/>
   </g>
   <g id="patch_47">
    <path d="M 212.333976 256.32 
L 215.213405 256.32 
L 215.213405 221.885533 
L 212.333976 221.885533 
z
" clip-path="url(#p8eaa614f67)" style="fill: #1f77b4; opacity: 0.2"/>
   </g>
   <g id="patch_48">
    <path d="M 215.213405 256.32 
L 218.092834 256.32 
L 218.092834 223.972471 
L 215.213405 223.972471 
z
" clip-path="url(#p8eaa614f67)" style="fill: #1f77b4; opacity: 0.2"/>
   </g>
   <g id="patch_49">
    <path d="M 218.092834 256.32 
L 220.972255 256.32 
L 220.972255 226.059316 
L 218.092834 226.059316 
z
" clip-path="url(#p8eaa614f67)" style="fill: #1f77b4; opacity: 0.2"/>
   </g>
   <g id="patch_50">
    <path d="M 220.972255 256.32 
L 223.851684 256.32 
L 223.851684 220.146419 
L 220.972255 220.146419 
z
" clip-path="url(#p8eaa614f67)" style="fill: #1f77b4; opacity: 0.2"/>
   </g>
   <g id="patch_51">
    <path d="M 223.851684 256.32 
L 226.731104 256.32 
L 226.731104 217.363717 
L 223.851684 217.363717 
z
" clip-path="url(#p8eaa614f67)" style="fill: #1f77b4; opacity: 0.2"/>
   </g>
   <g id="patch_52">
    <path d="M 226.731104 256.32 
L 229.610534 256.32 
L 229.610534 218.407304 
L 226.731104 218.407304 
z
" clip-path="url(#p8eaa614f67)" style="fill: #1f77b4; opacity: 0.2"/>
   </g>
   <g id="patch_53">
    <path d="M 229.610534 256.32 
L 232.489963 256.32 
L 232.489963 222.929002 
L 229.610534 222.929002 
z
" clip-path="url(#p8eaa614f67)" style="fill: #1f77b4; opacity: 0.2"/>
   </g>
   <g id="patch_54">
    <path d="M 232.489963 256.32 
L 235.369392 256.32 
L 235.369392 226.755054 
L 232.489963 226.755054 
z
" clip-path="url(#p8eaa614f67)" style="fill: #1f77b4; opacity: 0.2"/>
   </g>
   <g id="patch_55">
    <path d="M 235.369392 256.32 
L 238.248804 256.32 
L 238.248804 225.015748 
L 235.369392 225.015748 
z
" clip-path="url(#p8eaa614f67)" style="fill: #1f77b4; opacity: 0.2"/>
   </g>
   <g id="patch_56">
    <path d="M 238.248804 256.32 
L 241.128233 256.32 
L 241.128233 222.233356 
L 238.248804 222.233356 
z
" clip-path="url(#p8eaa614f67)" style="fill: #1f77b4; opacity: 0.2"/>
   </g>
   <g id="patch_57">
    <path d="M 241.128233 256.32 
L 244.007662 256.32 
L 244.007662 226.755054 
L 241.128233 226.755054 
z
" clip-path="url(#p8eaa614f67)" style="fill: #1f77b4; opacity: 0.2"/>
   </g>
   <g id="patch_58">
    <path d="M 244.007662 256.32 
L 246.887091 256.32 
L 246.887091 225.363762 
L 244.007662 225.363762 
z
" clip-path="url(#p8eaa614f67)" style="fill: #1f77b4; opacity: 0.2"/>
   </g>
   <g id="patch_59">
    <path d="M 246.887091 256.32 
L 249.76652 256.32 
L 249.76652 222.233356 
L 246.887091 222.233356 
z
" clip-path="url(#p8eaa614f67)" style="fill: #1f77b4; opacity: 0.2"/>
   </g>
   <g id="patch_60">
    <path d="M 249.76652 256.32 
L 252.645932 256.32 
L 252.645932 223.624448 
L 249.76652 223.624448 
z
" clip-path="url(#p8eaa614f67)" style="fill: #1f77b4; opacity: 0.2"/>
   </g>
   <g id="patch_61">
    <path d="M 252.645932 256.32 
L 255.525361 256.32 
L 255.525361 224.668116 
L 252.645932 224.668116 
z
" clip-path="url(#p8eaa614f67)" style="fill: #1f77b4; opacity: 0.2"/>
   </g>
   <g id="patch_62">
    <path d="M 255.525361 256.32 
L 258.40479 256.32 
L 258.40479 218.407304 
L 255.525361 218.407304 
z
" clip-path="url(#p8eaa614f67)" style="fill: #1f77b4; opacity: 0.2"/>
   </g>
   <g id="patch_63">
    <path d="M 258.40479 256.32 
L 261.28422 256.32 
L 261.28422 225.363762 
L 258.40479 225.363762 
z
" clip-path="url(#p8eaa614f67)" style="fill: #1f77b4; opacity: 0.2"/>
   </g>
   <g id="patch_64">
    <path d="M 261.28422 256.32 
L 264.163649 256.32 
L 264.163649 222.929002 
L 261.28422 222.929002 
z
" clip-path="url(#p8eaa614f67)" style="fill: #1f77b4; opacity: 0.2"/>
   </g>
   <g id="patch_65">
    <path d="M 264.163649 256.32 
L 267.043061 256.32 
L 267.043061 223.624448 
L 264.163649 223.624448 
z
" clip-path="url(#p8eaa614f67)" style="fill: #1f77b4; opacity: 0.2"/>
   </g>
   <g id="patch_66">
    <path d="M 267.043061 256.32 
L 269.92249 256.32 
L 269.92249 221.53771 
L 267.043061 221.53771 
z
" clip-path="url(#p8eaa614f67)" style="fill: #1f77b4; opacity: 0.2"/>
   </g>
   <g id="patch_67">
    <path d="M 269.92249 256.32 
L 272.801919 256.32 
L 272.801919 222.581179 
L 269.92249 222.581179 
z
" clip-path="url(#p8eaa614f67)" style="fill: #1f77b4; opacity: 0.2"/>
   </g>
   <g id="patch_68">
    <path d="M 272.801919 256.32 
L 275.681348 256.32 
L 275.681348 222.233356 
L 272.801919 222.233356 
z
" clip-path="url(#p8eaa614f67)" style="fill: #1f77b4; opacity: 0.2"/>
   </g>
   <g id="patch_69">
    <path d="M 275.681348 256.32 
L 278.560777 256.32 
L 278.560777 221.53771 
L 275.681348 221.53771 
z
" clip-path="url(#p8eaa614f67)" style="fill: #1f77b4; opacity: 0.2"/>
   </g>
   <g id="patch_70">
    <path d="M 278.560777 256.32 
L 281.440189 256.32 
L 281.440189 222.928798 
L 278.560777 222.928798 
z
" clip-path="url(#p8eaa614f67)" style="fill: #1f77b4; opacity: 0.2"/>
   </g>
   <g id="patch_71">
    <path d="M 281.440189 256.32 
L 284.319618 256.32 
L 284.319618 225.015939 
L 281.440189 225.015939 
z
" clip-path="url(#p8eaa614f67)" style="fill: #1f77b4; opacity: 0.2"/>
   </g>
   <g id="patch_72">
    <path d="M 284.319618 256.32 
L 287.199047 256.32 
L 287.199047 223.624648 
L 284.319618 223.624648 
z
" clip-path="url(#p8eaa614f67)" style="fill: #1f77b4; opacity: 0.2"/>
   </g>
   <g id="patch_73">
    <path d="M 287.199047 256.32 
L 290.078477 256.32 
L 290.078477 221.189888 
L 287.199047 221.189888 
z
" clip-path="url(#p8eaa614f67)" style="fill: #1f77b4; opacity: 0.2"/>
   </g>
   <g id="patch_74">
    <path d="M 290.078477 256.32 
L 292.957906 256.32 
L 292.957906 222.581179 
L 290.078477 222.581179 
z
" clip-path="url(#p8eaa614f67)" style="fill: #1f77b4; opacity: 0.2"/>
   </g>
   <g id="patch_75">
    <path d="M 292.957906 256.32 
L 295.837317 256.32 
L 295.837317 224.667923 
L 292.957906 224.667923 
z
" clip-path="url(#p8eaa614f67)" style="fill: #1f77b4; opacity: 0.2"/>
   </g>
   <g id="patch_76">
    <path d="M 295.837317 256.32 
L 298.716747 256.32 
L 298.716747 225.363762 
L 295.837317 225.363762 
z
" clip-path="url(#p8eaa614f67)" style="fill: #1f77b4; opacity: 0.2"/>
   </g>
   <g id="patch_77">
    <path d="M 298.716747 256.32 
L 301.596176 256.32 
L 301.596176 224.668116 
L 298.716747 224.668116 
z
" clip-path="url(#p8eaa614f67)" style="fill: #1f77b4; opacity: 0.2"/>
   </g>
   <g id="patch_78">
    <path d="M 301.596176 256.32 
L 304.475605 256.32 
L 304.475605 220.146419 
L 301.596176 220.146419 
z
" clip-path="url(#p8eaa614f67)" style="fill: #1f77b4; opacity: 0.2"/>
   </g>
   <g id="patch_79">
    <path d="M 304.475605 256.32 
L 307.355034 256.32 
L 307.355034 220.842065 
L 304.475605 220.842065 
z
" clip-path="url(#p8eaa614f67)" style="fill: #1f77b4; opacity: 0.2"/>
   </g>
   <g id="patch_80">
    <path d="M 307.355034 256.32 
L 310.234446 256.32 
L 310.234446 214.928823 
L 307.355034 214.928823 
z
" clip-path="url(#p8eaa614f67)" style="fill: #1f77b4; opacity: 0.2"/>
   </g>
   <g id="patch_81">
    <path d="M 310.234446 256.32 
L 313.113875 256.32 
L 313.113875 222.929002 
L 310.234446 222.929002 
z
" clip-path="url(#p8eaa614f67)" style="fill: #1f77b4; opacity: 0.2"/>
   </g>
   <g id="patch_82">
    <path d="M 313.113875 256.32 
L 315.993304 256.32 
L 315.993304 223.276825 
L 313.113875 223.276825 
z
" clip-path="url(#p8eaa614f67)" style="fill: #1f77b4; opacity: 0.2"/>
   </g>
   <g id="patch_83">
    <path d="M 315.993304 256.32 
L 318.872734 256.32 
L 318.872734 219.798596 
L 315.993304 219.798596 
z
" clip-path="url(#p8eaa614f67)" style="fill: #1f77b4; opacity: 0.2"/>
   </g>
   <g id="patch_84">
    <path d="M 318.872734 256.32 
L 321.752163 256.32 
L 321.752163 216.66819 
L 318.872734 216.66819 
z
" clip-path="url(#p8eaa614f67)" style="fill: #1f77b4; opacity: 0.2"/>
   </g>
   <g id="patch_85">
    <path d="M 321.752163 256.32 
L 324.631574 256.32 
L 324.631574 224.320098 
L 321.752163 224.320098 
z
" clip-path="url(#p8eaa614f67)" style="fill: #1f77b4; opacity: 0.2"/>
   </g>
   <g id="patch_86">
    <path d="M 324.631574 256.32 
L 327.511004 256.32 
L 327.511004 226.059408 
L 324.631574 226.059408 
z
" clip-path="url(#p8eaa614f67)" style="fill: #1f77b4; opacity: 0.2"/>
   </g>
   <g id="patch_87">
    <path d="M 327.511004 256.32 
L 330.390433 256.32 
L 330.390433 219.450773 
L 327.511004 219.450773 
z
" clip-path="url(#p8eaa614f67)" style="fill: #1f77b4; opacity: 0.2"/>
   </g>
   <g id="patch_88">
    <path d="M 330.390433 256.32 
L 333.269862 256.32 
L 333.269862 218.755127 
L 330.390433 218.755127 
z
" clip-path="url(#p8eaa614f67)" style="fill: #1f77b4; opacity: 0.2"/>
   </g>
   <g id="patch_89">
    <path d="M 333.269862 256.32 
L 336.149291 256.32 
L 336.149291 218.407304 
L 333.269862 218.407304 
z
" clip-path="url(#p8eaa614f67)" style="fill: #1f77b4; opacity: 0.2"/>
   </g>
   <g id="patch_90">
    <path d="M 336.149291 256.32 
L 339.028703 256.32 
L 339.028703 217.015773 
L 336.149291 217.015773 
z
" clip-path="url(#p8eaa614f67)" style="fill: #1f77b4; opacity: 0.2"/>
   </g>
   <g id="patch_91">
    <path d="M 339.028703 256.32 
L 341.908132 256.32 
L 341.908132 221.189888 
L 339.028703 221.189888 
z
" clip-path="url(#p8eaa614f67)" style="fill: #1f77b4; opacity: 0.2"/>
   </g>
   <g id="patch_92">
    <path d="M 341.908132 256.32 
L 344.787561 256.32 
L 344.787561 222.233356 
L 341.908132 222.233356 
z
" clip-path="url(#p8eaa614f67)" style="fill: #1f77b4; opacity: 0.2"/>
   </g>
   <g id="patch_93">
    <path d="M 344.787561 256.32 
L 347.66699 256.32 
L 347.66699 225.015939 
L 344.787561 225.015939 
z
" clip-path="url(#p8eaa614f67)" style="fill: #1f77b4; opacity: 0.2"/>
   </g>
   <g id="patch_94">
    <path d="M 347.66699 256.32 
L 350.54642 256.32 
L 350.54642 224.320294 
L 347.66699 224.320294 
z
" clip-path="url(#p8eaa614f67)" style="fill: #1f77b4; opacity: 0.2"/>
   </g>
   <g id="patch_95">
    <path d="M 350.54642 256.32 
L 353.425831 256.32 
L 353.425831 221.885323 
L 350.54642 221.885323 
z
" clip-path="url(#p8eaa614f67)" style="fill: #1f77b4; opacity: 0.2"/>
   </g>
   <g id="patch_96">
    <path d="M 353.425831 256.32 
L 356.305261 256.32 
L 356.305261 214.23343 
L 353.425831 214.23343 
z
" clip-path="url(#p8eaa614f67)" style="fill: #1f77b4; opacity: 0.2"/>
   </g>
   <g id="patch_97">
    <path d="M 356.305261 256.32 
L 359.18469 256.32 
L 359.18469 220.494242 
L 356.305261 220.494242 
z
" clip-path="url(#p8eaa614f67)" style="fill: #1f77b4; opacity: 0.2"/>
   </g>
   <g id="patch_98">
    <path d="M 359.18469 256.32 
L 362.064119 256.32 
L 362.064119 223.624648 
L 359.18469 223.624648 
z
" clip-path="url(#p8eaa614f67)" style="fill: #1f77b4; opacity: 0.2"/>
   </g>
   <g id="patch_99">
    <path d="M 362.064119 256.32 
L 364.943548 256.32 
L 364.943548 219.450773 
L 362.064119 219.450773 
z
" clip-path="url(#p8eaa614f67)" style="fill: #1f77b4; opacity: 0.2"/>
   </g>
   <g id="patch_100">
    <path d="M 364.943548 256.32 
L 367.82296 256.32 
L 367.82296 220.841848 
L 364.943548 220.841848 
z
" clip-path="url(#p8eaa614f67)" style="fill: #1f77b4; opacity: 0.2"/>
   </g>
   <g id="patch_101">
    <path d="M 367.82296 256.32 
L 370.702389 256.32 
L 370.702389 216.320367 
L 367.82296 216.320367 
z
" clip-path="url(#p8eaa614f67)" style="fill: #1f77b4; opacity: 0.2"/>
   </g>
   <g id="patch_102">
    <path d="M 370.702389 256.32 
L 373.581818 256.32 
L 373.581818 218.059481 
L 370.702389 218.059481 
z
" clip-path="url(#p8eaa614f67)" style="fill: #1f77b4; opacity: 0.2"/>
   </g>
   <g id="patch_103">
    <path d="M 69.218182 256.32 
L 72.089163 256.32 
L 72.089163 254.575768 
L 69.218182 254.575768 
z
" clip-path="url(#p8eaa614f67)" style="fill: #2ca02c; opacity: 0.5"/>
   </g>
   <g id="patch_104">
    <path d="M 72.089163 256.32 
L 74.960144 256.32 
L 74.960144 251.43615 
L 72.089163 251.43615 
z
" clip-path="url(#p8eaa614f67)" style="fill: #2ca02c; opacity: 0.5"/>
   </g>
   <g id="patch_105">
    <path d="M 74.960144 256.32 
L 77.831124 256.32 
L 77.831124 246.203452 
L 74.960144 246.203452 
z
" clip-path="url(#p8eaa614f67)" style="fill: #2ca02c; opacity: 0.5"/>
   </g>
   <g id="patch_106">
    <path d="M 77.831124 256.32 
L 80.702105 256.32 
L 80.702105 238.179987 
L 77.831124 238.179987 
z
" clip-path="url(#p8eaa614f67)" style="fill: #2ca02c; opacity: 0.5"/>
   </g>
   <g id="patch_107">
    <path d="M 80.702105 256.32 
L 83.573086 256.32 
L 83.573086 218.993434 
L 80.702105 218.993434 
z
" clip-path="url(#p8eaa614f67)" style="fill: #2ca02c; opacity: 0.5"/>
   </g>
   <g id="patch_108">
    <path d="M 83.573086 256.32 
L 86.444067 256.32 
L 86.444067 190.039182 
L 83.573086 190.039182 
z
" clip-path="url(#p8eaa614f67)" style="fill: #2ca02c; opacity: 0.5"/>
   </g>
   <g id="patch_109">
    <path d="M 86.444067 256.32 
L 89.315048 256.32 
L 89.315048 170.154937 
L 86.444067 170.154937 
z
" clip-path="url(#p8eaa614f67)" style="fill: #2ca02c; opacity: 0.5"/>
   </g>
   <g id="patch_110">
    <path d="M 89.315048 256.32 
L 92.186028 256.32 
L 92.186028 131.78182 
L 89.315048 131.78182 
z
" clip-path="url(#p8eaa614f67)" style="fill: #2ca02c; opacity: 0.5"/>
   </g>
   <g id="patch_111">
    <path d="M 92.186028 256.32 
L 95.057009 256.32 
L 95.057009 122.362978 
L 92.186028 122.362978 
z
" clip-path="url(#p8eaa614f67)" style="fill: #2ca02c; opacity: 0.5"/>
   </g>
   <g id="patch_112">
    <path d="M 95.057009 256.32 
L 97.92799 256.32 
L 97.92799 102.478733 
L 95.057009 102.478733 
z
" clip-path="url(#p8eaa614f67)" style="fill: #2ca02c; opacity: 0.5"/>
   </g>
   <g id="patch_113">
    <path d="M 97.92799 256.32 
L 100.798971 256.32 
L 100.798971 105.618351 
L 97.92799 105.618351 
z
" clip-path="url(#p8eaa614f67)" style="fill: #2ca02c; opacity: 0.5"/>
   </g>
   <g id="patch_114">
    <path d="M 100.798971 256.32 
L 103.669952 256.32 
L 103.669952 99.339115 
L 100.798971 99.339115 
z
" clip-path="url(#p8eaa614f67)" style="fill: #2ca02c; opacity: 0.5"/>
   </g>
   <g id="patch_115">
    <path d="M 103.669952 256.32 
L 106.540933 256.32 
L 106.540933 96.548344 
L 103.669952 96.548344 
z
" clip-path="url(#p8eaa614f67)" style="fill: #2ca02c; opacity: 0.5"/>
   </g>
   <g id="patch_116">
    <path d="M 106.540933 256.32 
L 109.411913 256.32 
L 109.411913 108.060219 
L 106.540933 108.060219 
z
" clip-path="url(#p8eaa614f67)" style="fill: #2ca02c; opacity: 0.5"/>
   </g>
   <g id="patch_117">
    <path d="M 109.411913 256.32 
L 112.282895 256.32 
L 112.282895 101.432253 
L 109.411913 101.432253 
z
" clip-path="url(#p8eaa614f67)" style="fill: #2ca02c; opacity: 0.5"/>
   </g>
   <g id="patch_118">
    <path d="M 112.282895 256.32 
L 115.153875 256.32 
L 115.153875 109.106758 
L 112.282895 109.106758 
z
" clip-path="url(#p8eaa614f67)" style="fill: #2ca02c; opacity: 0.5"/>
   </g>
   <g id="patch_119">
    <path d="M 115.153875 256.32 
L 118.024855 256.32 
L 118.024855 115.385996 
L 115.153875 115.385996 
z
" clip-path="url(#p8eaa614f67)" style="fill: #2ca02c; opacity: 0.5"/>
   </g>
   <g id="patch_120">
    <path d="M 118.024855 256.32 
L 120.895837 256.32 
L 120.895837 135.270342 
L 118.024855 135.270342 
z
" clip-path="url(#p8eaa614f67)" style="fill: #2ca02c; opacity: 0.5"/>
   </g>
   <g id="patch_121">
    <path d="M 120.895837 256.32 
L 123.766819 256.32 
L 123.766819 131.781879 
L 120.895837 131.781879 
z
" clip-path="url(#p8eaa614f67)" style="fill: #2ca02c; opacity: 0.5"/>
   </g>
   <g id="patch_122">
    <path d="M 123.766819 256.32 
L 126.637797 256.32 
L 126.637797 134.572463 
L 123.766819 134.572463 
z
" clip-path="url(#p8eaa614f67)" style="fill: #2ca02c; opacity: 0.5"/>
   </g>
   <g id="patch_123">
    <path d="M 126.637797 256.32 
L 129.508779 256.32 
L 129.508779 135.968034 
L 126.637797 135.968034 
z
" clip-path="url(#p8eaa614f67)" style="fill: #2ca02c; opacity: 0.5"/>
   </g>
   <g id="patch_124">
    <path d="M 129.508779 256.32 
L 132.379761 256.32 
L 132.379761 141.200729 
L 129.508779 141.200729 
z
" clip-path="url(#p8eaa614f67)" style="fill: #2ca02c; opacity: 0.5"/>
   </g>
   <g id="patch_125">
    <path d="M 132.379761 256.32 
L 135.250743 256.32 
L 135.250743 148.5265 
L 132.379761 148.5265 
z
" clip-path="url(#p8eaa614f67)" style="fill: #2ca02c; opacity: 0.5"/>
   </g>
   <g id="patch_126">
    <path d="M 135.250743 256.32 
L 138.121721 256.32 
L 138.121721 157.596352 
L 135.250743 157.596352 
z
" clip-path="url(#p8eaa614f67)" style="fill: #2ca02c; opacity: 0.5"/>
   </g>
   <g id="patch_127">
    <path d="M 138.121721 256.32 
L 140.992703 256.32 
L 140.992703 150.968424 
L 138.121721 150.968424 
z
" clip-path="url(#p8eaa614f67)" style="fill: #2ca02c; opacity: 0.5"/>
   </g>
   <g id="patch_128">
    <path d="M 140.992703 256.32 
L 143.863685 256.32 
L 143.863685 169.806123 
L 140.992703 169.806123 
z
" clip-path="url(#p8eaa614f67)" style="fill: #2ca02c; opacity: 0.5"/>
   </g>
   <g id="patch_129">
    <path d="M 143.863685 256.32 
L 146.734662 256.32 
L 146.734662 176.43408 
L 143.863685 176.43408 
z
" clip-path="url(#p8eaa614f67)" style="fill: #2ca02c; opacity: 0.5"/>
   </g>
   <g id="patch_130">
    <path d="M 146.734662 256.32 
L 149.605645 256.32 
L 149.605645 176.783049 
L 146.734662 176.783049 
z
" clip-path="url(#p8eaa614f67)" style="fill: #2ca02c; opacity: 0.5"/>
   </g>
   <g id="patch_131">
    <path d="M 149.605645 256.32 
L 152.476627 256.32 
L 152.476627 192.132285 
L 149.605645 192.132285 
z
" clip-path="url(#p8eaa614f67)" style="fill: #2ca02c; opacity: 0.5"/>
   </g>
   <g id="patch_132">
    <path d="M 152.476627 256.32 
L 155.347609 256.32 
L 155.347609 193.876516 
L 152.476627 193.876516 
z
" clip-path="url(#p8eaa614f67)" style="fill: #2ca02c; opacity: 0.5"/>
   </g>
   <g id="patch_133">
    <path d="M 155.347609 256.32 
L 158.218586 256.32 
L 158.218586 199.45797 
L 155.347609 199.45797 
z
" clip-path="url(#p8eaa614f67)" style="fill: #2ca02c; opacity: 0.5"/>
   </g>
   <g id="patch_134">
    <path d="M 158.218586 256.32 
L 161.089573 256.32 
L 161.089573 212.016591 
L 158.218586 212.016591 
z
" clip-path="url(#p8eaa614f67)" style="fill: #2ca02c; opacity: 0.5"/>
   </g>
   <g id="patch_135">
    <path d="M 161.089573 256.32 
L 163.960546 256.32 
L 163.960546 202.248662 
L 161.089573 202.248662 
z
" clip-path="url(#p8eaa614f67)" style="fill: #2ca02c; opacity: 0.5"/>
   </g>
   <g id="patch_136">
    <path d="M 163.960546 256.32 
L 166.831528 256.32 
L 166.831528 220.039987 
L 163.960546 220.039987 
z
" clip-path="url(#p8eaa614f67)" style="fill: #2ca02c; opacity: 0.5"/>
   </g>
   <g id="patch_137">
    <path d="M 166.831528 256.32 
L 169.70251 256.32 
L 169.70251 224.574989 
L 166.831528 224.574989 
z
" clip-path="url(#p8eaa614f67)" style="fill: #2ca02c; opacity: 0.5"/>
   </g>
   <g id="patch_138">
    <path d="M 169.70251 256.32 
L 172.573492 256.32 
L 172.573492 222.481911 
L 169.70251 222.481911 
z
" clip-path="url(#p8eaa614f67)" style="fill: #2ca02c; opacity: 0.5"/>
   </g>
   <g id="patch_139">
    <path d="M 172.573492 256.32 
L 175.444474 256.32 
L 175.444474 231.203068 
L 172.573492 231.203068 
z
" clip-path="url(#p8eaa614f67)" style="fill: #2ca02c; opacity: 0.5"/>
   </g>
   <g id="patch_140">
    <path d="M 175.444474 256.32 
L 178.315456 256.32 
L 178.315456 233.644992 
L 175.444474 233.644992 
z
" clip-path="url(#p8eaa614f67)" style="fill: #2ca02c; opacity: 0.5"/>
   </g>
   <g id="patch_141">
    <path d="M 178.315456 256.32 
L 181.186439 256.32 
L 181.186439 233.644992 
L 178.315456 233.644992 
z
" clip-path="url(#p8eaa614f67)" style="fill: #2ca02c; opacity: 0.5"/>
   </g>
   <g id="patch_142">
    <path d="M 181.186439 256.32 
L 184.057412 256.32 
L 184.057412 236.784549 
L 181.186439 236.784549 
z
" clip-path="url(#p8eaa614f67)" style="fill: #2ca02c; opacity: 0.5"/>
   </g>
   <g id="patch_143">
    <path d="M 184.057412 256.32 
L 186.928394 256.32 
L 186.928394 237.831147 
L 184.057412 237.831147 
z
" clip-path="url(#p8eaa614f67)" style="fill: #2ca02c; opacity: 0.5"/>
   </g>
   <g id="patch_144">
    <path d="M 186.928394 256.32 
L 189.799376 256.32 
L 189.799376 248.645382 
L 186.928394 248.645382 
z
" clip-path="url(#p8eaa614f67)" style="fill: #2ca02c; opacity: 0.5"/>
   </g>
   <g id="patch_145">
    <path d="M 189.799376 256.32 
L 192.670358 256.32 
L 192.670358 242.366149 
L 189.799376 242.366149 
z
" clip-path="url(#p8eaa614f67)" style="fill: #2ca02c; opacity: 0.5"/>
   </g>
   <g id="patch_146">
    <path d="M 192.670358 256.32 
L 195.54134 256.32 
L 195.54134 242.017303 
L 192.670358 242.017303 
z
" clip-path="url(#p8eaa614f67)" style="fill: #2ca02c; opacity: 0.5"/>
   </g>
   <g id="patch_147">
    <path d="M 195.54134 256.32 
L 198.412322 256.32 
L 198.412322 247.947689 
L 195.54134 247.947689 
z
" clip-path="url(#p8eaa614f67)" style="fill: #2ca02c; opacity: 0.5"/>
   </g>
   <g id="patch_148">
    <path d="M 198.412322 256.32 
L 201.283304 256.32 
L 201.283304 247.598843 
L 198.412322 247.598843 
z
" clip-path="url(#p8eaa614f67)" style="fill: #2ca02c; opacity: 0.5"/>
   </g>
   <g id="patch_149">
    <path d="M 201.283304 256.32 
L 204.154277 256.32 
L 204.154277 247.598816 
L 201.283304 247.598816 
z
" clip-path="url(#p8eaa614f67)" style="fill: #2ca02c; opacity: 0.5"/>
   </g>
   <g id="patch_150">
    <path d="M 204.154277 256.32 
L 207.02526 256.32 
L 207.02526 249.343074 
L 204.154277 249.343074 
z
" clip-path="url(#p8eaa614f67)" style="fill: #2ca02c; opacity: 0.5"/>
   </g>
   <g id="patch_151">
    <path d="M 207.02526 256.32 
L 209.896242 256.32 
L 209.896242 247.947689 
L 207.02526 247.947689 
z
" clip-path="url(#p8eaa614f67)" style="fill: #2ca02c; opacity: 0.5"/>
   </g>
   <g id="patch_152">
    <path d="M 209.896242 256.32 
L 212.767224 256.32 
L 212.767224 252.133845 
L 209.896242 252.133845 
z
" clip-path="url(#p8eaa614f67)" style="fill: #2ca02c; opacity: 0.5"/>
   </g>
   <g id="patch_153">
    <path d="M 212.767224 256.32 
L 215.638206 256.32 
L 215.638206 254.226922 
L 212.767224 254.226922 
z
" clip-path="url(#p8eaa614f67)" style="fill: #2ca02c; opacity: 0.5"/>
   </g>
   <g id="patch_154">
    <path d="M 215.638206 256.32 
L 218.509188 256.32 
L 218.509188 250.040767 
L 215.638206 250.040767 
z
" clip-path="url(#p8eaa614f67)" style="fill: #2ca02c; opacity: 0.5"/>
   </g>
   <g id="patch_155">
    <path d="M 218.509188 256.32 
L 221.38017 256.32 
L 221.38017 251.436152 
L 218.509188 251.436152 
z
" clip-path="url(#p8eaa614f67)" style="fill: #2ca02c; opacity: 0.5"/>
   </g>
   <g id="patch_156">
    <path d="M 221.38017 256.32 
L 224.251143 256.32 
L 224.251143 251.436137 
L 221.38017 251.436137 
z
" clip-path="url(#p8eaa614f67)" style="fill: #2ca02c; opacity: 0.5"/>
   </g>
   <g id="patch_157">
    <path d="M 224.251143 256.32 
L 227.122125 256.32 
L 227.122125 252.831537 
L 224.251143 252.831537 
z
" clip-path="url(#p8eaa614f67)" style="fill: #2ca02c; opacity: 0.5"/>
   </g>
   <g id="patch_158">
    <path d="M 227.122125 256.32 
L 229.993107 256.32 
L 229.993107 253.52923 
L 227.122125 253.52923 
z
" clip-path="url(#p8eaa614f67)" style="fill: #2ca02c; opacity: 0.5"/>
   </g>
   <g id="patch_159">
    <path d="M 229.993107 256.32 
L 232.864089 256.32 
L 232.864089 253.878076 
L 229.993107 253.878076 
z
" clip-path="url(#p8eaa614f67)" style="fill: #2ca02c; opacity: 0.5"/>
   </g>
   <g id="patch_160">
    <path d="M 232.864089 256.32 
L 235.735071 256.32 
L 235.735071 254.575769 
L 232.864089 254.575769 
z
" clip-path="url(#p8eaa614f67)" style="fill: #2ca02c; opacity: 0.5"/>
   </g>
   <g id="patch_161">
    <path d="M 235.735071 256.32 
L 238.606045 256.32 
L 238.606045 253.529221 
L 235.735071 253.529221 
z
" clip-path="url(#p8eaa614f67)" style="fill: #2ca02c; opacity: 0.5"/>
   </g>
   <g id="patch_162">
    <path d="M 238.606045 256.32 
L 241.477036 256.32 
L 241.477036 256.32 
L 238.606045 256.32 
z
" clip-path="url(#p8eaa614f67)" style="fill: #2ca02c; opacity: 0.5"/>
   </g>
   <g id="patch_163">
    <path d="M 241.477036 256.32 
L 244.348009 256.32 
L 244.348009 255.273458 
L 241.477036 255.273458 
z
" clip-path="url(#p8eaa614f67)" style="fill: #2ca02c; opacity: 0.5"/>
   </g>
   <g id="patch_164">
    <path d="M 244.348009 256.32 
L 247.219 256.32 
L 247.219 253.529238 
L 244.348009 253.529238 
z
" clip-path="url(#p8eaa614f67)" style="fill: #2ca02c; opacity: 0.5"/>
   </g>
   <g id="patch_165">
    <path d="M 247.219 256.32 
L 250.089973 256.32 
L 250.089973 253.878069 
L 247.219 253.878069 
z
" clip-path="url(#p8eaa614f67)" style="fill: #2ca02c; opacity: 0.5"/>
   </g>
   <g id="patch_166">
    <path d="M 250.089973 256.32 
L 252.960964 256.32 
L 252.960964 254.575774 
L 250.089973 254.575774 
z
" clip-path="url(#p8eaa614f67)" style="fill: #2ca02c; opacity: 0.5"/>
   </g>
   <g id="patch_167">
    <path d="M 252.960964 256.32 
L 255.831937 256.32 
L 255.831937 254.575763 
L 252.960964 254.575763 
z
" clip-path="url(#p8eaa614f67)" style="fill: #2ca02c; opacity: 0.5"/>
   </g>
   <g id="patch_168">
    <path d="M 255.831937 256.32 
L 258.70291 256.32 
L 258.70291 254.924611 
L 255.831937 254.924611 
z
" clip-path="url(#p8eaa614f67)" style="fill: #2ca02c; opacity: 0.5"/>
   </g>
   <g id="patch_169">
    <path d="M 258.70291 256.32 
L 261.573901 256.32 
L 261.573901 254.924619 
L 258.70291 254.924619 
z
" clip-path="url(#p8eaa614f67)" style="fill: #2ca02c; opacity: 0.5"/>
   </g>
   <g id="patch_170">
    <path d="M 261.573901 256.32 
L 264.444875 256.32 
L 264.444875 255.971153 
L 261.573901 255.971153 
z
" clip-path="url(#p8eaa614f67)" style="fill: #2ca02c; opacity: 0.5"/>
   </g>
   <g id="patch_171">
    <path d="M 264.444875 256.32 
L 267.315865 256.32 
L 267.315865 255.273464 
L 264.444875 255.273464 
z
" clip-path="url(#p8eaa614f67)" style="fill: #2ca02c; opacity: 0.5"/>
   </g>
   <g id="patch_172">
    <path d="M 267.315865 256.32 
L 270.186839 256.32 
L 270.186839 255.273458 
L 267.315865 255.273458 
z
" clip-path="url(#p8eaa614f67)" style="fill: #2ca02c; opacity: 0.5"/>
   </g>
   <g id="patch_173">
    <path d="M 270.186839 256.32 
L 273.05783 256.32 
L 273.05783 253.529238 
L 270.186839 253.529238 
z
" clip-path="url(#p8eaa614f67)" style="fill: #2ca02c; opacity: 0.5"/>
   </g>
   <g id="patch_174">
    <path d="M 273.05783 256.32 
L 275.928803 256.32 
L 275.928803 255.971153 
L 273.05783 255.971153 
z
" clip-path="url(#p8eaa614f67)" style="fill: #2ca02c; opacity: 0.5"/>
   </g>
   <g id="patch_175">
    <path d="M 275.928803 256.32 
L 278.799776 256.32 
L 278.799776 255.622305 
L 275.928803 255.622305 
z
" clip-path="url(#p8eaa614f67)" style="fill: #2ca02c; opacity: 0.5"/>
   </g>
   <g id="patch_176">
    <path d="M 278.799776 256.32 
L 281.670767 256.32 
L 281.670767 255.971155 
L 278.799776 255.971155 
z
" clip-path="url(#p8eaa614f67)" style="fill: #2ca02c; opacity: 0.5"/>
   </g>
   <g id="patch_177">
    <path d="M 281.670767 256.32 
L 284.54174 256.32 
L 284.54174 256.32 
L 281.670767 256.32 
z
" clip-path="url(#p8eaa614f67)" style="fill: #2ca02c; opacity: 0.5"/>
   </g>
   <g id="patch_178">
    <path d="M 284.54174 256.32 
L 287.412731 256.32 
L 287.412731 254.924619 
L 284.54174 254.924619 
z
" clip-path="url(#p8eaa614f67)" style="fill: #2ca02c; opacity: 0.5"/>
   </g>
   <g id="patch_179">
    <path d="M 287.412731 256.32 
L 290.283704 256.32 
L 290.283704 256.32 
L 287.412731 256.32 
z
" clip-path="url(#p8eaa614f67)" style="fill: #2ca02c; opacity: 0.5"/>
   </g>
   <g id="patch_180">
    <path d="M 290.283704 256.32 
L 293.154695 256.32 
L 293.154695 254.924619 
L 290.283704 254.924619 
z
" clip-path="url(#p8eaa614f67)" style="fill: #2ca02c; opacity: 0.5"/>
   </g>
   <g id="patch_181">
    <path d="M 293.154695 256.32 
L 296.025668 256.32 
L 296.025668 255.273458 
L 293.154695 255.273458 
z
" clip-path="url(#p8eaa614f67)" style="fill: #2ca02c; opacity: 0.5"/>
   </g>
   <g id="patch_182">
    <path d="M 296.025668 256.32 
L 298.896642 256.32 
L 298.896642 256.32 
L 296.025668 256.32 
z
" clip-path="url(#p8eaa614f67)" style="fill: #2ca02c; opacity: 0.5"/>
   </g>
   <g id="patch_183">
    <path d="M 298.896642 256.32 
L 301.767633 256.32 
L 301.767633 255.62231 
L 298.896642 255.62231 
z
" clip-path="url(#p8eaa614f67)" style="fill: #2ca02c; opacity: 0.5"/>
   </g>
   <g id="patch_184">
    <path d="M 301.767633 256.32 
L 304.638606 256.32 
L 304.638606 256.32 
L 301.767633 256.32 
z
" clip-path="url(#p8eaa614f67)" style="fill: #2ca02c; opacity: 0.5"/>
   </g>
   <g id="patch_185">
    <path d="M 304.638606 256.32 
L 307.509597 256.32 
L 307.509597 255.62231 
L 304.638606 255.62231 
z
" clip-path="url(#p8eaa614f67)" style="fill: #2ca02c; opacity: 0.5"/>
   </g>
   <g id="patch_186">
    <path d="M 307.509597 256.32 
L 310.38057 256.32 
L 310.38057 255.971153 
L 307.509597 255.971153 
z
" clip-path="url(#p8eaa614f67)" style="fill: #2ca02c; opacity: 0.5"/>
   </g>
   <g id="patch_187">
    <path d="M 310.38057 256.32 
L 313.251561 256.32 
L 313.251561 256.32 
L 310.38057 256.32 
z
" clip-path="url(#p8eaa614f67)" style="fill: #2ca02c; opacity: 0.5"/>
   </g>
   <g id="patch_188">
    <path d="M 313.251561 256.32 
L 316.122534 256.32 
L 316.122534 256.32 
L 313.251561 256.32 
z
" clip-path="url(#p8eaa614f67)" style="fill: #2ca02c; opacity: 0.5"/>
   </g>
   <g id="patch_189">
    <path d="M 316.122534 256.32 
L 318.993507 256.32 
L 318.993507 255.971153 
L 316.122534 255.971153 
z
" clip-path="url(#p8eaa614f67)" style="fill: #2ca02c; opacity: 0.5"/>
   </g>
   <g id="patch_190">
    <path d="M 318.993507 256.32 
L 321.864498 256.32 
L 321.864498 255.62231 
L 318.993507 255.62231 
z
" clip-path="url(#p8eaa614f67)" style="fill: #2ca02c; opacity: 0.5"/>
   </g>
   <g id="patch_191">
    <path d="M 321.864498 256.32 
L 324.735472 256.32 
L 324.735472 256.32 
L 321.864498 256.32 
z
" clip-path="url(#p8eaa614f67)" style="fill: #2ca02c; opacity: 0.5"/>
   </g>
   <g id="patch_192">
    <path d="M 324.735472 256.32 
L 327.606462 256.32 
L 327.606462 255.971155 
L 324.735472 255.971155 
z
" clip-path="url(#p8eaa614f67)" style="fill: #2ca02c; opacity: 0.5"/>
   </g>
   <g id="patch_193">
    <path d="M 327.606462 256.32 
L 330.477436 256.32 
L 330.477436 256.32 
L 327.606462 256.32 
z
" clip-path="url(#p8eaa614f67)" style="fill: #2ca02c; opacity: 0.5"/>
   </g>
   <g id="patch_194">
    <path d="M 330.477436 256.32 
L 333.348427 256.32 
L 333.348427 256.32 
L 330.477436 256.32 
z
" clip-path="url(#p8eaa614f67)" style="fill: #2ca02c; opacity: 0.5"/>
   </g>
   <g id="patch_195">
    <path d="M 333.348427 256.32 
L 336.2194 256.32 
L 336.2194 255.622305 
L 333.348427 255.622305 
z
" clip-path="url(#p8eaa614f67)" style="fill: #2ca02c; opacity: 0.5"/>
   </g>
   <g id="patch_196">
    <path d="M 336.2194 256.32 
L 339.090373 256.32 
L 339.090373 256.32 
L 336.2194 256.32 
z
" clip-path="url(#p8eaa614f67)" style="fill: #2ca02c; opacity: 0.5"/>
   </g>
   <g id="patch_197">
    <path d="M 339.090373 256.32 
L 341.961364 256.32 
L 341.961364 256.32 
L 339.090373 256.32 
z
" clip-path="url(#p8eaa614f67)" style="fill: #2ca02c; opacity: 0.5"/>
   </g>
   <g id="patch_198">
    <path d="M 341.961364 256.32 
L 344.832337 256.32 
L 344.832337 256.32 
L 341.961364 256.32 
z
" clip-path="url(#p8eaa614f67)" style="fill: #2ca02c; opacity: 0.5"/>
   </g>
   <g id="patch_199">
    <path d="M 344.832337 256.32 
L 347.703328 256.32 
L 347.703328 256.32 
L 344.832337 256.32 
z
" clip-path="url(#p8eaa614f67)" style="fill: #2ca02c; opacity: 0.5"/>
   </g>
   <g id="patch_200">
    <path d="M 347.703328 256.32 
L 350.574301 256.32 
L 350.574301 256.32 
L 347.703328 256.32 
z
" clip-path="url(#p8eaa614f67)" style="fill: #2ca02c; opacity: 0.5"/>
   </g>
   <g id="patch_201">
    <path d="M 350.574301 256.32 
L 353.445292 256.32 
L 353.445292 256.32 
L 350.574301 256.32 
z
" clip-path="url(#p8eaa614f67)" style="fill: #2ca02c; opacity: 0.5"/>
   </g>
   <g id="patch_202">
    <path d="M 353.445292 256.32 
L 356.316266 256.32 
L 356.316266 255.971153 
L 353.445292 255.971153 
z
" clip-path="url(#p8eaa614f67)" style="fill: #2ca02c; opacity: 0.5"/>
   </g>
   <g id="patch_203">
    <path d="M 85.57048 256.32 
L 88.429966 256.32 
L 88.429966 52.124975 
L 85.57048 52.124975 
z
" clip-path="url(#p8eaa614f67)" style="fill: #ff7f0e; opacity: 0.5"/>
   </g>
   <g id="patch_204">
    <path d="M 88.429966 256.32 
L 91.289452 256.32 
L 91.289452 45.12 
L 88.429966 45.12 
z
" clip-path="url(#p8eaa614f67)" style="fill: #ff7f0e; opacity: 0.5"/>
   </g>
   <g id="patch_205">
    <path d="M 91.289452 256.32 
L 94.148938 256.32 
L 94.148938 45.820498 
L 91.289452 45.820498 
z
" clip-path="url(#p8eaa614f67)" style="fill: #ff7f0e; opacity: 0.5"/>
   </g>
   <g id="patch_206">
    <path d="M 94.148938 256.32 
L 97.008424 256.32 
L 97.008424 67.185672 
L 94.148938 67.185672 
z
" clip-path="url(#p8eaa614f67)" style="fill: #ff7f0e; opacity: 0.5"/>
   </g>
   <g id="patch_207">
    <path d="M 97.008424 256.32 
L 99.86791 256.32 
L 99.86791 62.982687 
L 97.008424 62.982687 
z
" clip-path="url(#p8eaa614f67)" style="fill: #ff7f0e; opacity: 0.5"/>
   </g>
   <g id="patch_208">
    <path d="M 99.86791 256.32 
L 102.727396 256.32 
L 102.727396 85.398607 
L 99.86791 85.398607 
z
" clip-path="url(#p8eaa614f67)" style="fill: #ff7f0e; opacity: 0.5"/>
   </g>
   <g id="patch_209">
    <path d="M 102.727396 256.32 
L 105.586882 256.32 
L 105.586882 106.413532 
L 102.727396 106.413532 
z
" clip-path="url(#p8eaa614f67)" style="fill: #ff7f0e; opacity: 0.5"/>
   </g>
   <g id="patch_210">
    <path d="M 105.586882 256.32 
L 108.446368 256.32 
L 108.446368 115.52 
L 105.586882 115.52 
z
" clip-path="url(#p8eaa614f67)" style="fill: #ff7f0e; opacity: 0.5"/>
   </g>
   <g id="patch_211">
    <path d="M 108.446368 256.32 
L 111.305854 256.32 
L 111.305854 144.590647 
L 108.446368 144.590647 
z
" clip-path="url(#p8eaa614f67)" style="fill: #ff7f0e; opacity: 0.5"/>
   </g>
   <g id="patch_212">
    <path d="M 111.305854 256.32 
L 114.16534 256.32 
L 114.16534 154.397612 
L 111.305854 154.397612 
z
" clip-path="url(#p8eaa614f67)" style="fill: #ff7f0e; opacity: 0.5"/>
   </g>
   <g id="patch_213">
    <path d="M 114.16534 256.32 
L 117.024826 256.32 
L 117.024826 159.651343 
L 114.16534 159.651343 
z
" clip-path="url(#p8eaa614f67)" style="fill: #ff7f0e; opacity: 0.5"/>
   </g>
   <g id="patch_214">
    <path d="M 117.024826 256.32 
L 119.884312 256.32 
L 119.884312 165.605572 
L 117.024826 165.605572 
z
" clip-path="url(#p8eaa614f67)" style="fill: #ff7f0e; opacity: 0.5"/>
   </g>
   <g id="patch_215">
    <path d="M 119.884312 256.32 
L 122.743797 256.32 
L 122.743797 178.915025 
L 119.884312 178.915025 
z
" clip-path="url(#p8eaa614f67)" style="fill: #ff7f0e; opacity: 0.5"/>
   </g>
   <g id="patch_216">
    <path d="M 122.743797 256.32 
L 125.603283 256.32 
L 125.603283 183.11801 
L 122.743797 183.11801 
z
" clip-path="url(#p8eaa614f67)" style="fill: #ff7f0e; opacity: 0.5"/>
   </g>
   <g id="patch_217">
    <path d="M 125.603283 256.32 
L 128.462769 256.32 
L 128.462769 191.874229 
L 125.603283 191.874229 
z
" clip-path="url(#p8eaa614f67)" style="fill: #ff7f0e; opacity: 0.5"/>
   </g>
   <g id="patch_218">
    <path d="M 128.462769 256.32 
L 131.322255 256.32 
L 131.322255 184.168756 
L 128.462769 184.168756 
z
" clip-path="url(#p8eaa614f67)" style="fill: #ff7f0e; opacity: 0.5"/>
   </g>
   <g id="patch_219">
    <path d="M 131.322255 256.32 
L 134.181741 256.32 
L 134.181741 181.717015 
L 131.322255 181.717015 
z
" clip-path="url(#p8eaa614f67)" style="fill: #ff7f0e; opacity: 0.5"/>
   </g>
   <g id="patch_220">
    <path d="M 134.181741 256.32 
L 137.041227 256.32 
L 137.041227 182.067264 
L 134.181741 182.067264 
z
" clip-path="url(#p8eaa614f67)" style="fill: #ff7f0e; opacity: 0.5"/>
   </g>
   <g id="patch_221">
    <path d="M 137.041227 256.32 
L 139.900713 256.32 
L 139.900713 174.361791 
L 137.041227 174.361791 
z
" clip-path="url(#p8eaa614f67)" style="fill: #ff7f0e; opacity: 0.5"/>
   </g>
   <g id="patch_222">
    <path d="M 139.900713 256.32 
L 142.760199 256.32 
L 142.760199 171.209552 
L 139.900713 171.209552 
z
" clip-path="url(#p8eaa614f67)" style="fill: #ff7f0e; opacity: 0.5"/>
   </g>
   <g id="patch_223">
    <path d="M 142.760199 256.32 
L 145.619685 256.32 
L 145.619685 161.752836 
L 142.760199 161.752836 
z
" clip-path="url(#p8eaa614f67)" style="fill: #ff7f0e; opacity: 0.5"/>
   </g>
   <g id="patch_224">
    <path d="M 145.619685 256.32 
L 148.479171 256.32 
L 148.479171 163.854328 
L 145.619685 163.854328 
z
" clip-path="url(#p8eaa614f67)" style="fill: #ff7f0e; opacity: 0.5"/>
   </g>
   <g id="patch_225">
    <path d="M 148.479171 256.32 
L 151.338657 256.32 
L 151.338657 169.458308 
L 148.479171 169.458308 
z
" clip-path="url(#p8eaa614f67)" style="fill: #ff7f0e; opacity: 0.5"/>
   </g>
   <g id="patch_226">
    <path d="M 151.338657 256.32 
L 154.198143 256.32 
L 154.198143 168.757811 
L 151.338657 168.757811 
z
" clip-path="url(#p8eaa614f67)" style="fill: #ff7f0e; opacity: 0.5"/>
   </g>
   <g id="patch_227">
    <path d="M 154.198143 256.32 
L 157.057629 256.32 
L 157.057629 170.158806 
L 154.198143 170.158806 
z
" clip-path="url(#p8eaa614f67)" style="fill: #ff7f0e; opacity: 0.5"/>
   </g>
   <g id="patch_228">
    <path d="M 157.057629 256.32 
L 159.917115 256.32 
L 159.917115 178.915025 
L 157.057629 178.915025 
z
" clip-path="url(#p8eaa614f67)" style="fill: #ff7f0e; opacity: 0.5"/>
   </g>
   <g id="patch_229">
    <path d="M 159.917115 256.32 
L 162.776601 256.32 
L 162.776601 179.965771 
L 159.917115 179.965771 
z
" clip-path="url(#p8eaa614f67)" style="fill: #ff7f0e; opacity: 0.5"/>
   </g>
   <g id="patch_230">
    <path d="M 162.776601 256.32 
L 165.636087 256.32 
L 165.636087 195.376716 
L 162.776601 195.376716 
z
" clip-path="url(#p8eaa614f67)" style="fill: #ff7f0e; opacity: 0.5"/>
   </g>
   <g id="patch_231">
    <path d="M 165.636087 256.32 
L 168.495573 256.32 
L 168.495573 200.280199 
L 165.636087 200.280199 
z
" clip-path="url(#p8eaa614f67)" style="fill: #ff7f0e; opacity: 0.5"/>
   </g>
   <g id="patch_232">
    <path d="M 168.495573 256.32 
L 171.355059 256.32 
L 171.355059 205.53393 
L 168.495573 205.53393 
z
" clip-path="url(#p8eaa614f67)" style="fill: #ff7f0e; opacity: 0.5"/>
   </g>
   <g id="patch_233">
    <path d="M 171.355059 256.32 
L 174.214545 256.32 
L 174.214545 218.142886 
L 171.355059 218.142886 
z
" clip-path="url(#p8eaa614f67)" style="fill: #ff7f0e; opacity: 0.5"/>
   </g>
   <g id="patch_234">
    <path d="M 174.214545 256.32 
L 177.074031 256.32 
L 177.074031 219.193632 
L 174.214545 219.193632 
z
" clip-path="url(#p8eaa614f67)" style="fill: #ff7f0e; opacity: 0.5"/>
   </g>
   <g id="patch_235">
    <path d="M 177.074031 256.32 
L 179.933517 256.32 
L 179.933517 223.396617 
L 177.074031 223.396617 
z
" clip-path="url(#p8eaa614f67)" style="fill: #ff7f0e; opacity: 0.5"/>
   </g>
   <g id="patch_236">
    <path d="M 179.933517 256.32 
L 182.793003 256.32 
L 182.793003 231.10209 
L 179.933517 231.10209 
z
" clip-path="url(#p8eaa614f67)" style="fill: #ff7f0e; opacity: 0.5"/>
   </g>
   <g id="patch_237">
    <path d="M 182.793003 256.32 
L 185.652489 256.32 
L 185.652489 236.005572 
L 182.793003 236.005572 
z
" clip-path="url(#p8eaa614f67)" style="fill: #ff7f0e; opacity: 0.5"/>
   </g>
   <g id="patch_238">
    <path d="M 185.652489 256.32 
L 188.511975 256.32 
L 188.511975 243.360796 
L 185.652489 243.360796 
z
" clip-path="url(#p8eaa614f67)" style="fill: #ff7f0e; opacity: 0.5"/>
   </g>
   <g id="patch_239">
    <path d="M 188.511975 256.32 
L 191.371461 256.32 
L 191.371461 243.010547 
L 188.511975 243.010547 
z
" clip-path="url(#p8eaa614f67)" style="fill: #ff7f0e; opacity: 0.5"/>
   </g>
   <g id="patch_240">
    <path d="M 191.371461 256.32 
L 194.230947 256.32 
L 194.230947 245.462289 
L 191.371461 245.462289 
z
" clip-path="url(#p8eaa614f67)" style="fill: #ff7f0e; opacity: 0.5"/>
   </g>
   <g id="patch_241">
    <path d="M 194.230947 256.32 
L 197.090433 256.32 
L 197.090433 249.665274 
L 194.230947 249.665274 
z
" clip-path="url(#p8eaa614f67)" style="fill: #ff7f0e; opacity: 0.5"/>
   </g>
   <g id="patch_242">
    <path d="M 197.090433 256.32 
L 199.949919 256.32 
L 199.949919 249.665274 
L 197.090433 249.665274 
z
" clip-path="url(#p8eaa614f67)" style="fill: #ff7f0e; opacity: 0.5"/>
   </g>
   <g id="patch_243">
    <path d="M 199.949919 256.32 
L 202.809405 256.32 
L 202.809405 250.365771 
L 199.949919 250.365771 
z
" clip-path="url(#p8eaa614f67)" style="fill: #ff7f0e; opacity: 0.5"/>
   </g>
   <g id="patch_244">
    <path d="M 202.809405 256.32 
L 205.668891 256.32 
L 205.668891 250.015522 
L 202.809405 250.015522 
z
" clip-path="url(#p8eaa614f67)" style="fill: #ff7f0e; opacity: 0.5"/>
   </g>
   <g id="patch_245">
    <path d="M 205.668891 256.32 
L 208.528377 256.32 
L 208.528377 252.117015 
L 205.668891 252.117015 
z
" clip-path="url(#p8eaa614f67)" style="fill: #ff7f0e; opacity: 0.5"/>
   </g>
   <g id="patch_246">
    <path d="M 208.528377 256.32 
L 211.387863 256.32 
L 211.387863 253.868259 
L 208.528377 253.868259 
z
" clip-path="url(#p8eaa614f67)" style="fill: #ff7f0e; opacity: 0.5"/>
   </g>
   <g id="patch_247">
    <path d="M 211.387863 256.32 
L 214.247349 256.32 
L 214.247349 254.218507 
L 211.387863 254.218507 
z
" clip-path="url(#p8eaa614f67)" style="fill: #ff7f0e; opacity: 0.5"/>
   </g>
   <g id="patch_248">
    <path d="M 214.247349 256.32 
L 217.106835 256.32 
L 217.106835 252.817512 
L 214.247349 252.817512 
z
" clip-path="url(#p8eaa614f67)" style="fill: #ff7f0e; opacity: 0.5"/>
   </g>
   <g id="patch_249">
    <path d="M 217.106835 256.32 
L 219.966321 256.32 
L 219.966321 253.868259 
L 217.106835 253.868259 
z
" clip-path="url(#p8eaa614f67)" style="fill: #ff7f0e; opacity: 0.5"/>
   </g>
   <g id="patch_250">
    <path d="M 219.966321 256.32 
L 222.825807 256.32 
L 222.825807 252.467264 
L 219.966321 252.467264 
z
" clip-path="url(#p8eaa614f67)" style="fill: #ff7f0e; opacity: 0.5"/>
   </g>
   <g id="patch_251">
    <path d="M 222.825807 256.32 
L 225.685293 256.32 
L 225.685293 254.919005 
L 222.825807 254.919005 
z
" clip-path="url(#p8eaa614f67)" style="fill: #ff7f0e; opacity: 0.5"/>
   </g>
   <g id="patch_252">
    <path d="M 225.685293 256.32 
L 228.544779 256.32 
L 228.544779 254.568756 
L 225.685293 254.568756 
z
" clip-path="url(#p8eaa614f67)" style="fill: #ff7f0e; opacity: 0.5"/>
   </g>
   <g id="patch_253">
    <path d="M 228.544779 256.32 
L 231.404264 256.32 
L 231.404264 254.568756 
L 228.544779 254.568756 
z
" clip-path="url(#p8eaa614f67)" style="fill: #ff7f0e; opacity: 0.5"/>
   </g>
   <g id="patch_254">
    <path d="M 231.404264 256.32 
L 234.26375 256.32 
L 234.26375 253.167761 
L 231.404264 253.167761 
z
" clip-path="url(#p8eaa614f67)" style="fill: #ff7f0e; opacity: 0.5"/>
   </g>
   <g id="patch_255">
    <path d="M 234.26375 256.32 
L 237.123236 256.32 
L 237.123236 254.218507 
L 234.26375 254.218507 
z
" clip-path="url(#p8eaa614f67)" style="fill: #ff7f0e; opacity: 0.5"/>
   </g>
   <g id="patch_256">
    <path d="M 237.123236 256.32 
L 239.982722 256.32 
L 239.982722 255.269254 
L 237.123236 255.269254 
z
" clip-path="url(#p8eaa614f67)" style="fill: #ff7f0e; opacity: 0.5"/>
   </g>
   <g id="patch_257">
    <path d="M 239.982722 256.32 
L 242.842208 256.32 
L 242.842208 255.619502 
L 239.982722 255.619502 
z
" clip-path="url(#p8eaa614f67)" style="fill: #ff7f0e; opacity: 0.5"/>
   </g>
   <g id="patch_258">
    <path d="M 242.842208 256.32 
L 245.701694 256.32 
L 245.701694 254.919005 
L 242.842208 254.919005 
z
" clip-path="url(#p8eaa614f67)" style="fill: #ff7f0e; opacity: 0.5"/>
   </g>
   <g id="patch_259">
    <path d="M 245.701694 256.32 
L 248.56118 256.32 
L 248.56118 255.619502 
L 245.701694 255.619502 
z
" clip-path="url(#p8eaa614f67)" style="fill: #ff7f0e; opacity: 0.5"/>
   </g>
   <g id="patch_260">
    <path d="M 248.56118 256.32 
L 251.420666 256.32 
L 251.420666 254.568756 
L 248.56118 254.568756 
z
" clip-path="url(#p8eaa614f67)" style="fill: #ff7f0e; opacity: 0.5"/>
   </g>
   <g id="patch_261">
    <path d="M 251.420666 256.32 
L 254.280152 256.32 
L 254.280152 255.969751 
L 251.420666 255.969751 
z
" clip-path="url(#p8eaa614f67)" style="fill: #ff7f0e; opacity: 0.5"/>
   </g>
   <g id="patch_262">
    <path d="M 254.280152 256.32 
L 257.139638 256.32 
L 257.139638 255.619502 
L 254.280152 255.619502 
z
" clip-path="url(#p8eaa614f67)" style="fill: #ff7f0e; opacity: 0.5"/>
   </g>
   <g id="patch_263">
    <path d="M 257.139638 256.32 
L 259.999124 256.32 
L 259.999124 255.619502 
L 257.139638 255.619502 
z
" clip-path="url(#p8eaa614f67)" style="fill: #ff7f0e; opacity: 0.5"/>
   </g>
   <g id="patch_264">
    <path d="M 259.999124 256.32 
L 262.85861 256.32 
L 262.85861 255.969751 
L 259.999124 255.969751 
z
" clip-path="url(#p8eaa614f67)" style="fill: #ff7f0e; opacity: 0.5"/>
   </g>
   <g id="patch_265">
    <path d="M 262.85861 256.32 
L 265.718096 256.32 
L 265.718096 255.619502 
L 262.85861 255.619502 
z
" clip-path="url(#p8eaa614f67)" style="fill: #ff7f0e; opacity: 0.5"/>
   </g>
   <g id="patch_266">
    <path d="M 265.718096 256.32 
L 268.577582 256.32 
L 268.577582 256.32 
L 265.718096 256.32 
z
" clip-path="url(#p8eaa614f67)" style="fill: #ff7f0e; opacity: 0.5"/>
   </g>
   <g id="patch_267">
    <path d="M 268.577582 256.32 
L 271.437068 256.32 
L 271.437068 255.619502 
L 268.577582 255.619502 
z
" clip-path="url(#p8eaa614f67)" style="fill: #ff7f0e; opacity: 0.5"/>
   </g>
   <g id="patch_268">
    <path d="M 271.437068 256.32 
L 274.296554 256.32 
L 274.296554 256.32 
L 271.437068 256.32 
z
" clip-path="url(#p8eaa614f67)" style="fill: #ff7f0e; opacity: 0.5"/>
   </g>
   <g id="patch_269">
    <path d="M 274.296554 256.32 
L 277.15604 256.32 
L 277.15604 256.32 
L 274.296554 256.32 
z
" clip-path="url(#p8eaa614f67)" style="fill: #ff7f0e; opacity: 0.5"/>
   </g>
   <g id="patch_270">
    <path d="M 277.15604 256.32 
L 280.015526 256.32 
L 280.015526 256.32 
L 277.15604 256.32 
z
" clip-path="url(#p8eaa614f67)" style="fill: #ff7f0e; opacity: 0.5"/>
   </g>
   <g id="patch_271">
    <path d="M 280.015526 256.32 
L 282.875012 256.32 
L 282.875012 256.32 
L 280.015526 256.32 
z
" clip-path="url(#p8eaa614f67)" style="fill: #ff7f0e; opacity: 0.5"/>
   </g>
   <g id="patch_272">
    <path d="M 282.875012 256.32 
L 285.734498 256.32 
L 285.734498 255.969751 
L 282.875012 255.969751 
z
" clip-path="url(#p8eaa614f67)" style="fill: #ff7f0e; opacity: 0.5"/>
   </g>
   <g id="patch_273">
    <path d="M 285.734498 256.32 
L 288.593984 256.32 
L 288.593984 256.32 
L 285.734498 256.32 
z
" clip-path="url(#p8eaa614f67)" style="fill: #ff7f0e; opacity: 0.5"/>
   </g>
   <g id="patch_274">
    <path d="M 288.593984 256.32 
L 291.45347 256.32 
L 291.45347 256.32 
L 288.593984 256.32 
z
" clip-path="url(#p8eaa614f67)" style="fill: #ff7f0e; opacity: 0.5"/>
   </g>
   <g id="patch_275">
    <path d="M 291.45347 256.32 
L 294.312956 256.32 
L 294.312956 255.969751 
L 291.45347 255.969751 
z
" clip-path="url(#p8eaa614f67)" style="fill: #ff7f0e; opacity: 0.5"/>
   </g>
   <g id="patch_276">
    <path d="M 294.312956 256.32 
L 297.172442 256.32 
L 297.172442 255.619502 
L 294.312956 255.619502 
z
" clip-path="url(#p8eaa614f67)" style="fill: #ff7f0e; opacity: 0.5"/>
   </g>
   <g id="patch_277">
    <path d="M 297.172442 256.32 
L 300.031928 256.32 
L 300.031928 255.969751 
L 297.172442 255.969751 
z
" clip-path="url(#p8eaa614f67)" style="fill: #ff7f0e; opacity: 0.5"/>
   </g>
   <g id="patch_278">
    <path d="M 300.031928 256.32 
L 302.891414 256.32 
L 302.891414 256.32 
L 300.031928 256.32 
z
" clip-path="url(#p8eaa614f67)" style="fill: #ff7f0e; opacity: 0.5"/>
   </g>
   <g id="patch_279">
    <path d="M 302.891414 256.32 
L 305.7509 256.32 
L 305.7509 256.32 
L 302.891414 256.32 
z
" clip-path="url(#p8eaa614f67)" style="fill: #ff7f0e; opacity: 0.5"/>
   </g>
   <g id="patch_280">
    <path d="M 305.7509 256.32 
L 308.610386 256.32 
L 308.610386 256.32 
L 305.7509 256.32 
z
" clip-path="url(#p8eaa614f67)" style="fill: #ff7f0e; opacity: 0.5"/>
   </g>
   <g id="patch_281">
    <path d="M 308.610386 256.32 
L 311.469872 256.32 
L 311.469872 256.32 
L 308.610386 256.32 
z
" clip-path="url(#p8eaa614f67)" style="fill: #ff7f0e; opacity: 0.5"/>
   </g>
   <g id="patch_282">
    <path d="M 311.469872 256.32 
L 314.329358 256.32 
L 314.329358 256.32 
L 311.469872 256.32 
z
" clip-path="url(#p8eaa614f67)" style="fill: #ff7f0e; opacity: 0.5"/>
   </g>
   <g id="patch_283">
    <path d="M 314.329358 256.32 
L 317.188844 256.32 
L 317.188844 255.969751 
L 314.329358 255.969751 
z
" clip-path="url(#p8eaa614f67)" style="fill: #ff7f0e; opacity: 0.5"/>
   </g>
   <g id="patch_284">
    <path d="M 317.188844 256.32 
L 320.04833 256.32 
L 320.04833 256.32 
L 317.188844 256.32 
z
" clip-path="url(#p8eaa614f67)" style="fill: #ff7f0e; opacity: 0.5"/>
   </g>
   <g id="patch_285">
    <path d="M 320.04833 256.32 
L 322.907816 256.32 
L 322.907816 256.32 
L 320.04833 256.32 
z
" clip-path="url(#p8eaa614f67)" style="fill: #ff7f0e; opacity: 0.5"/>
   </g>
   <g id="patch_286">
    <path d="M 322.907816 256.32 
L 325.767302 256.32 
L 325.767302 256.32 
L 322.907816 256.32 
z
" clip-path="url(#p8eaa614f67)" style="fill: #ff7f0e; opacity: 0.5"/>
   </g>
   <g id="patch_287">
    <path d="M 325.767302 256.32 
L 328.626788 256.32 
L 328.626788 256.32 
L 325.767302 256.32 
z
" clip-path="url(#p8eaa614f67)" style="fill: #ff7f0e; opacity: 0.5"/>
   </g>
   <g id="patch_288">
    <path d="M 328.626788 256.32 
L 331.486274 256.32 
L 331.486274 255.619502 
L 328.626788 255.619502 
z
" clip-path="url(#p8eaa614f67)" style="fill: #ff7f0e; opacity: 0.5"/>
   </g>
   <g id="patch_289">
    <path d="M 331.486274 256.32 
L 334.34576 256.32 
L 334.34576 256.32 
L 331.486274 256.32 
z
" clip-path="url(#p8eaa614f67)" style="fill: #ff7f0e; opacity: 0.5"/>
   </g>
   <g id="patch_290">
    <path d="M 334.34576 256.32 
L 337.205246 256.32 
L 337.205246 255.969751 
L 334.34576 255.969751 
z
" clip-path="url(#p8eaa614f67)" style="fill: #ff7f0e; opacity: 0.5"/>
   </g>
   <g id="patch_291">
    <path d="M 337.205246 256.32 
L 340.064731 256.32 
L 340.064731 256.32 
L 337.205246 256.32 
z
" clip-path="url(#p8eaa614f67)" style="fill: #ff7f0e; opacity: 0.5"/>
   </g>
   <g id="patch_292">
    <path d="M 340.064731 256.32 
L 342.924217 256.32 
L 342.924217 256.32 
L 340.064731 256.32 
z
" clip-path="url(#p8eaa614f67)" style="fill: #ff7f0e; opacity: 0.5"/>
   </g>
   <g id="patch_293">
    <path d="M 342.924217 256.32 
L 345.783703 256.32 
L 345.783703 256.32 
L 342.924217 256.32 
z
" clip-path="url(#p8eaa614f67)" style="fill: #ff7f0e; opacity: 0.5"/>
   </g>
   <g id="patch_294">
    <path d="M 345.783703 256.32 
L 348.643189 256.32 
L 348.643189 255.969751 
L 345.783703 255.969751 
z
" clip-path="url(#p8eaa614f67)" style="fill: #ff7f0e; opacity: 0.5"/>
   </g>
   <g id="patch_295">
    <path d="M 348.643189 256.32 
L 351.502675 256.32 
L 351.502675 256.32 
L 348.643189 256.32 
z
" clip-path="url(#p8eaa614f67)" style="fill: #ff7f0e; opacity: 0.5"/>
   </g>
   <g id="patch_296">
    <path d="M 351.502675 256.32 
L 354.362161 256.32 
L 354.362161 255.619502 
L 351.502675 255.619502 
z
" clip-path="url(#p8eaa614f67)" style="fill: #ff7f0e; opacity: 0.5"/>
   </g>
   <g id="patch_297">
    <path d="M 354.362161 256.32 
L 357.221647 256.32 
L 357.221647 256.32 
L 354.362161 256.32 
z
" clip-path="url(#p8eaa614f67)" style="fill: #ff7f0e; opacity: 0.5"/>
   </g>
   <g id="patch_298">
    <path d="M 357.221647 256.32 
L 360.081133 256.32 
L 360.081133 256.32 
L 357.221647 256.32 
z
" clip-path="url(#p8eaa614f67)" style="fill: #ff7f0e; opacity: 0.5"/>
   </g>
   <g id="patch_299">
    <path d="M 360.081133 256.32 
L 362.940619 256.32 
L 362.940619 255.969751 
L 360.081133 255.969751 
z
" clip-path="url(#p8eaa614f67)" style="fill: #ff7f0e; opacity: 0.5"/>
   </g>
   <g id="patch_300">
    <path d="M 362.940619 256.32 
L 365.800105 256.32 
L 365.800105 256.32 
L 362.940619 256.32 
z
" clip-path="url(#p8eaa614f67)" style="fill: #ff7f0e; opacity: 0.5"/>
   </g>
   <g id="patch_301">
    <path d="M 365.800105 256.32 
L 368.659591 256.32 
L 368.659591 256.32 
L 365.800105 256.32 
z
" clip-path="url(#p8eaa614f67)" style="fill: #ff7f0e; opacity: 0.5"/>
   </g>
   <g id="patch_302">
    <path d="M 368.659591 256.32 
L 371.519077 256.32 
L 371.519077 255.969751 
L 368.659591 255.969751 
z
" clip-path="url(#p8eaa614f67)" style="fill: #ff7f0e; opacity: 0.5"/>
   </g>
   <g id="matplotlib.axis_1">
    <g id="xtick_1">
     <g id="line2d_1">
      <defs>
       <path id="mf913a4fad1" d="M 0 0 
L 0 3.5 
" style="stroke: #000000; stroke-width: 0.8"/>
      </defs>
      <g>
       <use xlink:href="#mf913a4fad1" x="85.565202" y="256.32" style="stroke: #000000; stroke-width: 0.8"/>
      </g>
     </g>
     <g id="text_1">
      <!-- 0 -->
      <g transform="translate(81.747702 272.438125) scale(0.12 -0.12)">
       <defs>
        <path id="DejaVuSans-30" d="M 2034 4250 
Q 1547 4250 1301 3770 
Q 1056 3291 1056 2328 
Q 1056 1369 1301 889 
Q 1547 409 2034 409 
Q 2525 409 2770 889 
Q 3016 1369 3016 2328 
Q 3016 3291 2770 3770 
Q 2525 4250 2034 4250 
z
M 2034 4750 
Q 2819 4750 3233 4129 
Q 3647 3509 3647 2328 
Q 3647 1150 3233 529 
Q 2819 -91 2034 -91 
Q 1250 -91 836 529 
Q 422 1150 422 2328 
Q 422 3509 836 4129 
Q 1250 4750 2034 4750 
z
" transform="scale(0.015625)"/>
       </defs>
       <use xlink:href="#DejaVuSans-30"/>
      </g>
     </g>
    </g>
    <g id="xtick_2">
     <g id="line2d_2">
      <g>
       <use xlink:href="#mf913a4fad1" x="143.171015" y="256.32" style="stroke: #000000; stroke-width: 0.8"/>
      </g>
     </g>
     <g id="text_2">
      <!-- 100 -->
      <g transform="translate(131.718515 272.438125) scale(0.12 -0.12)">
       <defs>
        <path id="DejaVuSans-31" d="M 794 531 
L 1825 531 
L 1825 4091 
L 703 3866 
L 703 4441 
L 1819 4666 
L 2450 4666 
L 2450 531 
L 3481 531 
L 3481 0 
L 794 0 
L 794 531 
z
" transform="scale(0.015625)"/>
       </defs>
       <use xlink:href="#DejaVuSans-31"/>
       <use xlink:href="#DejaVuSans-30" x="63.623047"/>
       <use xlink:href="#DejaVuSans-30" x="127.246094"/>
      </g>
     </g>
    </g>
    <g id="xtick_3">
     <g id="line2d_3">
      <g>
       <use xlink:href="#mf913a4fad1" x="200.776827" y="256.32" style="stroke: #000000; stroke-width: 0.8"/>
      </g>
     </g>
     <g id="text_3">
      <!-- 200 -->
      <g transform="translate(189.324327 272.438125) scale(0.12 -0.12)">
       <defs>
        <path id="DejaVuSans-32" d="M 1228 531 
L 3431 531 
L 3431 0 
L 469 0 
L 469 531 
Q 828 903 1448 1529 
Q 2069 2156 2228 2338 
Q 2531 2678 2651 2914 
Q 2772 3150 2772 3378 
Q 2772 3750 2511 3984 
Q 2250 4219 1831 4219 
Q 1534 4219 1204 4116 
Q 875 4013 500 3803 
L 500 4441 
Q 881 4594 1212 4672 
Q 1544 4750 1819 4750 
Q 2544 4750 2975 4387 
Q 3406 4025 3406 3419 
Q 3406 3131 3298 2873 
Q 3191 2616 2906 2266 
Q 2828 2175 2409 1742 
Q 1991 1309 1228 531 
z
" transform="scale(0.015625)"/>
       </defs>
       <use xlink:href="#DejaVuSans-32"/>
       <use xlink:href="#DejaVuSans-30" x="63.623047"/>
       <use xlink:href="#DejaVuSans-30" x="127.246094"/>
      </g>
     </g>
    </g>
    <g id="xtick_4">
     <g id="line2d_4">
      <g>
       <use xlink:href="#mf913a4fad1" x="258.38264" y="256.32" style="stroke: #000000; stroke-width: 0.8"/>
      </g>
     </g>
     <g id="text_4">
      <!-- 300 -->
      <g transform="translate(246.93014 272.438125) scale(0.12 -0.12)">
       <defs>
        <path id="DejaVuSans-33" d="M 2597 2516 
Q 3050 2419 3304 2112 
Q 3559 1806 3559 1356 
Q 3559 666 3084 287 
Q 2609 -91 1734 -91 
Q 1441 -91 1130 -33 
Q 819 25 488 141 
L 488 750 
Q 750 597 1062 519 
Q 1375 441 1716 441 
Q 2309 441 2620 675 
Q 2931 909 2931 1356 
Q 2931 1769 2642 2001 
Q 2353 2234 1838 2234 
L 1294 2234 
L 1294 2753 
L 1863 2753 
Q 2328 2753 2575 2939 
Q 2822 3125 2822 3475 
Q 2822 3834 2567 4026 
Q 2313 4219 1838 4219 
Q 1578 4219 1281 4162 
Q 984 4106 628 3988 
L 628 4550 
Q 988 4650 1302 4700 
Q 1616 4750 1894 4750 
Q 2613 4750 3031 4423 
Q 3450 4097 3450 3541 
Q 3450 3153 3228 2886 
Q 3006 2619 2597 2516 
z
" transform="scale(0.015625)"/>
       </defs>
       <use xlink:href="#DejaVuSans-33"/>
       <use xlink:href="#DejaVuSans-30" x="63.623047"/>
       <use xlink:href="#DejaVuSans-30" x="127.246094"/>
      </g>
     </g>
    </g>
    <g id="xtick_5">
     <g id="line2d_5">
      <g>
       <use xlink:href="#mf913a4fad1" x="315.988452" y="256.32" style="stroke: #000000; stroke-width: 0.8"/>
      </g>
     </g>
     <g id="text_5">
      <!-- 400 -->
      <g transform="translate(304.535952 272.438125) scale(0.12 -0.12)">
       <defs>
        <path id="DejaVuSans-34" d="M 2419 4116 
L 825 1625 
L 2419 1625 
L 2419 4116 
z
M 2253 4666 
L 3047 4666 
L 3047 1625 
L 3713 1625 
L 3713 1100 
L 3047 1100 
L 3047 0 
L 2419 0 
L 2419 1100 
L 313 1100 
L 313 1709 
L 2253 4666 
z
" transform="scale(0.015625)"/>
       </defs>
       <use xlink:href="#DejaVuSans-34"/>
       <use xlink:href="#DejaVuSans-30" x="63.623047"/>
       <use xlink:href="#DejaVuSans-30" x="127.246094"/>
      </g>
     </g>
    </g>
    <g id="xtick_6">
     <g id="line2d_6">
      <g>
       <use xlink:href="#mf913a4fad1" x="373.594265" y="256.32" style="stroke: #000000; stroke-width: 0.8"/>
      </g>
     </g>
     <g id="text_6">
      <!-- 500 -->
      <g transform="translate(362.141765 272.438125) scale(0.12 -0.12)">
       <defs>
        <path id="DejaVuSans-35" d="M 691 4666 
L 3169 4666 
L 3169 4134 
L 1269 4134 
L 1269 2991 
Q 1406 3038 1543 3061 
Q 1681 3084 1819 3084 
Q 2600 3084 3056 2656 
Q 3513 2228 3513 1497 
Q 3513 744 3044 326 
Q 2575 -91 1722 -91 
Q 1428 -91 1123 -41 
Q 819 9 494 109 
L 494 744 
Q 775 591 1075 516 
Q 1375 441 1709 441 
Q 2250 441 2565 725 
Q 2881 1009 2881 1497 
Q 2881 1984 2565 2268 
Q 2250 2553 1709 2553 
Q 1456 2553 1204 2497 
Q 953 2441 691 2322 
L 691 4666 
z
" transform="scale(0.015625)"/>
       </defs>
       <use xlink:href="#DejaVuSans-35"/>
       <use xlink:href="#DejaVuSans-30" x="63.623047"/>
       <use xlink:href="#DejaVuSans-30" x="127.246094"/>
      </g>
     </g>
    </g>
    <g id="text_7">
     <!-- $\psi_2 - \psi_1$ -->
     <g transform="translate(189.9 292.574375) scale(0.18 -0.18)">
      <defs>
       <path id="DejaVuSans-Oblique-3c8" d="M 1591 -78 
Q 891 38 616 341 
Q 278 713 425 1472 
L 819 3500 
L 1400 3500 
L 1009 1494 
Q 900 922 1119 684 
Q 1313 478 1691 434 
L 2284 3500 
L 2856 3500 
L 2263 438 
Q 2681 481 2928 688 
Q 3247 950 3353 1497 
L 3741 3500 
L 4322 3500 
L 3928 1475 
Q 3775 688 3300 344 
Q 2872 34 2163 -75 
L 1919 -1331 
L 1347 -1331 
L 1591 -78 
z
" transform="scale(0.015625)"/>
       <path id="DejaVuSans-2212" d="M 678 2272 
L 4684 2272 
L 4684 1741 
L 678 1741 
L 678 2272 
z
" transform="scale(0.015625)"/>
      </defs>
      <use xlink:href="#DejaVuSans-Oblique-3c8" transform="translate(0 0.3125)"/>
      <use xlink:href="#DejaVuSans-32" transform="translate(65.966797 -16.09375) scale(0.7)"/>
      <use xlink:href="#DejaVuSans-2212" transform="translate(132.719727 0.3125)"/>
      <use xlink:href="#DejaVuSans-Oblique-3c8" transform="translate(235.991211 0.3125)"/>
      <use xlink:href="#DejaVuSans-31" transform="translate(301.958008 -16.09375) scale(0.7)"/>
     </g>
    </g>
   </g>
   <g id="matplotlib.axis_2">
    <g id="ytick_1">
     <g id="line2d_7">
      <defs>
       <path id="m94a53c6193" d="M 0 0 
L -3.5 0 
" style="stroke: #000000; stroke-width: 0.8"/>
      </defs>
      <g>
       <use xlink:href="#m94a53c6193" x="54" y="256.32" style="stroke: #000000; stroke-width: 0.8"/>
      </g>
     </g>
     <g id="text_8">
      <!-- 0.000 -->
      <g transform="translate(12.64625 260.879063) scale(0.12 -0.12)">
       <defs>
        <path id="DejaVuSans-2e" d="M 684 794 
L 1344 794 
L 1344 0 
L 684 0 
L 684 794 
z
" transform="scale(0.015625)"/>
       </defs>
       <use xlink:href="#DejaVuSans-30"/>
       <use xlink:href="#DejaVuSans-2e" x="63.623047"/>
       <use xlink:href="#DejaVuSans-30" x="95.410156"/>
       <use xlink:href="#DejaVuSans-30" x="159.033203"/>
       <use xlink:href="#DejaVuSans-30" x="222.65625"/>
      </g>
     </g>
    </g>
    <g id="ytick_2">
     <g id="line2d_8">
      <g>
       <use xlink:href="#m94a53c6193" x="54" y="221.548113" style="stroke: #000000; stroke-width: 0.8"/>
      </g>
     </g>
     <g id="text_9">
      <!-- 0.002 -->
      <g transform="translate(12.64625 226.107175) scale(0.12 -0.12)">
       <use xlink:href="#DejaVuSans-30"/>
       <use xlink:href="#DejaVuSans-2e" x="63.623047"/>
       <use xlink:href="#DejaVuSans-30" x="95.410156"/>
       <use xlink:href="#DejaVuSans-30" x="159.033203"/>
       <use xlink:href="#DejaVuSans-32" x="222.65625"/>
      </g>
     </g>
    </g>
    <g id="ytick_3">
     <g id="line2d_9">
      <g>
       <use xlink:href="#m94a53c6193" x="54" y="186.776226" style="stroke: #000000; stroke-width: 0.8"/>
      </g>
     </g>
     <g id="text_10">
      <!-- 0.004 -->
      <g transform="translate(12.64625 191.335288) scale(0.12 -0.12)">
       <use xlink:href="#DejaVuSans-30"/>
       <use xlink:href="#DejaVuSans-2e" x="63.623047"/>
       <use xlink:href="#DejaVuSans-30" x="95.410156"/>
       <use xlink:href="#DejaVuSans-30" x="159.033203"/>
       <use xlink:href="#DejaVuSans-34" x="222.65625"/>
      </g>
     </g>
    </g>
    <g id="ytick_4">
     <g id="line2d_10">
      <g>
       <use xlink:href="#m94a53c6193" x="54" y="152.004339" style="stroke: #000000; stroke-width: 0.8"/>
      </g>
     </g>
     <g id="text_11">
      <!-- 0.006 -->
      <g transform="translate(12.64625 156.563401) scale(0.12 -0.12)">
       <defs>
        <path id="DejaVuSans-36" d="M 2113 2584 
Q 1688 2584 1439 2293 
Q 1191 2003 1191 1497 
Q 1191 994 1439 701 
Q 1688 409 2113 409 
Q 2538 409 2786 701 
Q 3034 994 3034 1497 
Q 3034 2003 2786 2293 
Q 2538 2584 2113 2584 
z
M 3366 4563 
L 3366 3988 
Q 3128 4100 2886 4159 
Q 2644 4219 2406 4219 
Q 1781 4219 1451 3797 
Q 1122 3375 1075 2522 
Q 1259 2794 1537 2939 
Q 1816 3084 2150 3084 
Q 2853 3084 3261 2657 
Q 3669 2231 3669 1497 
Q 3669 778 3244 343 
Q 2819 -91 2113 -91 
Q 1303 -91 875 529 
Q 447 1150 447 2328 
Q 447 3434 972 4092 
Q 1497 4750 2381 4750 
Q 2619 4750 2861 4703 
Q 3103 4656 3366 4563 
z
" transform="scale(0.015625)"/>
       </defs>
       <use xlink:href="#DejaVuSans-30"/>
       <use xlink:href="#DejaVuSans-2e" x="63.623047"/>
       <use xlink:href="#DejaVuSans-30" x="95.410156"/>
       <use xlink:href="#DejaVuSans-30" x="159.033203"/>
       <use xlink:href="#DejaVuSans-36" x="222.65625"/>
      </g>
     </g>
    </g>
    <g id="ytick_5">
     <g id="line2d_11">
      <g>
       <use xlink:href="#m94a53c6193" x="54" y="117.232451" style="stroke: #000000; stroke-width: 0.8"/>
      </g>
     </g>
     <g id="text_12">
      <!-- 0.008 -->
      <g transform="translate(12.64625 121.791514) scale(0.12 -0.12)">
       <defs>
        <path id="DejaVuSans-38" d="M 2034 2216 
Q 1584 2216 1326 1975 
Q 1069 1734 1069 1313 
Q 1069 891 1326 650 
Q 1584 409 2034 409 
Q 2484 409 2743 651 
Q 3003 894 3003 1313 
Q 3003 1734 2745 1975 
Q 2488 2216 2034 2216 
z
M 1403 2484 
Q 997 2584 770 2862 
Q 544 3141 544 3541 
Q 544 4100 942 4425 
Q 1341 4750 2034 4750 
Q 2731 4750 3128 4425 
Q 3525 4100 3525 3541 
Q 3525 3141 3298 2862 
Q 3072 2584 2669 2484 
Q 3125 2378 3379 2068 
Q 3634 1759 3634 1313 
Q 3634 634 3220 271 
Q 2806 -91 2034 -91 
Q 1263 -91 848 271 
Q 434 634 434 1313 
Q 434 1759 690 2068 
Q 947 2378 1403 2484 
z
M 1172 3481 
Q 1172 3119 1398 2916 
Q 1625 2713 2034 2713 
Q 2441 2713 2670 2916 
Q 2900 3119 2900 3481 
Q 2900 3844 2670 4047 
Q 2441 4250 2034 4250 
Q 1625 4250 1398 4047 
Q 1172 3844 1172 3481 
z
" transform="scale(0.015625)"/>
       </defs>
       <use xlink:href="#DejaVuSans-30"/>
       <use xlink:href="#DejaVuSans-2e" x="63.623047"/>
       <use xlink:href="#DejaVuSans-30" x="95.410156"/>
       <use xlink:href="#DejaVuSans-30" x="159.033203"/>
       <use xlink:href="#DejaVuSans-38" x="222.65625"/>
      </g>
     </g>
    </g>
    <g id="ytick_6">
     <g id="line2d_12">
      <g>
       <use xlink:href="#m94a53c6193" x="54" y="82.460564" style="stroke: #000000; stroke-width: 0.8"/>
      </g>
     </g>
     <g id="text_13">
      <!-- 0.010 -->
      <g transform="translate(12.64625 87.019627) scale(0.12 -0.12)">
       <use xlink:href="#DejaVuSans-30"/>
       <use xlink:href="#DejaVuSans-2e" x="63.623047"/>
       <use xlink:href="#DejaVuSans-30" x="95.410156"/>
       <use xlink:href="#DejaVuSans-31" x="159.033203"/>
       <use xlink:href="#DejaVuSans-30" x="222.65625"/>
      </g>
     </g>
    </g>
    <g id="ytick_7">
     <g id="line2d_13">
      <g>
       <use xlink:href="#m94a53c6193" x="54" y="47.688677" style="stroke: #000000; stroke-width: 0.8"/>
      </g>
     </g>
     <g id="text_14">
      <!-- 0.012 -->
      <g transform="translate(12.64625 52.24774) scale(0.12 -0.12)">
       <use xlink:href="#DejaVuSans-30"/>
       <use xlink:href="#DejaVuSans-2e" x="63.623047"/>
       <use xlink:href="#DejaVuSans-30" x="95.410156"/>
       <use xlink:href="#DejaVuSans-31" x="159.033203"/>
       <use xlink:href="#DejaVuSans-32" x="222.65625"/>
      </g>
     </g>
    </g>
   </g>
   <g id="patch_303">
    <path d="M 54 256.32 
L 54 34.56 
" style="fill: none; stroke: #000000; stroke-width: 0.8; stroke-linejoin: miter; stroke-linecap: square"/>
   </g>
   <g id="patch_304">
    <path d="M 388.8 256.32 
L 388.8 34.56 
" style="fill: none; stroke: #000000; stroke-width: 0.8; stroke-linejoin: miter; stroke-linecap: square"/>
   </g>
   <g id="patch_305">
    <path d="M 54 256.32 
L 388.8 256.32 
" style="fill: none; stroke: #000000; stroke-width: 0.8; stroke-linejoin: miter; stroke-linecap: square"/>
   </g>
   <g id="patch_306">
    <path d="M 54 34.56 
L 388.8 34.56 
" style="fill: none; stroke: #000000; stroke-width: 0.8; stroke-linejoin: miter; stroke-linecap: square"/>
   </g>
   <g id="legend_1">
    <g id="patch_307">
     <path d="M 304.489375 107.408125 
L 379 107.408125 
Q 381.8 107.408125 381.8 104.608125 
L 381.8 44.36 
Q 381.8 41.56 379 41.56 
L 304.489375 41.56 
Q 301.689375 41.56 301.689375 44.36 
L 301.689375 104.608125 
Q 301.689375 107.408125 304.489375 107.408125 
z
" style="fill: #ffffff; opacity: 0.8; stroke: #cccccc; stroke-linejoin: miter"/>
    </g>
    <g id="patch_308">
     <path d="M 307.289375 57.797813 
L 321.289375 57.797813 
L 321.289375 47.997813 
L 307.289375 47.997813 
z
" style="fill: #1f77b4; opacity: 0.2"/>
    </g>
    <g id="text_15">
     <!-- Prior -->
     <g transform="translate(332.489375 57.797813) scale(0.14 -0.14)">
      <defs>
       <path id="DejaVuSans-50" d="M 1259 4147 
L 1259 2394 
L 2053 2394 
Q 2494 2394 2734 2622 
Q 2975 2850 2975 3272 
Q 2975 3691 2734 3919 
Q 2494 4147 2053 4147 
L 1259 4147 
z
M 628 4666 
L 2053 4666 
Q 2838 4666 3239 4311 
Q 3641 3956 3641 3272 
Q 3641 2581 3239 2228 
Q 2838 1875 2053 1875 
L 1259 1875 
L 1259 0 
L 628 0 
L 628 4666 
z
" transform="scale(0.015625)"/>
       <path id="DejaVuSans-72" d="M 2631 2963 
Q 2534 3019 2420 3045 
Q 2306 3072 2169 3072 
Q 1681 3072 1420 2755 
Q 1159 2438 1159 1844 
L 1159 0 
L 581 0 
L 581 3500 
L 1159 3500 
L 1159 2956 
Q 1341 3275 1631 3429 
Q 1922 3584 2338 3584 
Q 2397 3584 2469 3576 
Q 2541 3569 2628 3553 
L 2631 2963 
z
" transform="scale(0.015625)"/>
       <path id="DejaVuSans-69" d="M 603 3500 
L 1178 3500 
L 1178 0 
L 603 0 
L 603 3500 
z
M 603 4863 
L 1178 4863 
L 1178 4134 
L 603 4134 
L 603 4863 
z
" transform="scale(0.015625)"/>
       <path id="DejaVuSans-6f" d="M 1959 3097 
Q 1497 3097 1228 2736 
Q 959 2375 959 1747 
Q 959 1119 1226 758 
Q 1494 397 1959 397 
Q 2419 397 2687 759 
Q 2956 1122 2956 1747 
Q 2956 2369 2687 2733 
Q 2419 3097 1959 3097 
z
M 1959 3584 
Q 2709 3584 3137 3096 
Q 3566 2609 3566 1747 
Q 3566 888 3137 398 
Q 2709 -91 1959 -91 
Q 1206 -91 779 398 
Q 353 888 353 1747 
Q 353 2609 779 3096 
Q 1206 3584 1959 3584 
z
" transform="scale(0.015625)"/>
      </defs>
      <use xlink:href="#DejaVuSans-50"/>
      <use xlink:href="#DejaVuSans-72" x="58.552734"/>
      <use xlink:href="#DejaVuSans-69" x="99.666016"/>
      <use xlink:href="#DejaVuSans-6f" x="127.449219"/>
      <use xlink:href="#DejaVuSans-72" x="188.630859"/>
     </g>
    </g>
    <g id="patch_309">
     <path d="M 307.289375 78.347188 
L 321.289375 78.347188 
L 321.289375 68.547188 
L 307.289375 68.547188 
z
" style="fill: #2ca02c; opacity: 0.5"/>
    </g>
    <g id="text_16">
     <!-- FMPE -->
     <g transform="translate(332.489375 78.347188) scale(0.14 -0.14)">
      <defs>
       <path id="DejaVuSans-46" d="M 628 4666 
L 3309 4666 
L 3309 4134 
L 1259 4134 
L 1259 2759 
L 3109 2759 
L 3109 2228 
L 1259 2228 
L 1259 0 
L 628 0 
L 628 4666 
z
" transform="scale(0.015625)"/>
       <path id="DejaVuSans-4d" d="M 628 4666 
L 1569 4666 
L 2759 1491 
L 3956 4666 
L 4897 4666 
L 4897 0 
L 4281 0 
L 4281 4097 
L 3078 897 
L 2444 897 
L 1241 4097 
L 1241 0 
L 628 0 
L 628 4666 
z
" transform="scale(0.015625)"/>
       <path id="DejaVuSans-45" d="M 628 4666 
L 3578 4666 
L 3578 4134 
L 1259 4134 
L 1259 2753 
L 3481 2753 
L 3481 2222 
L 1259 2222 
L 1259 531 
L 3634 531 
L 3634 0 
L 628 0 
L 628 4666 
z
" transform="scale(0.015625)"/>
      </defs>
      <use xlink:href="#DejaVuSans-46"/>
      <use xlink:href="#DejaVuSans-4d" x="57.519531"/>
      <use xlink:href="#DejaVuSans-50" x="143.798828"/>
      <use xlink:href="#DejaVuSans-45" x="204.101562"/>
     </g>
    </g>
    <g id="patch_310">
     <path d="M 307.289375 98.896563 
L 321.289375 98.896563 
L 321.289375 89.096563 
L 307.289375 89.096563 
z
" style="fill: #ff7f0e; opacity: 0.5"/>
    </g>
    <g id="text_17">
     <!-- MCMC -->
     <g transform="translate(332.489375 98.896563) scale(0.14 -0.14)">
      <defs>
       <path id="DejaVuSans-43" d="M 4122 4306 
L 4122 3641 
Q 3803 3938 3442 4084 
Q 3081 4231 2675 4231 
Q 1875 4231 1450 3742 
Q 1025 3253 1025 2328 
Q 1025 1406 1450 917 
Q 1875 428 2675 428 
Q 3081 428 3442 575 
Q 3803 722 4122 1019 
L 4122 359 
Q 3791 134 3420 21 
Q 3050 -91 2638 -91 
Q 1578 -91 968 557 
Q 359 1206 359 2328 
Q 359 3453 968 4101 
Q 1578 4750 2638 4750 
Q 3056 4750 3426 4639 
Q 3797 4528 4122 4306 
z
" transform="scale(0.015625)"/>
      </defs>
      <use xlink:href="#DejaVuSans-4d"/>
      <use xlink:href="#DejaVuSans-43" x="86.279297"/>
      <use xlink:href="#DejaVuSans-4d" x="156.103516"/>
      <use xlink:href="#DejaVuSans-43" x="242.382812"/>
     </g>
    </g>
   </g>
  </g>
 </g>
 <defs>
  <clipPath id="p8eaa614f67">
   <rect x="54" y="34.56" width="334.8" height="221.76"/>
  </clipPath>
 </defs>
</svg>
